# Blender v3.5.1 OBJ File: 'omaigat.blend'
# www.blender.org
mtllib kitchenset2.mtl
o Counter_corner_Cube.070
v 12.207872 0.364998 4.027099
v 12.218803 0.375929 4.027099
v 12.207872 0.375929 4.038030
v 12.218803 2.540346 4.027099
v 12.207872 2.551277 4.027099
v 12.207872 2.540346 4.038030
v 10.362567 0.364998 4.027099
v 10.362567 0.375929 4.038030
v 10.351636 0.375929 4.027099
v 10.362567 2.551277 4.027099
v 10.351636 2.540346 4.027099
v 10.362567 2.540346 4.038030
v 12.207872 0.364998 1.862682
v 12.207872 0.375929 1.851750
v 12.218803 0.375929 1.862682
v 12.207872 2.551277 1.862682
v 12.218803 2.540346 1.862682
v 12.207872 2.540346 1.851750
v 10.362567 0.364998 1.862682
v 10.351636 0.375929 1.862682
v 10.362567 0.375929 1.851750
v 10.362567 2.551277 1.862682
v 10.362567 2.540346 1.851750
v 10.351636 2.540346 1.862682
v 12.203098 2.555001 4.045280
v 12.203098 2.544069 4.034348
v 12.214029 2.555001 4.034348
v 10.357793 2.555001 4.045280
v 10.346861 2.555001 4.034348
v 10.357793 2.544069 4.034348
v 12.203097 2.555001 1.858734
v 12.214029 2.555001 1.869665
v 12.203097 2.544069 1.869665
v 10.346861 2.555001 1.869665
v 10.357792 2.555001 1.858734
v 10.357792 2.544069 1.869665
v 12.203098 2.695119 4.045280
v 12.214029 2.695119 4.034348
v 12.203098 2.706051 4.034348
v 10.357793 2.695119 4.045280
v 10.357793 2.706051 4.034348
v 10.346861 2.695119 4.034348
v 10.346861 2.695119 1.869665
v 10.357792 2.706051 1.869665
v 10.357792 2.695119 1.858734
v 12.203097 2.695119 1.858734
v 12.203097 2.706051 1.869665
v 12.214029 2.695119 1.869665
vt 0.623750 0.751250
vt 0.376250 0.998750
vt 0.376250 0.751250
vt 0.623750 0.501464
vt 0.376250 0.748536
vt 0.376250 0.501464
vt 0.873750 0.501464
vt 0.626250 0.748536
vt 0.626250 0.501464
vt 0.623750 0.001464
vt 0.376250 0.248536
vt 0.376250 0.001464
vt 0.623750 0.251250
vt 0.376250 0.498750
vt 0.376250 0.251250
vt 0.126250 0.748536
vt 0.126250 0.750000
vt 0.125000 0.748536
vt 0.623750 0.998750
vt 0.625000 0.998750
vt 0.623750 1.000000
vt 0.126250 0.501464
vt 0.125000 0.501464
vt 0.126250 0.500000
vt 0.625000 0.251250
vt 0.623750 0.250000
vt 0.373750 0.748536
vt 0.375000 0.748536
vt 0.373750 0.750000
vt 0.625000 0.751250
vt 0.623750 0.750000
vt 0.375000 0.498750
vt 0.376250 0.500000
vt 0.625000 0.501464
vt 0.623750 0.500000
vt 0.623750 0.000000
vt 0.376250 0.000000
vt 0.625000 0.248536
vt 0.625000 0.001464
vt 0.623750 0.248536
vt 0.375000 0.251250
vt 0.625000 0.498750
vt 0.623750 0.498750
vt 0.373750 0.501464
vt 0.623750 0.748536
vt 0.873750 0.748536
vt 0.875000 0.748536
vt 0.875000 0.501464
vt 0.875000 0.501464
vt 0.626250 0.750000
vt 0.873750 0.750000
vt 0.873750 0.750000
vt 0.873750 0.501464
vt 0.626250 0.748536
vt 0.626250 0.501464
vt 0.626250 0.748536
vt 0.873750 0.501464
vt 0.626250 0.501464
vt 0.873750 0.500000
vt 0.626250 0.500000
vt 0.626250 0.500000
vt 0.625000 0.501464
vt 0.625000 0.748536
vt 0.625000 0.748536
vt 0.873750 0.748536
vt 0.875000 0.748536
vt 0.873750 0.748536
vt 0.873750 0.500000
vt 0.625000 0.501464
vt 0.626250 0.750000
vn 1.0000 0.0000 0.0000
vn 0.0000 0.0000 -1.0000
vn 0.0000 1.0000 0.0000
vn 0.0000 0.0000 1.0000
vn -1.0000 0.0000 0.0000
vn 0.0001 -1.0000 0.0000
vn -0.0001 0.0000 1.0000
vn 0.0000 1.0000 0.0001
vn 0.0000 -0.0001 1.0000
vn 0.0001 -0.0000 1.0000
vn -1.0000 -0.0001 -0.0000
vn -0.0000 1.0000 -0.0001
vn -1.0000 -0.0000 0.0001
vn -0.0001 -1.0000 0.0000
vn -0.0000 -0.0001 -1.0000
vn 1.0000 -0.0001 0.0000
vn -0.0000 0.0001 -1.0000
vn -0.0001 -1.0000 0.0001
vn -0.0001 -0.0001 -1.0000
vn -0.7071 -0.4958 0.5042
vn 0.0037 -0.0000 1.0000
vn 0.0000 -1.0000 -0.0000
vn 0.4964 -0.7071 0.5036
vn -0.0000 0.0034 1.0000
vn 0.7071 0.4958 0.5042
vn -0.0040 -0.0000 1.0000
vn -0.4964 0.7071 0.5036
vn 0.0000 -0.0034 1.0000
vn -0.5036 -0.4964 -0.7071
vn -1.0000 0.0000 0.0034
vn -0.5036 0.4964 0.7071
vn -1.0000 -0.0001 -0.0034
vn -0.5036 0.7071 -0.4964
vn -1.0000 -0.0034 0.0000
vn 0.7071 -0.4958 -0.5042
vn -0.0037 -0.0000 -1.0000
vn -0.7071 0.4958 -0.5042
vn 0.0040 -0.0000 -1.0000
vn 0.4964 0.7071 -0.5035
vn 0.0000 -0.0034 -1.0000
vn 1.0000 -0.0000 0.0001
vn 0.5036 -0.4964 0.7071
vn 1.0000 0.0000 -0.0034
vn 0.5036 0.4964 -0.7071
vn 1.0000 -0.0001 0.0034
vn -0.0040 -1.0000 0.0000
vn 0.7071 -0.5042 0.4958
vn 1.0000 -0.0034 -0.0000
vn 0.5036 0.7071 0.4964
vn 0.0040 1.0000 0.0000
vn -0.7071 0.5042 0.4958
vn -1.0000 0.0034 -0.0000
vn -0.5036 -0.7071 0.4964
vn -0.0000 -1.0000 -0.0036
vn -0.4965 -0.5036 0.7071
vn -0.0000 1.0000 0.0034
vn -0.4964 0.5035 -0.7071
vn -0.0000 0.0034 -1.0000
vn -0.4964 -0.7071 -0.5035
vn 0.0040 -1.0000 0.0000
vn -0.7071 -0.5042 -0.4958
vn -0.0040 1.0000 0.0000
vn 0.7071 0.5042 -0.4958
vn 1.0000 0.0034 0.0000
vn 0.5036 -0.7071 -0.4964
vn 0.0000 -1.0000 0.0036
vn 0.4965 -0.5036 -0.7071
vn 0.0000 1.0000 -0.0034
vn 0.4964 0.5035 0.7071
vn 1.0000 0.0000 -0.0001
vn -0.0000 0.0001 1.0000
vn -1.0000 0.0001 0.0000
vn 0.0000 -1.0000 0.0001
vn 1.0000 0.0001 -0.0001
vn 0.0000 -1.0000 -0.0002
vn -0.0001 0.0000 -1.0000
vn 0.0001 -0.0001 1.0000
vn -0.0001 1.0000 -0.0000
vn 0.0001 1.0000 -0.0001
vn -0.4964 -0.5036 0.7071
vn 0.0001 -1.0000 -0.0034
vn 0.4964 -0.5036 -0.7071
vn -0.0001 -1.0000 0.0034
vn -1.0000 -0.0000 -0.0034
vn 1.0000 -0.0000 0.0034
vn -0.9419 0.3309 -0.0581
vn -0.0014 0.0518 -0.9987
vn 0.9419 -0.3308 -0.0582
vn 0.0013 -0.0518 -0.9987
vn 0.9419 0.3309 0.0580
vn 0.0014 0.0518 0.9987
vn -0.9419 -0.3308 0.0581
vn -0.0014 -0.0518 0.9987
vn 0.0040 0.0000 1.0000
vn -1.0000 0.0001 0.0034
vn -0.0040 0.0000 -1.0000
vn 1.0000 0.0001 -0.0034
vn -0.4964 0.5036 -0.7071
vn 0.4964 0.5036 0.7071
vn -0.9987 -0.0518 -0.0013
vn -0.0582 -0.3308 -0.9419
vn 0.9987 0.0518 -0.0014
vn 0.0581 0.3309 -0.9419
vn 0.9987 -0.0518 0.0013
vn 0.0581 -0.3309 0.9419
vn -0.9987 0.0518 0.0014
vn -0.0580 0.3309 0.9419
usemtl Counter
s off
f 17/1/1 2/2/1 15/3/1
f 23/4/2 14/5/2 21/6/2
f 10/7/3 16/8/3 22/9/3
f 6/10/4 8/11/4 3/12/4
f 11/13/5 20/14/5 9/15/5
f 1/16/6 2/17/1 3/18/7
f 4/19/1 5/20/8 6/21/9
f 7/22/6 8/23/10 9/24/11
f 10/25/12 11/13/13 12/26/4
f 13/27/14 14/28/15 15/29/16
f 16/30/8 17/1/1 18/31/17
f 19/32/18 20/14/13 21/33/2
f 22/34/3 23/4/19 24/35/13
f 1/16/20 8/23/21 7/22/22
f 4/36/23 3/12/24 2/37/1
f 10/38/25 6/10/26 5/39/3
f 9/15/27 12/40/28 11/13/5
f 7/41/29 20/14/30 19/32/22
f 22/42/31 11/13/32 10/25/3
f 21/6/33 24/43/34 23/4/2
f 19/44/35 14/5/36 13/27/22
f 16/8/37 23/4/38 22/9/3
f 15/3/39 18/45/40 17/1/41
f 13/27/42 2/17/43 1/16/22
f 5/20/44 17/1/45 16/30/3
f 19/44/22 1/16/22 7/22/22
f 17/1/1 4/19/1 2/2/1
f 23/4/2 18/45/2 14/5/2
f 10/7/3 5/46/3 16/8/3
f 6/10/4 12/40/4 8/11/4
f 11/13/5 24/43/5 20/14/5
f 1/16/46 3/18/4 8/23/47
f 4/36/48 6/10/4 3/12/49
f 10/38/50 12/40/9 6/10/51
f 9/15/52 8/11/4 12/40/53
f 7/41/54 9/15/5 20/14/55
f 22/42/56 24/43/11 11/13/57
f 21/6/58 20/14/13 24/43/59
f 19/44/60 21/6/2 14/5/61
f 16/8/62 18/45/2 23/4/63
f 15/3/64 14/5/2 18/45/65
f 13/27/66 15/29/1 2/17/67
f 5/20/68 4/19/16 17/1/69
f 19/44/22 13/27/22 1/16/22
usemtl Counter_top
f 25/47/4 40/48/4 28/49/4
f 32/50/1 38/51/1 27/52/1
f 41/53/3 47/54/3 44/55/3
f 33/56/22 30/57/22 36/58/22
f 29/59/5 43/60/5 34/61/5
f 35/62/2 46/63/2 31/64/2
f 25/47/4 26/65/6 27/52/70
f 28/49/71 29/59/72 30/57/73
f 31/64/17 32/50/74 33/56/75
f 34/61/13 35/62/76 36/58/18
f 37/66/77 38/51/70 39/67/8
f 40/48/10 41/53/78 42/68/11
f 43/60/13 44/55/3 45/69/76
f 46/63/76 47/54/79 48/70/16
f 28/49/47 26/65/46 25/47/4
f 34/61/80 30/57/81 29/59/11
f 31/64/61 36/58/60 35/62/2
f 27/52/82 33/56/83 32/50/16
f 41/53/25 37/66/26 39/67/3
f 44/55/31 42/68/84 41/53/3
f 47/54/37 45/69/38 44/55/3
f 39/67/44 48/70/85 47/54/3
f 43/60/86 35/62/87 34/61/5
f 32/50/88 46/63/89 48/70/70
f 38/51/90 25/47/91 27/52/70
f 29/59/92 40/48/93 42/68/5
f 25/47/4 37/66/4 40/48/4
f 32/50/1 48/70/1 38/51/1
f 41/53/3 39/67/3 47/54/3
f 33/56/22 26/65/22 30/57/22
f 29/59/5 42/68/5 43/60/5
f 35/62/2 45/69/2 46/63/2
f 28/49/94 30/57/22 26/65/20
f 34/61/95 36/58/14 30/57/29
f 31/64/96 33/56/22 36/58/35
f 27/52/97 26/65/6 33/56/42
f 41/53/50 40/48/4 37/66/51
f 44/55/56 43/60/5 42/68/98
f 47/54/62 46/63/2 45/69/63
f 39/67/68 38/51/1 48/70/99
f 43/60/100 45/69/76 35/62/101
f 32/50/102 31/64/2 46/63/103
f 38/51/104 37/66/4 25/47/105
f 29/59/106 28/49/10 40/48/107
