# Blender v3.5.1 OBJ File: 'omaigat.blend'
# www.blender.org
mtllib rak_bawah.mtl
o Hang_shelf_Cube.072
v 11.459276 2.993814 -3.242123
v 11.459276 2.985442 -3.242934
v 11.469276 2.993814 -3.242934
v 11.341405 2.993814 -3.242123
v 11.331405 2.993814 -3.242934
v 11.341405 2.985442 -3.242934
v 11.459276 2.993814 -3.404493
v 11.469276 2.993814 -3.403681
v 11.459276 2.985442 -3.403681
v 11.331405 2.993814 -3.403681
v 11.341405 2.993814 -3.404493
v 11.341405 2.985442 -3.403681
v 11.459276 3.395557 -3.242123
v 11.469276 3.395557 -3.242934
v 11.459276 3.403929 -3.242934
v 11.341405 3.395557 -3.242123
v 11.341405 3.403929 -3.242934
v 11.331405 3.395557 -3.242934
v 11.331405 3.395557 -3.403681
v 11.341405 3.403929 -3.403681
v 11.341405 3.395557 -3.404493
v 11.459276 3.395557 -3.404493
v 11.459276 3.403929 -3.403681
v 11.469276 3.395557 -3.403681
v 11.412086 3.199118 -3.251583
v 11.419181 3.193065 -3.252395
v 11.418215 3.205870 -3.252395
v 11.356955 3.136427 -3.251583
v 11.351041 3.129486 -3.252395
v 11.363865 3.130164 -3.252395
v 11.412086 3.199118 -3.389947
v 11.418215 3.205870 -3.389135
v 11.419181 3.193065 -3.389135
v 11.351041 3.129486 -3.389135
v 11.356955 3.136427 -3.389947
v 11.363865 3.130164 -3.389135
v 11.111835 3.463162 -3.251583
v 11.117749 3.470104 -3.252395
v 11.104925 3.469425 -3.252395
v 11.056704 3.400471 -3.251583
v 11.049609 3.406524 -3.252395
v 11.050575 3.393719 -3.252395
v 11.050575 3.393719 -3.389135
v 11.049609 3.406524 -3.389135
v 11.056704 3.400471 -3.389947
v 11.111835 3.463162 -3.389947
v 11.104925 3.469425 -3.389135
v 11.117749 3.470104 -3.389135
v 11.459276 2.993814 -1.551018
v 11.469276 2.993814 -1.550207
v 11.459276 2.985442 -1.550207
v 11.341405 2.993814 -1.551018
v 11.341405 2.985442 -1.550207
v 11.331405 2.993814 -1.550207
v 11.459276 2.993814 -1.388648
v 11.459276 2.985442 -1.389460
v 11.469276 2.993814 -1.389460
v 11.331405 2.993814 -1.389460
v 11.341405 2.985442 -1.389460
v 11.341405 2.993814 -1.388648
v 11.459276 3.395557 -1.551018
v 11.459276 3.403929 -1.550207
v 11.469276 3.395557 -1.550207
v 11.341405 3.395557 -1.551018
v 11.331405 3.395557 -1.550207
v 11.341405 3.403929 -1.550207
v 11.331405 3.395557 -1.389460
v 11.341405 3.395557 -1.388648
v 11.341405 3.403929 -1.389460
v 11.459276 3.395557 -1.388648
v 11.469276 3.395557 -1.389460
v 11.459276 3.403929 -1.389460
v 11.412086 3.199118 -1.537438
v 11.418215 3.205870 -1.536626
v 11.419181 3.193065 -1.536626
v 11.356955 3.136427 -1.537438
v 11.363865 3.130164 -1.536626
v 11.351041 3.129486 -1.536626
v 11.412086 3.199118 -1.397861
v 11.419181 3.193065 -1.398672
v 11.418215 3.205870 -1.398672
v 11.351041 3.129486 -1.398672
v 11.363865 3.130164 -1.398672
v 11.356955 3.136427 -1.397861
v 11.111835 3.463162 -1.537438
v 11.104925 3.469425 -1.536626
v 11.117749 3.470104 -1.536626
v 11.056705 3.400471 -1.537438
v 11.050575 3.393718 -1.536626
v 11.049609 3.406524 -1.536626
v 11.050575 3.393718 -1.398672
v 11.056705 3.400471 -1.397861
v 11.049609 3.406524 -1.398672
v 11.111835 3.463162 -1.397861
v 11.117749 3.470104 -1.398672
v 11.104925 3.469425 -1.398672
v 11.459276 3.401883 -1.380347
v 11.459276 3.393511 -1.381158
v 11.469276 3.401883 -1.381158
v 10.811362 3.401883 -1.380347
v 10.801362 3.401883 -1.381158
v 10.811362 3.393511 -1.381158
v 11.459276 3.401883 -3.412795
v 11.469276 3.401883 -3.411983
v 11.459276 3.393511 -3.411983
v 10.801362 3.401883 -3.411983
v 10.811362 3.401883 -3.412795
v 10.811362 3.393511 -3.411983
v 11.459276 3.533319 -1.380347
v 11.469276 3.533319 -1.381158
v 11.459276 3.541691 -1.381158
v 10.811362 3.533319 -1.380347
v 10.811362 3.541691 -1.381158
v 10.801362 3.533319 -1.381158
v 10.801362 3.533319 -3.411983
v 10.811362 3.541691 -3.411983
v 10.811362 3.533319 -3.412795
v 11.459276 3.533319 -3.412795
v 11.459276 3.541691 -3.411983
v 11.469276 3.533319 -3.411983
vt 0.626250 0.750000
vt 0.873750 0.750000
vt 0.873750 0.750000
vt 0.875000 0.727591
vt 0.875000 0.522409
vt 0.875000 0.522409
vt 0.873750 0.518133
vt 0.626250 0.731867
vt 0.626250 0.518133
vt 0.626250 0.731867
vt 0.873750 0.518133
vt 0.626250 0.518133
vt 0.873750 0.500000
vt 0.626250 0.500000
vt 0.626250 0.500000
vt 0.625000 0.518133
vt 0.625000 0.731867
vt 0.625000 0.731867
vt 0.626467 0.750000
vt 0.873533 0.750000
vt 0.873533 0.750000
vt 0.875000 0.518133
vt 0.875000 0.731867
vt 0.875000 0.518133
vt 0.873533 0.522065
vt 0.626467 0.727935
vt 0.626467 0.522065
vt 0.626467 0.727935
vt 0.873533 0.522065
vt 0.626467 0.522065
vt 0.873533 0.500000
vt 0.626467 0.500000
vt 0.626467 0.500000
vt 0.625000 0.522409
vt 0.625000 0.727591
vt 0.625000 0.727591
vt 0.873750 0.750000
vt 0.626250 0.750000
vt 0.873750 0.750000
vt 0.875000 0.522409
vt 0.875000 0.727591
vt 0.875000 0.522409
vt 0.626250 0.518133
vt 0.873750 0.731867
vt 0.873750 0.518133
vt 0.626250 0.518133
vt 0.873750 0.731867
vt 0.626250 0.731867
vt 0.626250 0.500000
vt 0.873750 0.500000
vt 0.626250 0.500000
vt 0.625000 0.731867
vt 0.625000 0.518133
vt 0.625000 0.731867
vt 0.873546 0.750000
vt 0.626454 0.750000
vt 0.873546 0.750000
vt 0.875000 0.746257
vt 0.875000 0.503743
vt 0.875000 0.503743
vt 0.626454 0.727935
vt 0.873546 0.522065
vt 0.626454 0.522065
vt 0.873546 0.522065
vt 0.626454 0.727935
vt 0.626454 0.522065
vt 0.626454 0.500000
vt 0.873546 0.500000
vt 0.626454 0.500000
vt 0.625000 0.727591
vt 0.625000 0.522409
vt 0.625000 0.727591
vt 0.625100 0.750000
vt 0.874900 0.750000
vt 0.874900 0.750000
vt 0.874900 0.503743
vt 0.625100 0.746257
vt 0.625100 0.503743
vt 0.625100 0.503743
vt 0.874900 0.746257
vt 0.874900 0.503743
vt 0.874900 0.500000
vt 0.625100 0.500000
vt 0.625100 0.500000
vt 0.625000 0.503743
vt 0.625000 0.746257
vt 0.625000 0.746257
vt 0.875000 0.731867
vt 0.873750 0.731867
vt 0.875000 0.518133
vt 0.875000 0.731867
vt 0.873750 0.731867
vt 0.875000 0.518133
vt 0.873750 0.500000
vt 0.625000 0.518133
vt 0.626250 0.750000
vt 0.873533 0.727935
vt 0.875000 0.727591
vt 0.873533 0.727935
vt 0.873533 0.500000
vt 0.625000 0.522409
vt 0.626467 0.750000
vt 0.873750 0.518133
vt 0.875000 0.731867
vt 0.873750 0.500000
vt 0.625000 0.518133
vt 0.626250 0.750000
vt 0.626250 0.731867
vt 0.873546 0.727935
vt 0.875000 0.727591
vt 0.873546 0.727935
vt 0.873546 0.500000
vt 0.625000 0.522409
vt 0.626454 0.750000
vt 0.625100 0.746257
vt 0.875000 0.746257
vt 0.874900 0.746257
vt 0.874900 0.500000
vt 0.625000 0.503743
vt 0.625100 0.750000
vn 1.0000 0.0000 0.0000
vn 0.0000 0.0000 1.0000
vn 0.0000 1.0000 0.0000
vn 0.0000 -1.0000 0.0000
vn -1.0000 0.0000 0.0000
vn 0.0000 0.0000 -1.0000
vn 0.6604 0.7509 0.0000
vn -0.7509 0.6604 0.0000
vn 0.7509 -0.6604 0.0000
vn -0.6604 -0.7509 0.0000
vn -0.5267 0.5169 0.6748
vn -0.2993 -0.7939 0.5293
vn 0.8130 0.2236 0.5376
vn 0.5267 0.5169 0.6749
vn -0.8130 0.2235 0.5376
vn 0.2993 -0.7939 0.5293
vn -0.5267 0.5169 -0.6749
vn 0.8130 0.2235 -0.5376
vn -0.2993 -0.7939 -0.5292
vn -0.8130 0.2235 -0.5376
vn 0.5267 0.5169 -0.6749
vn 0.2993 -0.7939 -0.5292
vn -0.5267 -0.5169 0.6748
vn 0.8130 -0.2236 0.5376
vn -0.2993 0.7939 0.5293
vn 0.5267 -0.5168 0.6749
vn 0.2993 0.7939 0.5293
vn -0.8130 -0.2235 0.5376
vn -0.8130 -0.2235 -0.5376
vn 0.2993 0.7939 -0.5292
vn 0.5267 -0.5169 -0.6749
vn -0.5267 -0.5169 -0.6749
vn -0.2993 0.7939 -0.5292
vn 0.8130 -0.2235 -0.5376
vn -0.7588 -0.0475 0.6496
vn 0.4811 -0.6477 0.5908
vn 0.3864 0.7091 0.5898
vn -0.0462 0.7018 0.7108
vn -0.7976 -0.3829 0.4661
vn 0.8362 -0.2868 0.4674
vn -0.7588 -0.0475 -0.6496
vn 0.3864 0.7091 -0.5898
vn 0.4811 -0.6477 -0.5908
vn -0.7976 -0.3829 -0.4662
vn -0.0462 0.7018 -0.7109
vn 0.8363 -0.2868 -0.4673
vn 0.0462 -0.7018 0.7109
vn 0.7976 0.3829 0.4661
vn -0.8363 0.2868 0.4674
vn 0.7588 0.0475 0.6496
vn -0.4811 0.6477 0.5908
vn -0.3864 -0.7091 0.5898
vn -0.3864 -0.7091 -0.5898
vn -0.4811 0.6477 -0.5908
vn 0.7587 0.0475 -0.6497
vn 0.0462 -0.7018 -0.7109
vn -0.8363 0.2868 -0.4673
vn 0.7976 0.3829 -0.4661
vn -0.5267 0.5169 -0.6748
vn -0.2994 -0.7939 -0.5293
vn 0.2994 -0.7939 -0.5292
vn -0.2994 -0.7939 0.5293
vn 0.2994 -0.7939 0.5293
vn 0.5267 0.5169 0.6748
vn -0.5267 -0.5169 -0.6748
vn -0.2994 0.7939 -0.5293
vn 0.2994 0.7939 -0.5292
vn 0.5268 -0.5168 0.6748
vn 0.2994 0.7939 0.5293
vn -0.2994 0.7939 0.5293
vn -0.0462 0.7018 -0.7108
vn -0.7976 -0.3829 -0.4661
vn 0.8363 -0.2868 0.4673
vn -0.0462 0.7018 0.7109
vn 0.7588 0.0475 -0.6496
vn -0.3864 -0.7091 -0.5899
vn -0.3864 -0.7091 0.5899
vn -0.8363 0.2868 0.4673
vn -0.5268 0.5168 0.6748
vn 0.5268 0.5168 0.6748
vn -0.8130 0.2236 0.5376
vn -0.5268 0.5168 -0.6748
vn 0.8130 0.2236 -0.5376
vn -0.8130 0.2236 -0.5376
vn 0.5267 0.5169 -0.6748
vn 0.2993 -0.7939 -0.5293
vn -0.8130 -0.2236 0.5376
vn -0.8130 -0.2236 -0.5376
vn 0.2993 0.7939 -0.5293
vn -0.5268 -0.5168 -0.6748
vn 0.8130 -0.2236 -0.5376
vn -0.3389 0.5495 0.7637
vn -0.0336 -0.7712 0.6357
vn -0.0000 0.6356 0.7720
vn -0.9306 -0.1430 -0.3369
vn 0.0874 -0.9954 -0.0382
vn -0.9961 -0.0882 -0.0000
vn 0.3389 0.5495 -0.7637
vn 0.0336 -0.7713 -0.6356
vn 0.0000 0.6356 -0.7721
vn 0.9306 -0.1430 0.3369
vn -0.0874 -0.9954 0.0382
vn 0.9961 -0.0882 0.0000
vn -0.3389 0.6859 0.6439
vn -0.0336 -0.6348 0.7720
vn -0.0000 0.7720 0.6356
vn 0.0228 0.9413 -0.3369
vn -0.9953 0.0890 -0.0382
vn 0.0883 0.9961 -0.0000
vn 0.3389 0.6860 -0.6439
vn 0.0336 -0.6348 -0.7720
vn 0.0000 0.7721 -0.6356
vn -0.0228 0.9413 0.3369
vn 0.9953 0.0890 0.0382
vn -0.0883 0.9961 0.0000
vn -0.6705 0.3484 -0.6550
vn 0.6474 0.0118 -0.7620
vn -0.7620 0.0000 -0.6475
vn 0.6705 -0.3484 -0.6550
vn -0.6474 -0.0118 -0.7620
vn 0.7620 -0.0000 -0.6475
vn 0.6705 0.3484 0.6550
vn -0.6474 0.0118 0.7620
vn 0.7620 0.0000 0.6475
vn -0.6705 -0.3484 0.6550
vn 0.6474 -0.0118 0.7620
vn -0.7620 -0.0000 0.6475
vn -0.5339 0.3595 0.7653
vn 0.3329 -0.6844 0.6487
vn 0.5950 -0.4819 0.6432
vn -0.6402 -0.6772 -0.3626
vn 0.7977 -0.6012 -0.0478
vn -0.7313 -0.6821 -0.0000
vn -0.2350 0.6060 -0.7600
vn 0.6249 -0.4420 -0.6436
vn -0.5019 0.4023 -0.7657
vn 0.7216 0.6221 0.3037
vn 0.8123 -0.5819 0.0401
vn 0.7159 0.6982 0.0000
vn -0.7395 0.1683 0.6518
vn 0.4679 -0.4414 0.7657
vn -0.5929 0.4846 0.6432
vn -0.8067 0.5069 -0.3037
vn -0.7159 -0.6971 -0.0401
vn -0.8125 0.5830 -0.0000
vn -0.3329 0.6844 -0.6487
vn 0.5339 -0.3595 -0.7653
vn -0.5951 0.4819 -0.6432
vn -0.7084 0.6059 0.3620
vn 0.7298 0.6820 0.0482
vn -0.7992 0.6011 0.0000
vn -0.5346 -0.5499 -0.6417
vn 0.1350 0.6354 -0.7603
vn 0.4452 0.4622 -0.7669
vn 0.7191 0.2420 -0.6514
vn -0.4374 -0.4694 -0.7670
vn 0.5268 0.5574 -0.6417
vn 0.2241 0.7279 0.6481
vn -0.4535 -0.4541 0.7669
vn 0.5296 0.5548 0.6417
vn -0.5218 -0.5621 0.6417
vn 0.6382 0.1409 0.7568
vn 0.4456 0.4617 0.7670
vn -0.3389 -0.6860 -0.6439
vn -0.0336 0.6348 -0.7720
vn -0.0000 -0.7720 -0.6356
vn 0.0227 -0.9413 0.3369
vn -0.9953 -0.0889 0.0382
vn 0.0882 -0.9961 0.0000
vn 0.3389 -0.6859 0.6439
vn 0.0336 0.6348 0.7720
vn 0.0000 -0.7720 0.6356
vn -0.0227 -0.9413 -0.3369
vn 0.9953 -0.0889 -0.0382
vn -0.0882 -0.9961 -0.0000
vn -0.3389 -0.5495 -0.7637
vn -0.0336 0.7713 -0.6356
vn -0.0000 -0.6356 -0.7720
vn -0.9306 0.1432 0.3369
vn 0.0875 0.9954 0.0382
vn -0.9961 0.0884 0.0000
vn 0.3389 -0.5495 0.7637
vn 0.0336 0.7712 0.6356
vn 0.0000 -0.6356 0.7720
vn 0.9306 0.1431 -0.3369
vn -0.0875 0.9954 -0.0382
vn 0.9961 0.0883 -0.0000
vn 0.5561 0.3484 0.7546
vn -0.7619 0.0118 0.6476
vn 0.6476 0.0000 0.7620
vn -0.5561 -0.3484 0.7546
vn 0.7619 -0.0118 0.6476
vn -0.6476 -0.0000 0.7620
vn -0.5561 0.3484 -0.7546
vn 0.7619 0.0118 -0.6476
vn -0.6476 0.0000 -0.7620
vn 0.5561 -0.3484 -0.7546
vn -0.7619 -0.0118 -0.6476
vn 0.6476 -0.0000 -0.7620
vn 0.3329 -0.6844 -0.6487
vn -0.5339 0.3595 -0.7653
vn 0.5951 -0.4819 -0.6432
vn 0.7082 -0.6059 0.3624
vn -0.7299 -0.6820 0.0470
vn 0.7992 -0.6011 0.0000
vn 0.6249 -0.4420 0.6435
vn -0.2350 0.6060 0.7600
vn -0.5018 0.4023 0.7657
vn 0.8067 -0.5069 -0.3038
vn 0.7159 0.6971 -0.0398
vn 0.8125 -0.5830 -0.0000
vn 0.2350 -0.6060 -0.7600
vn -0.6249 0.4420 -0.6435
vn 0.5018 -0.4023 -0.7657
vn -0.7215 -0.6221 0.3038
vn -0.8124 0.5818 0.0398
vn -0.7158 -0.6983 0.0000
vn 0.6487 -0.0804 0.7568
vn -0.5611 0.5211 0.6431
vn 0.5020 -0.4021 0.7657
vn 0.6405 0.6773 -0.3620
vn -0.7977 0.6012 -0.0477
vn 0.7313 0.6821 -0.0000
vn 0.4374 0.4694 0.7670
vn -0.7191 -0.2420 0.6515
vn -0.5268 -0.5574 0.6417
vn -0.1350 -0.6354 0.7603
vn 0.5347 0.5499 0.6417
vn -0.4452 -0.4621 0.7670
vn -0.6382 -0.1409 -0.7568
vn 0.5218 0.5621 -0.6417
vn -0.4457 -0.4617 -0.7670
vn 0.4535 0.4541 -0.7669
vn -0.2240 -0.7279 -0.6481
vn -0.5296 -0.5548 -0.6417
vn 0.7071 -0.0774 0.7029
vn -0.0062 -0.7720 0.6356
vn -0.4504 -0.5451 0.7071
vn 0.0883 -0.9961 -0.0031
vn -0.9961 -0.0883 -0.0000
vn -0.7071 -0.0774 -0.7029
vn 0.0062 -0.7720 -0.6356
vn 0.0000 0.6356 -0.7720
vn 0.4504 -0.5451 -0.7071
vn -0.0883 -0.9961 0.0031
vn 0.9961 -0.0883 0.0000
vn 0.7070 0.0591 0.7047
vn -0.0064 -0.6356 0.7720
vn -0.4574 0.5393 0.7071
vn -0.9961 0.0883 -0.0031
vn -0.7070 0.0591 -0.7047
vn 0.0058 -0.6356 -0.7720
vn 0.0000 0.7720 -0.6356
vn 0.4574 0.5393 -0.7071
vn 0.9961 0.0883 0.0031
vn -0.6763 0.3378 -0.6546
vn 0.6467 0.0359 -0.7619
vn -0.7620 0.0000 -0.6476
vn 0.6763 -0.3378 -0.6546
vn -0.6467 -0.0359 -0.7619
vn 0.7619 -0.0000 -0.6476
vn 0.6763 0.3378 0.6546
vn -0.6467 0.0359 0.7619
vn 0.7620 0.0000 0.6476
vn -0.6763 -0.3378 0.6546
vn 0.6467 -0.0359 0.7619
vn -0.7620 -0.0000 0.6476
vn -0.9953 -0.0890 0.0382
vn 0.0883 -0.9961 0.0000
vn 0.0228 -0.9413 0.3369
vn 0.9953 -0.0890 -0.0382
vn -0.0883 -0.9961 -0.0000
vn -0.0228 -0.9413 -0.3369
vn 0.0874 0.9954 0.0382
vn -0.9961 0.0883 0.0000
vn -0.9306 0.1431 0.3369
vn -0.0000 -0.6356 -0.7721
vn -0.0874 0.9954 -0.0382
vn 0.9961 0.0882 -0.0000
vn 0.9306 0.1430 -0.3369
vn 0.7618 -0.0118 0.6477
vn -0.6476 -0.0000 0.7619
vn -0.5561 -0.3484 0.7545
vn -0.7618 0.0118 0.6477
vn 0.6476 0.0000 0.7619
vn 0.5561 0.3484 0.7545
vn -0.2349 0.6060 0.7600
vn -0.7298 -0.6820 0.0475
vn 0.7991 -0.6011 0.0000
vn 0.7083 -0.6059 0.3622
vn -0.5338 0.3595 -0.7654
vn 0.7158 0.6972 -0.0401
vn 0.8125 -0.5829 -0.0000
vn 0.8068 -0.5068 -0.3037
vn -0.5611 0.5211 0.6432
vn -0.8124 0.5818 0.0401
vn -0.7215 -0.6222 0.3037
vn -0.7977 0.6012 -0.0481
vn 0.6406 0.6773 -0.3618
vn -0.2241 -0.7279 -0.6481
vn -0.4457 -0.4617 -0.7669
vn -0.6383 -0.1409 -0.7568
vn 0.5347 0.5498 0.6417
vn -0.4452 -0.4622 0.7670
vn 0.4375 0.4694 0.7670
vn 0.0875 -0.9954 -0.0382
vn -0.9306 -0.1431 -0.3369
vn -0.0875 -0.9954 0.0382
vn 0.9306 -0.1431 0.3369
vn -0.9953 0.0889 -0.0382
vn 0.0882 0.9961 -0.0000
vn -0.3389 0.6860 0.6439
vn 0.9953 0.0889 0.0382
vn -0.0882 0.9961 0.0000
vn 0.6475 -0.0118 0.7620
vn -0.6475 0.0118 0.7620
vn -0.6475 -0.0118 -0.7620
vn 0.7620 -0.0000 -0.6476
vn 0.6475 0.0118 -0.7620
vn 0.6249 -0.4420 -0.6435
vn -0.5018 0.4023 -0.7657
vn 0.7977 -0.6012 -0.0474
vn -0.6400 -0.6772 -0.3629
vn 0.5951 -0.4819 0.6432
vn 0.8124 -0.5818 0.0398
vn 0.7158 0.6983 0.0000
vn 0.7215 0.6221 0.3038
vn -0.7159 -0.6971 -0.0398
vn -0.8067 0.5069 -0.3038
vn 0.4678 -0.4413 0.7657
vn 0.7298 0.6820 0.0478
vn -0.7083 0.6059 0.3621
vn 0.4457 0.4617 0.7670
vn -0.5218 -0.5621 0.6416
vn 0.7191 0.2420 -0.6515
vn 0.4452 0.4621 -0.7670
vn -0.5347 -0.5499 -0.6417
vn 0.0062 0.6356 0.7720
vn -0.7070 -0.0591 0.7047
vn -0.9961 -0.0883 0.0031
vn -0.4574 -0.5393 -0.7071
vn -0.0062 0.6356 -0.7720
vn 0.7070 -0.0591 -0.7047
vn 0.9961 -0.0883 -0.0031
vn 0.4574 -0.5393 0.7071
vn 0.0062 0.7720 0.6356
vn -0.7071 0.0774 0.7029
vn 0.0883 0.9961 0.0031
vn -0.4504 0.5451 -0.7071
vn -0.0062 0.7720 -0.6356
vn 0.7071 0.0774 -0.7029
vn -0.0883 0.9961 -0.0031
vn 0.4504 0.5451 0.7071
vn -0.7611 -0.0359 -0.6477
vn 0.5619 -0.3379 -0.7550
vn 0.7611 0.0359 -0.6477
vn -0.5619 0.3379 -0.7550
vn 0.7611 -0.0359 0.6477
vn -0.5619 -0.3379 0.7550
vn -0.7611 0.0359 0.6477
vn 0.5619 0.3379 0.7550
usemtl Counter_top
s off
f 8/1/1 14/2/1 3/3/1
f 25/4/2 40/5/2 28/6/2
f 17/7/3 23/8/3 20/9/3
f 9/10/4 6/11/4 12/12/4
f 5/13/5 19/14/5 10/15/5
f 11/16/6 22/17/6 7/18/6
f 32/19/7 38/20/7 27/21/7
f 64/22/6 49/23/6 52/24/6
f 41/25/8 47/26/8 44/27/8
f 33/28/9 30/29/9 36/30/9
f 29/31/10 43/32/10 34/33/10
f 35/34/6 46/35/6 31/36/6
f 63/37/1 57/38/1 50/39/1
f 88/40/6 73/41/6 76/42/6
f 69/43/3 62/44/3 66/45/3
f 59/46/4 51/47/4 56/48/4
f 67/49/5 54/50/5 58/51/5
f 70/52/2 60/53/2 55/54/2
f 87/55/7 81/56/7 74/57/7
f 97/58/2 112/59/2 100/60/2
f 96/61/8 90/62/8 93/63/8
f 77/64/9 80/65/9 83/66/9
f 91/67/10 78/68/10 82/69/10
f 94/70/2 84/71/2 79/72/2
f 104/73/1 110/74/1 99/75/1
f 113/76/3 119/77/3 116/78/3
f 108/79/4 98/80/4 102/81/4
f 101/82/5 115/83/5 106/84/5
f 107/85/6 118/86/6 103/87/6
f 1/88/11 2/89/12 3/3/13
f 4/90/14 5/13/15 6/11/16
f 7/18/17 8/1/18 9/10/19
f 10/15/20 11/16/21 12/12/22
f 13/91/23 14/2/24 15/92/25
f 16/93/26 17/7/27 18/94/28
f 19/14/29 20/9/30 21/95/31
f 22/17/32 23/8/33 24/96/34
f 25/4/35 26/97/36 27/21/37
f 28/6/38 29/31/39 30/29/40
f 31/36/41 32/19/42 33/28/43
f 34/33/44 35/34/45 36/30/46
f 37/98/47 38/20/48 39/99/49
f 40/5/50 41/25/51 42/100/52
f 43/32/53 44/27/54 45/101/55
f 46/35/56 47/26/57 48/102/58
f 49/23/59 50/39/18 51/47/60
f 52/24/21 53/103/61 54/50/20
f 55/54/11 56/48/62 57/38/13
f 58/51/15 59/46/63 60/53/64
f 61/104/65 62/44/66 63/37/34
f 64/22/31 65/105/29 66/45/67
f 67/49/28 68/106/68 69/43/69
f 70/52/23 71/107/24 72/108/70
f 73/41/41 74/57/42 75/109/43
f 76/42/71 77/64/46 78/68/72
f 79/72/35 80/65/36 81/56/37
f 82/69/39 83/66/73 84/71/74
f 85/110/56 86/111/57 87/55/58
f 88/40/75 89/112/76 90/62/54
f 91/67/77 92/113/50 93/63/51
f 94/70/47 95/114/48 96/61/78
f 97/58/79 98/80/62 99/75/13
f 100/60/80 101/82/81 102/81/63
f 103/87/82 104/73/83 105/115/60
f 106/84/84 107/85/85 108/79/86
f 109/116/23 110/74/24 111/117/70
f 112/59/68 113/76/69 114/118/87
f 115/83/88 116/78/89 117/119/31
f 118/86/90 119/77/66 120/120/91
f 4/90/92 2/89/93 1/88/94
f 10/15/95 6/11/96 5/13/97
f 7/18/98 12/12/99 11/16/100
f 3/3/101 9/10/102 8/1/103
f 17/7/104 13/91/105 15/92/106
f 20/9/107 18/94/108 17/7/109
f 23/8/110 21/95/111 20/9/112
f 15/92/113 24/96/114 23/8/115
f 19/14/116 11/16/117 10/15/118
f 8/1/119 22/17/120 24/96/121
f 14/2/122 1/88/123 3/3/124
f 5/13/125 16/93/126 18/94/127
f 25/4/128 30/29/129 26/97/130
f 34/33/131 30/29/132 29/31/133
f 31/36/134 36/30/135 35/34/136
f 27/21/137 33/28/138 32/19/139
f 41/25/140 37/98/141 39/99/142
f 44/27/143 42/100/144 41/25/145
f 47/26/146 45/101/147 44/27/148
f 39/99/149 48/102/150 47/26/151
f 34/33/152 45/101/153 35/34/154
f 32/19/155 46/35/156 48/102/157
f 38/20/158 25/4/159 27/21/160
f 42/100/161 28/6/162 40/5/163
f 53/103/164 49/23/165 51/47/166
f 59/46/167 54/50/168 53/103/169
f 56/48/170 60/53/171 59/46/172
f 51/47/173 57/38/174 56/48/175
f 64/22/176 62/44/177 61/104/178
f 67/49/179 66/45/180 65/105/181
f 70/52/182 69/43/183 68/106/184
f 63/37/185 72/108/186 71/107/187
f 68/106/188 58/51/189 60/53/190
f 55/54/191 71/107/192 70/52/193
f 61/104/194 50/39/195 49/23/196
f 52/24/197 65/105/198 64/22/199
f 77/64/200 73/41/201 75/109/202
f 83/66/203 78/68/204 77/64/205
f 83/66/206 79/72/207 84/71/208
f 75/109/209 81/56/210 80/65/211
f 88/40/212 86/111/213 85/110/214
f 91/67/215 90/62/216 89/112/217
f 94/70/218 93/63/219 92/113/220
f 87/55/221 96/61/222 95/114/223
f 84/71/224 91/67/225 82/69/226
f 79/72/227 95/114/228 94/70/229
f 85/110/230 74/57/231 73/41/232
f 88/40/233 78/68/234 89/112/235
f 100/60/236 98/80/237 97/58/94
f 106/84/238 102/81/239 101/82/240
f 103/87/241 108/79/242 107/85/243
f 99/75/244 105/115/245 104/73/246
f 113/76/247 109/116/248 111/117/106
f 116/78/249 114/118/250 113/76/109
f 119/77/251 117/119/252 116/78/253
f 111/117/254 120/120/255 119/77/115
f 115/83/256 107/85/257 106/84/258
f 104/73/259 118/86/260 120/120/261
f 110/74/262 97/58/263 99/75/264
f 101/82/265 112/59/266 114/118/267
f 1/88/2 16/93/2 4/90/2
f 8/1/1 24/96/1 14/2/1
f 25/4/2 37/98/2 40/5/2
f 17/7/3 15/92/3 23/8/3
f 9/10/4 2/89/4 6/11/4
f 5/13/5 18/94/5 19/14/5
f 11/16/6 21/95/6 22/17/6
f 32/19/7 48/102/7 38/20/7
f 64/22/6 61/104/6 49/23/6
f 41/25/8 39/99/8 47/26/8
f 33/28/9 26/97/9 30/29/9
f 29/31/10 42/100/10 43/32/10
f 35/34/6 45/101/6 46/35/6
f 63/37/1 71/107/1 57/38/1
f 88/40/6 85/110/6 73/41/6
f 69/43/3 72/108/3 62/44/3
f 59/46/4 53/103/4 51/47/4
f 67/49/5 65/105/5 54/50/5
f 70/52/2 68/106/2 60/53/2
f 87/55/7 95/114/7 81/56/7
f 97/58/2 109/116/2 112/59/2
f 96/61/8 86/111/8 90/62/8
f 77/64/9 75/109/9 80/65/9
f 91/67/10 89/112/10 78/68/10
f 94/70/2 92/113/2 84/71/2
f 104/73/1 120/120/1 110/74/1
f 113/76/3 111/117/3 119/77/3
f 108/79/4 105/115/4 98/80/4
f 101/82/5 114/118/5 115/83/5
f 107/85/6 117/119/6 118/86/6
f 4/90/171 6/11/172 2/89/170
f 10/15/268 12/12/269 6/11/270
f 7/18/165 9/10/166 12/12/164
f 3/3/271 2/89/272 9/10/273
f 17/7/183 16/93/184 13/91/182
f 20/9/274 19/14/275 18/94/276
f 23/8/177 22/17/277 21/95/176
f 15/92/278 14/2/279 24/96/280
f 19/14/198 21/95/199 11/16/197
f 8/1/195 7/18/196 22/17/194
f 14/2/281 13/91/282 1/88/283
f 5/13/284 4/90/285 16/93/286
f 25/4/287 28/6/208 30/29/206
f 34/33/288 36/30/289 30/29/290
f 31/36/291 33/28/202 36/30/200
f 27/21/292 26/97/293 33/28/294
f 41/25/295 40/5/220 37/98/218
f 44/27/296 43/32/217 42/100/297
f 47/26/213 46/35/214 45/101/212
f 39/99/298 38/20/223 48/102/299
f 34/33/300 43/32/235 45/101/233
f 32/19/231 31/36/301 46/35/302
f 38/20/303 37/98/304 25/4/227
f 42/100/225 29/31/226 28/6/305
f 53/103/99 52/24/243 49/23/98
f 59/46/306 58/51/240 54/50/307
f 56/48/93 55/54/94 60/53/92
f 51/47/308 50/39/246 57/38/309
f 64/22/111 66/45/253 62/44/110
f 67/49/310 69/43/311 66/45/107
f 70/52/105 72/108/106 69/43/312
f 63/37/313 62/44/314 72/108/113
f 68/106/315 67/49/267 58/51/125
f 55/54/316 57/38/264 71/107/122
f 61/104/317 63/37/318 50/39/119
f 52/24/319 54/50/258 65/105/116
f 77/64/320 76/42/321 73/41/134
f 83/66/322 82/69/133 78/68/323
f 83/66/129 80/65/324 79/72/128
f 75/109/325 74/57/326 81/56/327
f 88/40/147 90/62/148 86/111/146
f 91/67/328 93/63/145 90/62/329
f 94/70/330 96/61/142 93/63/140
f 87/55/331 86/111/151 96/61/332
f 84/71/162 92/113/333 91/67/334
f 79/72/159 81/56/160 95/114/158
f 85/110/156 87/55/157 74/57/335
f 88/40/153 76/42/336 78/68/337
f 100/60/338 102/81/172 98/80/339
f 106/84/340 108/79/269 102/81/341
f 103/87/342 105/115/166 108/79/343
f 99/75/344 98/80/272 105/115/345
f 113/76/346 112/59/184 109/116/347
f 116/78/348 115/83/275 114/118/349
f 119/77/350 118/86/178 117/119/351
f 111/117/352 110/74/187 120/120/353
f 115/83/354 117/119/199 107/85/355
f 104/73/356 103/87/196 118/86/357
f 110/74/358 109/116/193 97/58/359
f 101/82/360 100/60/190 112/59/361
f 1/88/2 13/91/2 16/93/2
