# Blender v3.5.1 OBJ File: 'omaigat.blend'
# www.blender.org
mtllib susu2.mtl
o Milk_cartoon_Cube.081
v 11.214262 2.553807 -2.931587
v 10.948419 2.553807 -2.963977
v 11.239479 2.553807 -3.138566
v 10.973637 2.553807 -3.170956
v 11.214262 2.852056 -2.931587
v 10.948419 2.852056 -2.963977
v 10.973637 2.852056 -3.170956
v 11.239479 2.852056 -3.138566
v 11.078054 2.910822 -2.920816
v 11.109843 2.910822 -3.181727
v 11.075170 3.018704 -2.897134
v 11.112729 3.018704 -3.205409
v 11.095254 3.013029 -2.903281
v 11.088931 3.027236 -2.904052
v 11.078650 3.027236 -2.896710
v 11.090129 3.008401 -2.895312
v 11.057148 3.013029 -2.907924
v 11.060807 3.007726 -2.898884
v 11.073038 3.027236 -2.897394
v 11.063471 3.027236 -2.907154
v 11.092644 3.013029 -3.199262
v 11.098967 3.027236 -3.198492
v 11.109248 3.027236 -3.205833
v 11.097769 3.008401 -3.207232
v 11.130750 3.013029 -3.194619
v 11.127090 3.007726 -3.203659
v 11.114860 3.027236 -3.205149
v 11.124427 3.027236 -3.195390
v 11.079431 3.047980 -2.896615
v 11.088931 3.047980 -2.904052
v 11.080462 3.056511 -2.905084
v 11.071939 3.056511 -2.906122
v 11.063471 3.047980 -2.907154
v 11.070908 3.047980 -2.897654
v 11.108467 3.047980 -3.205928
v 11.098967 3.047980 -3.198492
v 11.107435 3.056511 -3.197460
v 11.115958 3.056511 -3.196421
v 11.124427 3.047980 -3.195390
v 11.116990 3.047980 -3.204890
v 10.989493 2.503572 -3.220424
v 10.987244 2.495041 -3.212104
v 10.978853 2.504128 -3.213772
v 10.978853 2.901734 -3.213772
v 10.985098 2.916497 -3.212365
v 10.989183 2.910822 -3.218729
v 11.235109 2.910822 -3.188633
v 11.238296 2.916497 -3.181516
v 11.244696 2.901734 -3.181382
v 11.236150 2.495041 -3.181777
v 11.237182 2.503572 -3.190246
v 11.244696 2.504128 -3.181382
v 11.198404 2.503572 -2.882120
v 11.200654 2.495041 -2.890440
v 11.209045 2.504128 -2.888772
v 11.209045 2.901734 -2.888772
v 11.202800 2.916497 -2.890178
v 11.198714 2.910822 -2.883815
v 10.952788 2.910822 -2.913910
v 10.949602 2.916497 -2.921027
v 10.943202 2.901734 -2.921161
v 10.951748 2.495041 -2.920766
v 10.950716 2.503572 -2.912297
v 10.943202 2.504128 -2.921161
v 11.076201 2.495041 -2.905603
v 11.075229 2.503558 -2.897619
v 11.111697 2.495041 -3.196940
v 11.112670 2.503558 -3.204924
v 11.075170 3.047980 -2.897134
v 11.076201 3.056511 -2.905603
v 11.112729 3.047980 -3.205409
v 11.111697 3.056511 -3.196940
vt 0.625000 0.590821
vt 0.625000 0.625000
vt 0.625000 0.625000
vt 0.653696 0.500000
vt 0.870562 0.500000
vt 0.846304 0.500000
vt 0.875000 0.625000
vt 0.875000 0.509702
vt 0.875000 0.507953
vt 0.846304 0.750000
vt 0.629438 0.750000
vt 0.653696 0.750000
vt 0.625000 0.625000
vt 0.625000 0.710994
vt 0.625000 0.740298
vt 0.875000 0.625000
vt 0.875000 0.539006
vt 0.875000 0.659179
vt 0.875000 0.625000
vt 0.875000 0.625000
vt 0.875000 0.583155
vt 0.875000 0.604078
vt 0.631868 0.750000
vt 0.868132 0.750000
vt 0.868132 0.750000
vt 0.868132 0.583155
vt 0.631868 0.625000
vt 0.631868 0.583155
vt 0.875000 0.716078
vt 0.875000 0.687257
vt 0.868132 0.500000
vt 0.631868 0.500000
vt 0.631868 0.500000
vt 0.631868 0.625000
vt 0.868132 0.507964
vt 0.631868 0.507964
vt 0.631868 0.742036
vt 0.868132 0.625000
vt 0.875000 0.740987
vt 0.846304 0.500000
vt 0.629438 0.500000
vt 0.653696 0.500000
vt 0.846304 0.750000
vt 0.870562 0.750000
vt 0.625000 0.625000
vt 0.625000 0.742047
vt 0.629438 0.750000
vt 0.653696 0.750000
vt 0.629438 0.500000
vt 0.625000 0.533922
vt 0.625000 0.562744
vt 0.868132 0.500000
vt 0.631868 0.500000
vt 0.631868 0.500000
vt 0.868132 0.666845
vt 0.631868 0.666844
vt 0.625000 0.509013
vt 0.870562 0.500000
vt 0.870562 0.750000
vt 0.625000 0.666845
vt 0.625000 0.645922
vt 0.868132 0.750000
vt 0.875000 0.500000
vt 0.868132 0.500000
vt 0.625000 0.750000
vt 0.631868 0.750000
vt 0.875000 0.666845
vt 0.868132 0.500000
vt 0.625000 0.583155
vt 0.631868 0.750000
vt 0.625000 0.509098
vt 0.631868 0.750000
vt 0.875000 0.740903
vt 0.868132 0.742036
vt 0.868132 0.750000
vt 0.868132 0.625000
vt 0.875000 0.483973
vt 0.625000 0.766027
vt 0.875000 0.750000
vt 0.625000 0.500000
vn 0.1209 0.0000 -0.9927
vn -0.9927 -0.0001 -0.1209
vn -0.1171 0.0045 0.9931
vn 0.9927 0.0000 0.1209
vn -0.0538 -0.2113 -0.9759
vn 0.0538 -0.2113 0.9759
vn -0.1211 0.0000 0.9926
vn -0.1210 -0.0000 0.9926
vn 0.0000 1.0000 0.0000
vn -0.1209 -0.0000 0.9927
vn -0.6604 0.7466 -0.0805
vn 0.0000 -1.0000 -0.0000
vn -0.2927 0.0564 0.9545
vn -0.9927 0.0000 -0.1209
vn 0.1171 0.0045 -0.9931
vn 0.2927 0.0564 -0.9545
vn 0.1210 0.0000 -0.9927
vn 0.9875 0.1512 -0.0441
vn -0.2845 0.1516 0.9466
vn 0.6906 0.7225 -0.0317
vn -0.1610 0.3019 0.9396
vn -0.9444 0.1744 -0.2788
vn -0.6619 0.7220 -0.2013
vn -0.9875 0.1512 0.0441
vn 0.2845 0.1516 -0.9466
vn -0.6906 0.7225 0.0317
vn 0.1610 0.3018 -0.9397
vn 0.9444 0.1743 0.2787
vn 0.6620 0.7220 0.2013
vn 0.9927 0.0000 0.1210
vn -0.0001 1.0000 -0.0000
vn 0.0001 1.0000 -0.0001
vn -0.1210 0.0000 0.9927
vn 0.1209 -0.0001 -0.9927
vn -0.9927 -0.0001 -0.1210
vn 0.0000 1.0000 -0.0001
vn -0.0000 1.0000 0.0001
vn 0.2103 0.0306 -0.9771
vn 0.0001 -1.0000 0.0001
vn -0.9927 0.0000 -0.1210
vn -0.6604 0.7466 -0.0804
vn 0.2104 0.0307 -0.9771
vn -0.0527 -0.2114 -0.9760
vn 0.6603 0.7467 0.0805
vn 0.9927 0.0001 0.1209
vn 0.0000 -1.0000 -0.0001
vn 0.0311 0.0306 -0.9990
vn -0.2104 0.0308 0.9771
vn 0.0000 -1.0000 0.0002
vn 0.6604 0.7466 0.0805
vn -0.2105 0.0307 0.9771
vn 0.0526 -0.2115 0.9760
vn 0.0001 -1.0000 -0.0000
vn -0.0311 0.0305 0.9990
vn -0.0760 0.0521 0.9957
vn -0.3474 -0.9373 0.0279
vn -0.0032 -0.9998 0.0183
vn 0.0760 0.0521 -0.9957
vn 0.3474 -0.9373 -0.0279
vn 0.0032 -0.9998 -0.0183
vn -0.7618 0.6060 -0.2292
vn 0.1461 0.0417 -0.9884
vn -0.9986 -0.0010 -0.0521
vn 0.9999 -0.0109 -0.0091
vn 0.0007 -0.2683 -0.9633
vn -0.0944 0.0325 -0.9950
vn 0.7618 0.6060 0.2292
vn -0.1462 0.0417 0.9884
vn 0.9986 -0.0010 0.0521
vn -0.9999 -0.0109 0.0091
vn -0.0007 -0.2683 0.9633
vn 0.0944 0.0325 0.9950
vn -0.6290 0.7608 -0.1599
vn 0.5695 0.1035 -0.8154
vn 0.3362 -0.2743 -0.9010
vn 0.8749 0.4789 0.0722
vn 0.0214 -0.1858 -0.9824
vn 0.6492 0.7471 0.1427
vn 0.6290 0.7608 0.1599
vn -0.5695 0.1035 0.8155
vn -0.3362 -0.2743 0.9010
vn -0.8749 0.4789 -0.0722
vn -0.0214 -0.1858 0.9824
vn -0.6493 0.7471 -0.1426
vn -0.5320 0.8414 0.0951
vn -0.2003 0.0031 0.9797
vn -0.1210 -0.0002 0.9927
vn 0.0802 0.9968 0.0066
vn 0.6145 0.1585 -0.7729
vn 0.0001 1.0000 0.0001
vn -0.9539 0.2377 -0.1835
vn 0.0945 0.2233 -0.9702
vn 0.1507 -0.0084 -0.9885
vn 0.9658 -0.2245 0.1298
vn 0.2258 -0.2324 -0.9460
vn 0.9785 0.0238 0.2050
vn 0.9539 0.2376 0.1835
vn -0.0945 0.2232 0.9702
vn -0.1508 -0.0085 0.9885
vn -0.9658 -0.2245 -0.1298
vn -0.2258 -0.2324 0.9461
vn -0.9785 0.0238 -0.2050
vn -0.9901 -0.0001 -0.1402
vn -0.0239 -0.9264 -0.3758
vn -0.0001 -1.0000 0.0000
vn 0.8998 -0.0581 0.4324
vn -0.0023 -0.9998 0.0203
vn -0.6570 0.6949 -0.2924
vn -0.9908 0.0003 -0.1353
vn -0.6603 0.7467 -0.0805
vn 0.6571 0.6948 0.2924
vn 0.9908 0.0002 0.1353
vn -0.8847 0.3535 0.3038
vn 0.8847 0.3536 -0.3038
vn -0.0215 0.9362 -0.3507
vn -0.9902 0.0002 -0.1399
vn 0.0214 0.9364 0.3502
vn 0.9902 0.0002 0.1398
vn -0.2540 0.0075 0.9672
vn -0.3393 -0.9406 0.0083
vn 0.0031 -0.9998 -0.0178
vn 0.2540 0.0076 -0.9672
vn 0.3393 -0.9406 -0.0084
vn -0.0031 -0.9998 0.0177
vn -0.0802 0.9968 -0.0064
vn -0.6149 0.1586 0.7725
vn -0.0001 1.0000 0.0002
vn 0.5321 0.8414 -0.0948
vn 0.2003 0.0034 -0.9797
vn 0.1213 0.0001 -0.9926
vn 0.1208 0.0000 -0.9927
vn 0.0550 0.0564 0.9969
vn -0.0439 -0.2131 -0.9760
vn 0.0440 -0.2131 0.9760
vn -0.1208 0.0000 0.9927
vn -0.2618 -0.2136 0.9412
vn -0.2867 -0.2089 0.9350
vn -0.1248 0.0042 0.9922
vn -0.0550 0.0564 -0.9969
vn 0.2618 -0.2136 -0.9412
vn 0.2867 -0.2089 -0.9350
vn 0.1248 0.0042 -0.9922
vn 0.9083 -0.1796 0.3779
vn -0.3684 -0.2433 0.8973
vn -0.1459 -0.3807 0.9131
vn -0.1816 -0.1297 0.9748
vn -0.0303 -0.0223 0.9993
vn -0.9677 -0.2044 0.1477
vn -0.9082 -0.1797 -0.3779
vn 0.3684 -0.2433 -0.8973
vn 0.1460 -0.3808 -0.9131
vn 0.1817 -0.1296 -0.9748
vn 0.0303 -0.0222 -0.9993
vn 0.9677 -0.2043 -0.1477
vn 0.3315 -0.0805 0.9400
vn -0.0305 0.0127 0.9995
vn 0.0473 -0.9988 -0.0117
vn -0.3315 -0.0805 -0.9400
vn 0.0305 0.0127 -0.9995
vn -0.0473 -0.9988 0.0116
vn -0.9817 -0.0140 -0.1901
vn 0.2753 0.0321 -0.9608
vn 0.1987 -0.2714 -0.9417
vn 0.8076 0.5898 0.0030
vn 0.9645 -0.0022 0.2640
vn 0.1669 0.0407 -0.9851
vn 0.9817 -0.0140 0.1901
vn -0.2753 0.0321 0.9608
vn -0.1987 -0.2714 0.9417
vn -0.8076 0.5898 -0.0029
vn -0.9645 -0.0022 -0.2639
vn -0.1668 0.0407 0.9851
vn -0.8633 0.4858 -0.1368
vn -0.6649 0.7469 -0.0064
vn 0.2029 -0.1710 -0.9642
vn 0.6449 0.7643 0.0053
vn -0.1044 -0.2691 -0.9574
vn -0.3486 0.0960 -0.9323
vn 0.8633 0.4858 0.1368
vn 0.6649 0.7469 0.0064
vn -0.2029 -0.1710 0.9642
vn -0.6448 0.7643 -0.0053
vn 0.1044 -0.2691 0.9574
vn 0.3486 0.0960 0.9323
vn 0.0794 0.9968 0.0130
vn 0.4111 0.1586 0.8977
vn -0.4937 0.8413 -0.2201
vn 0.0405 0.0032 -0.9992
vn -0.9633 -0.2342 -0.1315
vn -0.9960 0.0092 -0.0893
vn 0.0562 -0.2389 -0.9694
vn 0.9735 0.2288 -0.0021
vn 0.0485 -0.0191 -0.9986
vn 0.1329 0.1950 -0.9718
vn 0.9633 -0.2342 0.1315
vn 0.9960 0.0092 0.0893
vn -0.0562 -0.2389 0.9694
vn -0.9735 0.2288 0.0021
vn -0.0485 -0.0191 0.9986
vn -0.1329 0.1950 0.9718
vn -0.9773 -0.0581 0.2037
vn -0.0026 -0.9998 0.0203
vn 0.9948 -0.0002 0.1017
vn 0.1133 -0.9264 -0.3590
vn -0.6624 0.7463 -0.0653
vn -0.9969 0.0424 0.0657
vn 0.6623 0.7464 0.0653
vn 0.9969 0.0425 -0.0657
vn -0.9927 0.0001 -0.1209
vn -0.6603 0.7466 -0.0805
vn -0.7683 0.3931 -0.5052
vn 0.7683 0.3931 0.5052
vn -0.0025 0.9998 0.0188
vn -0.9712 0.0637 0.2297
vn 0.0027 0.9998 -0.0192
vn 0.9927 -0.0001 0.1209
vn 0.9712 0.0637 -0.2298
vn 0.1393 0.0094 0.9902
vn -0.2116 0.0494 0.9761
vn 0.0424 -0.9988 0.0251
vn -0.1393 0.0094 -0.9902
vn 0.2116 0.0493 -0.9761
vn -0.0424 -0.9988 -0.0251
vn 0.4937 0.8413 0.2200
vn -0.0410 0.0032 0.9992
vn -0.0794 0.9968 -0.0130
vn -0.4111 0.1586 -0.8977
usemtl White.018
s off
f 23/1/1 71/2/1 12/3/1
f 4/4/2 64/5/2 2/6/2
f 66/7/3 59/8/3 63/9/3
f 1/10/4 52/11/4 3/12/4
f 10/13/5 26/14/5 47/15/5
f 9/16/6 18/17/6 59/8/6
f 15/18/7 69/19/7 11/20/7
f 69/19/8 34/21/8 19/22/8
f 28/23/4 30/24/4 14/25/4
f 32/26/9 72/27/9 37/28/9
f 16/29/10 15/30/10 11/20/10
f 60/31/11 21/32/11 45/33/11
f 67/34/12 62/35/12 42/36/12
f 50/37/12 65/38/12 67/34/12
f 66/7/13 58/39/13 9/16/13
f 6/40/14 44/41/14 7/42/14
f 5/43/4 55/44/4 1/10/4
f 68/45/15 47/15/15 51/46/15
f 3/12/4 49/47/4 8/48/4
f 7/42/14 43/49/14 4/4/14
f 24/50/1 23/51/1 12/3/1
f 20/52/14 36/53/14 22/54/14
f 72/27/9 31/55/9 38/56/9
f 68/45/16 46/57/16 10/13/16
f 2/6/14 61/58/14 6/40/14
f 5/43/4 49/47/4 56/59/4
f 71/2/17 40/60/17 27/61/17
f 14/25/18 16/29/19 13/62/20
f 18/63/21 20/52/22 17/64/23
f 22/54/24 24/50/25 21/32/26
f 26/65/27 28/23/28 25/66/29
f 29/67/10 30/24/30 31/55/31
f 32/26/32 33/68/14 34/21/33
f 35/69/34 36/53/35 37/28/36
f 38/56/37 39/70/4 40/60/17
f 41/71/38 42/36/39 43/49/2
f 44/41/40 45/33/41 46/57/42
f 47/15/43 48/72/44 49/47/45
f 50/37/46 51/46/47 52/11/45
f 53/73/48 54/74/49 55/44/45
f 56/59/30 57/75/50 58/39/51
f 59/8/52 60/31/11 61/58/40
f 62/35/53 63/9/54 64/5/14
f 66/7/55 62/35/56 65/38/57
f 68/45/58 50/37/59 67/34/60
f 44/41/61 41/71/62 43/49/63
f 49/47/64 51/46/65 47/15/66
f 56/59/67 53/73/68 55/44/69
f 61/58/70 63/9/71 59/8/72
f 45/33/73 24/50/74 46/57/75
f 48/72/76 26/14/77 25/66/78
f 57/75/79 16/29/80 58/39/81
f 60/31/82 18/17/83 17/64/84
f 70/76/85 34/21/86 69/19/87
f 38/56/88 71/2/89 72/27/90
f 22/54/91 35/69/92 23/1/93
f 28/23/94 40/60/95 39/70/96
f 14/25/97 29/67/98 15/18/99
f 20/52/100 34/21/101 33/68/102
f 64/5/103 42/36/104 62/35/105
f 55/44/106 50/37/107 52/11/4
f 45/33/108 61/58/109 60/31/110
f 57/75/111 49/47/112 48/72/50
f 22/54/113 17/64/11 20/52/14
f 14/25/114 25/66/44 28/23/45
f 37/28/115 33/68/116 32/26/9
f 31/55/117 39/70/118 38/56/9
f 53/73/119 65/38/120 54/74/121
f 41/71/122 67/34/123 42/36/124
f 70/76/125 29/67/126 31/55/127
f 37/28/128 71/2/129 35/69/130
f 48/72/50 13/62/50 57/75/50
f 23/1/131 35/69/131 71/2/131
f 4/4/14 43/49/14 64/5/14
f 66/7/132 9/16/132 59/8/132
f 1/10/4 55/44/4 52/11/4
f 10/13/133 12/3/133 26/14/133
f 9/16/134 11/20/134 18/17/134
f 15/18/10 29/67/10 69/19/10
f 19/22/10 18/77/10 11/20/10
f 11/20/135 69/19/135 19/22/135
f 28/23/4 39/70/4 30/24/4
f 32/26/9 70/76/9 72/27/9
f 11/20/136 9/16/136 16/29/136
f 9/16/137 58/39/137 16/29/137
f 60/31/11 17/64/11 21/32/11
f 67/34/12 65/38/12 62/35/12
f 50/37/12 54/74/12 65/38/12
f 66/7/138 53/73/138 58/39/138
f 6/40/14 61/58/14 44/41/14
f 5/43/4 56/59/4 55/44/4
f 68/45/139 10/13/139 47/15/139
f 3/12/4 52/11/4 49/47/4
f 7/42/14 44/41/14 43/49/14
f 12/3/140 10/13/140 24/50/140
f 10/13/141 46/57/141 24/50/141
f 20/52/14 33/68/14 36/53/14
f 72/27/9 70/76/9 31/55/9
f 68/45/142 41/71/142 46/57/142
f 2/6/14 64/5/14 61/58/14
f 5/43/4 8/48/4 49/47/4
f 27/61/17 26/78/17 12/3/17
f 12/3/1 71/2/1 27/61/1
f 14/25/143 15/79/144 16/29/145
f 18/63/146 19/22/147 20/52/148
f 22/54/149 23/80/150 24/50/151
f 26/65/152 27/61/153 28/23/154
f 66/7/155 63/9/156 62/35/157
f 68/45/158 51/46/159 50/37/160
f 44/41/161 46/57/162 41/71/163
f 49/47/164 52/11/165 51/46/166
f 56/59/167 58/39/168 53/73/169
f 61/58/170 64/5/171 63/9/172
f 45/33/173 21/32/174 24/50/175
f 48/72/176 47/15/177 26/14/178
f 57/75/179 13/62/180 16/29/181
f 60/31/182 59/8/183 18/17/184
f 70/76/185 32/26/9 34/21/186
f 38/56/187 40/60/34 71/2/188
f 22/54/189 36/53/190 35/69/191
f 28/23/192 27/61/193 40/60/194
f 14/25/195 30/24/196 29/67/197
f 20/52/198 19/22/199 34/21/200
f 64/5/201 43/49/35 42/36/202
f 55/44/203 54/74/12 50/37/204
f 45/33/205 44/41/35 61/58/206
f 57/75/207 56/59/30 49/47/208
f 22/54/209 21/32/210 17/64/211
f 14/25/4 13/62/50 25/66/212
f 37/28/213 36/53/14 33/68/214
f 31/55/215 30/24/216 39/70/217
f 53/73/218 66/7/219 65/38/220
f 41/71/221 68/45/222 67/34/223
f 70/76/224 69/19/10 29/67/225
f 37/28/226 72/27/36 71/2/227
f 48/72/50 25/66/50 13/62/50
usemtl Milk_cartoon
f 3/12/4 5/43/4 1/10/4
f 2/6/14 7/42/14 4/4/14
f 3/12/4 8/48/4 5/43/4
f 2/6/14 6/40/14 7/42/14
