# Blender v3.5.1 OBJ File: 'omaigat.blend'
# www.blender.org
mtllib komputer.mtl
o Cylinder.001_Cylinder.022
v -0.413535 1.293711 -9.008290
v -0.413535 1.253006 -9.008290
v -0.380067 1.293711 -8.999229
v -0.380067 1.253006 -8.999229
v -0.347885 1.293711 -8.972396
v -0.347885 1.253006 -8.972396
v -0.318226 1.293711 -8.928821
v -0.318226 1.253006 -8.928821
v -0.292229 1.293711 -8.870177
v -0.292229 1.253006 -8.870177
v -0.270894 1.293711 -8.798720
v -0.270894 1.253006 -8.798720
v -0.255041 1.293711 -8.717196
v -0.255041 1.253006 -8.717196
v -0.245279 1.293711 -8.628737
v -0.245279 1.253006 -8.628737
v -0.241983 1.293711 -8.536743
v -0.241983 1.253006 -8.536743
v -0.245279 1.293711 -8.444749
v -0.245279 1.253006 -8.444749
v -0.255041 1.293711 -8.356290
v -0.255041 1.253006 -8.356290
v -0.270894 1.293711 -8.274766
v -0.270894 1.253006 -8.274766
v -0.292229 1.293711 -8.203309
v -0.292229 1.253006 -8.203309
v -0.318226 1.293711 -8.144666
v -0.318226 1.253006 -8.144666
v -0.347885 1.293711 -8.101090
v -0.347885 1.253006 -8.101090
v -0.380067 1.293711 -8.074257
v -0.380067 1.253006 -8.074257
v -0.413535 1.293711 -8.065196
v -0.413535 1.253006 -8.065196
v -0.447003 1.293711 -8.074257
v -0.447003 1.253006 -8.074257
v -0.479186 1.293711 -8.101090
v -0.479186 1.253006 -8.101090
v -0.508845 1.293711 -8.144667
v -0.508845 1.253006 -8.144667
v -0.534841 1.293711 -8.203309
v -0.534841 1.253006 -8.203309
v -0.556176 1.293711 -8.274766
v -0.556176 1.253006 -8.274766
v -0.572029 1.293711 -8.356290
v -0.572029 1.253006 -8.356290
v -0.581791 1.293711 -8.444749
v -0.581791 1.253006 -8.444749
v -0.585088 1.293711 -8.536743
v -0.585088 1.253006 -8.536743
v -0.581791 1.293711 -8.628738
v -0.581791 1.253006 -8.628738
v -0.572029 1.293711 -8.717197
v -0.572029 1.253006 -8.717197
v -0.556176 1.293711 -8.798721
v -0.556176 1.253006 -8.798721
v -0.534841 1.293711 -8.870178
v -0.534841 1.253006 -8.870178
v -0.508844 1.293711 -8.928821
v -0.508844 1.253006 -8.928821
v -0.479185 1.293711 -8.972396
v -0.479185 1.253006 -8.972396
v -0.447003 1.293711 -8.999229
v -0.447003 1.253006 -8.999229
v -0.386287 1.460271 -8.563992
v -0.343232 1.244880 -8.607046
v -0.386287 1.460271 -8.509495
v -0.343232 1.244880 -8.466440
v -0.440783 1.460271 -8.563992
v -0.483838 1.244880 -8.607046
v -0.440783 1.460271 -8.509495
v -0.483838 1.244880 -8.466440
v -0.343232 1.460271 -8.466440
v -0.343232 1.460271 -8.607046
v -0.483838 1.460271 -8.466440
v -0.483838 1.460271 -8.607046
v -0.353161 1.499525 -8.476369
v -0.353161 1.499525 -8.597117
v -0.423932 1.499525 -8.476369
v -0.423932 1.499525 -8.597117
v -0.386287 1.499525 -8.509495
v -0.386287 1.499525 -8.563992
v -0.440783 1.499525 -8.509495
v -0.440783 1.499525 -8.563992
v -0.353161 1.570046 -8.476369
v -0.353161 1.570046 -8.597117
v -0.423932 1.570046 -8.476369
v -0.423932 1.570046 -8.597117
v -0.391607 1.570046 -7.924523
v -0.391607 1.570046 -9.148963
v -0.435464 1.582394 -7.942302
v -0.435464 1.582394 -9.131185
v -0.391607 2.006975 -7.924523
v -0.391607 2.006975 -9.148963
v -0.435464 1.994626 -7.942302
v -0.435464 1.994626 -9.131185
v -0.386287 1.460271 -8.509495
v -0.386287 1.460271 -8.563992
v -0.440783 1.460271 -8.563992
v -0.440783 1.460271 -8.509495
v -0.413535 1.460271 -8.466440
v -0.413535 1.244880 -8.466440
v -0.413535 1.460271 -8.607046
v -0.413535 1.244880 -8.607046
v -0.413535 1.460271 -8.509495
v -0.413535 1.460271 -8.563992
v -0.413535 1.499525 -8.509495
v -0.413535 1.499525 -8.563992
v -0.413535 1.499525 -8.476369
v -0.413535 1.499525 -8.597117
v -0.413535 1.570046 -8.476369
v -0.413535 1.570046 -8.597117
v -0.413535 1.460271 -8.509495
v -0.413535 1.460271 -8.563992
v -0.353161 1.814629 -8.476369
v -0.353161 1.814629 -8.597117
v -0.413535 1.814629 -8.476369
v -0.413535 1.814629 -8.597117
v -0.435464 1.570046 -9.148963
v -0.435464 1.570046 -7.924523
v -0.435464 2.006975 -9.148963
v -0.435464 2.006975 -7.924523
v -0.431936 1.582394 -9.131185
v -0.431936 1.582394 -7.942302
v -0.431936 1.994626 -9.131185
v -0.431936 1.994626 -7.942302
vt 1.000000 1.000000
vt 1.000000 0.500000
vt 0.968750 0.500000
vt 0.968750 1.000000
vt 0.937500 0.500000
vt 0.937500 1.000000
vt 0.906250 0.500000
vt 0.906250 1.000000
vt 0.875000 0.500000
vt 0.875000 1.000000
vt 0.843750 0.500000
vt 0.843750 1.000000
vt 0.812500 0.500000
vt 0.812500 1.000000
vt 0.781250 0.500000
vt 0.781250 1.000000
vt 0.750000 0.500000
vt 0.750000 1.000000
vt 0.718750 0.500000
vt 0.718750 1.000000
vt 0.687500 0.500000
vt 0.687500 1.000000
vt 0.656250 0.500000
vt 0.656250 1.000000
vt 0.625000 0.500000
vt 0.625000 1.000000
vt 0.593750 0.500000
vt 0.593750 1.000000
vt 0.562500 0.500000
vt 0.562500 1.000000
vt 0.531250 0.500000
vt 0.531250 1.000000
vt 0.500000 0.500000
vt 0.500000 1.000000
vt 0.468750 0.500000
vt 0.468750 1.000000
vt 0.437500 0.500000
vt 0.437500 1.000000
vt 0.406250 0.500000
vt 0.406250 1.000000
vt 0.375000 0.500000
vt 0.375000 1.000000
vt 0.343750 0.500000
vt 0.343750 1.000000
vt 0.312500 0.500000
vt 0.312500 1.000000
vt 0.281250 0.500000
vt 0.281250 1.000000
vt 0.250000 0.500000
vt 0.250000 1.000000
vt 0.218750 0.500000
vt 0.218750 1.000000
vt 0.187500 0.500000
vt 0.187500 1.000000
vt 0.156250 0.500000
vt 0.156250 1.000000
vt 0.125000 0.500000
vt 0.125000 1.000000
vt 0.093750 0.500000
vt 0.093750 1.000000
vt 0.062500 0.500000
vt 0.028269 0.341844
vt 0.471731 0.158156
vt 0.158156 0.028269
vt 0.062500 1.000000
vt 0.031250 0.500000
vt 0.031250 1.000000
vt 0.000000 0.500000
vt 0.985388 0.296822
vt 0.514611 0.203179
vt 0.796822 0.014612
vt 0.625000 0.000000
vt 0.375000 0.000000
vt 0.375000 0.250000
vt 0.625000 0.375000
vt 0.375000 0.375000
vt 0.375000 0.500000
vt 0.625000 0.500000
vt 0.375000 0.750000
vt 0.625000 0.875000
vt 0.375000 0.875000
vt 0.375000 1.000000
vt 0.201552 0.576552
vt 0.201552 0.673448
vt 0.201552 0.673448
vt 0.875000 0.500000
vt 0.750000 0.500000
vt 0.750000 0.750000
vt 0.201552 0.673448
vt 0.201552 0.576552
vt 0.125000 0.500000
vt 0.250000 0.576552
vt 0.250000 0.500000
vt 0.298448 0.576552
vt 0.298448 0.673448
vt 0.250000 0.673448
vt 0.250000 0.750000
vt 0.267644 0.642644
vt 0.267644 0.607357
vt 0.267644 0.607357
vt 0.250000 0.673448
vt 0.250000 0.673448
vt 0.298448 0.576552
vt 0.250000 0.576552
vt 0.250000 0.576552
vt 0.298448 0.673448
vt 0.298448 0.576552
vt 0.232357 0.642643
vt 0.232357 0.607357
vt 0.201552 0.576552
vt 0.250000 0.607357
vt 0.298448 0.673448
vt 0.250000 0.642643
vt 0.250000 0.607357
vt 0.250000 0.642643
vt 0.232357 0.642643
vt 0.232357 0.642643
vt 0.232357 0.607357
vt 0.267644 0.607357
vt 0.267644 0.607357
vt 0.232357 0.607357
vt 0.232357 0.642643
vt 0.267644 0.642131
vt 0.267644 0.607869
vt 0.267644 0.607869
vt 0.267644 0.642644
vt 0.267644 0.642644
vt 0.232357 0.607357
vt 0.267644 0.642644
vt 0.232357 0.607357
vt 0.125000 0.750000
vt 0.625000 0.750000
vt 0.625000 0.250000
vt 0.250000 0.607357
vt 0.232357 0.642643
vt 0.250000 0.642643
vt 0.267644 0.607869
vt 0.267644 0.642131
vt 0.267644 0.642131
vt 0.267644 0.607869
vt 0.267644 0.642131
vt 0.341844 0.471731
vt 0.250000 0.490000
vt 0.296822 0.485388
vt 0.203179 0.485389
vt 0.158156 0.471731
vt 0.080295 0.419706
vt 0.116663 0.449553
vt 0.050447 0.383337
vt 0.010000 0.250000
vt 0.014612 0.296822
vt 0.014611 0.203179
vt 0.028269 0.158156
vt 0.050447 0.116663
vt 0.080294 0.080294
vt 0.116663 0.050447
vt 0.250000 0.010000
vt 0.203178 0.014612
vt 0.341844 0.028269
vt 0.296822 0.014612
vt 0.419706 0.080294
vt 0.383337 0.050447
vt 0.449553 0.116663
vt 0.490000 0.250000
vt 0.485388 0.203178
vt 0.485388 0.296822
vt 0.471731 0.341844
vt 0.419706 0.419706
vt 0.449553 0.383337
vt 0.383337 0.449553
vt 0.000000 1.000000
vt 0.703179 0.485389
vt 0.796822 0.485388
vt 0.750000 0.490000
vt 0.883337 0.449553
vt 0.841844 0.471731
vt 0.949553 0.383337
vt 0.919706 0.419706
vt 0.971731 0.341844
vt 0.985388 0.203178
vt 0.990000 0.250000
vt 0.971731 0.158156
vt 0.949553 0.116663
vt 0.919706 0.080294
vt 0.883337 0.050447
vt 0.841844 0.028269
vt 0.703178 0.014612
vt 0.750000 0.010000
vt 0.616663 0.050447
vt 0.658156 0.028269
vt 0.550447 0.116663
vt 0.580294 0.080294
vt 0.528269 0.158156
vt 0.514612 0.296822
vt 0.510000 0.250000
vt 0.550447 0.383337
vt 0.528269 0.341844
vt 0.580295 0.419706
vt 0.616663 0.449553
vt 0.658156 0.471731
vt 0.625000 1.000000
vt 0.875000 0.750000
vn 0.2613 0.0000 -0.9653
vn 0.6404 0.0000 -0.7681
vn 0.8267 0.0000 -0.5627
vn 0.9142 0.0000 -0.4053
vn 0.9582 0.0000 -0.2861
vn 0.9816 0.0000 -0.1909
vn 0.9940 0.0000 -0.1097
vn 0.9994 0.0000 -0.0358
vn 0.9994 0.0000 0.0358
vn 0.9940 0.0000 0.1097
vn 0.9816 0.0000 0.1909
vn 0.9582 0.0000 0.2861
vn 0.9142 0.0000 0.4053
vn 0.8267 0.0000 0.5627
vn 0.6404 0.0000 0.7680
vn 0.2613 0.0000 0.9653
vn -0.2614 0.0000 0.9652
vn -0.6404 0.0000 0.7680
vn -0.8267 0.0000 0.5627
vn -0.9142 0.0000 0.4053
vn -0.9582 0.0000 0.2861
vn -0.9816 0.0000 0.1909
vn -0.9940 0.0000 0.1097
vn -0.9994 0.0000 0.0358
vn -0.9994 0.0000 -0.0358
vn -0.9940 0.0000 -0.1097
vn -0.9816 0.0000 -0.1909
vn -0.9582 0.0000 -0.2861
vn -0.9142 0.0000 -0.4053
vn -0.8267 0.0000 -0.5627
vn 0.0000 -1.0000 0.0000
vn -0.6404 0.0000 -0.7680
vn -0.2613 0.0000 -0.9653
vn 0.0000 1.0000 0.0000
vn 1.0000 0.0000 0.0000
vn 0.0000 0.0000 1.0000
vn -1.0000 0.0000 0.0000
vn 0.0000 0.0000 -1.0000
vn 0.6404 0.0000 -0.7680
vn 0.6404 0.0000 0.7681
vn 0.2614 0.0000 0.9652
vn -0.2613 0.0000 0.9653
vn -0.6404 0.0000 -0.7681
vn -0.2613 0.0000 -0.9652
usemtl None
s off
f 2/1/1 1/2/1 3/3/1
f 4/4/2 3/3/2 5/5/2
f 6/6/3 5/5/3 7/7/3
f 8/8/4 7/7/4 9/9/4
f 10/10/5 9/9/5 11/11/5
f 12/12/6 11/11/6 13/13/6
f 14/14/7 13/13/7 15/15/7
f 16/16/8 15/15/8 17/17/8
f 18/18/9 17/17/9 19/19/9
f 20/20/10 19/19/10 21/21/10
f 22/22/11 21/21/11 23/23/11
f 24/24/12 23/23/12 25/25/12
f 26/26/13 25/25/13 27/27/13
f 28/28/14 27/27/14 29/29/14
f 30/30/15 29/29/15 31/31/15
f 32/32/16 31/31/16 33/33/16
f 34/34/17 33/33/17 35/35/17
f 36/36/18 35/35/18 37/37/18
f 38/38/19 37/37/19 39/39/19
f 40/40/20 39/39/20 41/41/20
f 42/42/21 41/41/21 43/43/21
f 44/44/22 43/43/22 45/45/22
f 46/46/23 45/45/23 47/47/23
f 48/48/24 47/47/24 49/49/24
f 50/50/25 49/49/25 51/51/25
f 52/52/26 51/51/26 53/53/26
f 54/54/27 53/53/27 55/55/27
f 56/56/28 55/55/28 57/57/28
f 58/58/29 57/57/29 59/59/29
f 60/60/30 59/59/30 61/61/30
f 54/62/31 22/63/31 38/64/31
f 62/65/32 61/61/32 63/66/32
f 64/67/33 63/66/33 1/68/33
f 15/69/34 47/70/34 31/71/34
f 66/72/35 74/73/35 73/74/35
f 102/75/36 101/76/36 75/77/36
f 72/78/37 75/77/37 76/79/37
f 104/80/38 103/81/38 74/82/38
f 97/83/35 98/84/35 82/85/35
f 68/86/31 102/87/31 104/88/31
f 65/89/34 67/90/34 73/91/34
f 67/90/34 105/92/34 101/93/34
f 71/94/34 69/95/34 76/79/34
f 69/95/34 106/96/34 103/97/34
f 80/98/37 79/99/37 87/100/37
f 98/84/38 114/101/38 108/102/38
f 100/103/36 113/104/36 107/105/36
f 99/106/37 100/103/37 83/107/37
f 78/108/31 77/109/31 81/110/31
f 109/111/31 107/105/31 81/110/31
f 79/99/34 80/98/34 84/112/34
f 80/98/31 110/113/31 108/102/31
f 87/100/34 111/114/34 112/115/34
f 77/109/35 78/108/35 86/116/35
f 78/108/38 110/113/38 112/115/38
f 79/99/36 109/111/36 111/114/36
f 90/117/31 89/118/31 120/119/31
f 122/120/34 93/121/34 94/122/34
f 120/119/36 89/118/36 93/121/36
f 92/123/34 91/124/34 124/125/34
f 89/118/35 90/117/35 94/122/35
f 90/117/38 119/126/38 121/127/38
f 71/94/36 100/103/36 99/106/36
f 105/92/36 113/104/36 100/103/36
f 106/96/36 114/101/36 98/84/36
f 65/89/36 98/84/36 97/83/36
f 69/95/36 99/106/36 114/101/36
f 67/90/36 97/83/36 113/104/36
f 109/111/36 77/109/36 85/128/36
f 110/113/38 80/98/38 88/129/38
f 111/114/36 85/128/36 115/130/36
f 110/113/31 78/108/31 82/85/31
f 79/99/31 83/107/31 107/105/31
f 113/104/36 97/83/36 81/110/36
f 114/101/38 99/106/38 84/112/38
f 65/89/34 74/131/34 103/97/34
f 71/94/34 75/77/34 101/93/34
f 102/87/31 72/78/31 70/132/31
f 70/132/38 76/79/38 103/81/38
f 68/133/36 73/74/36 101/76/36
f 117/134/34 115/130/34 116/135/34
f 86/116/38 112/115/38 118/136/38
f 112/115/37 111/114/37 117/134/37
f 85/128/35 86/116/35 116/135/35
f 91/124/37 92/123/37 119/126/37
f 95/137/37 122/120/37 121/127/37
f 95/137/37 91/124/37 120/119/37
f 96/138/37 121/127/37 119/126/37
f 123/139/37 124/125/37 126/140/37
f 96/138/36 92/123/36 123/139/36
f 95/137/31 96/138/31 125/141/31
f 91/124/38 95/137/38 126/140/38
f 2/1/1 3/3/1 4/4/1
f 4/4/39 5/5/39 6/6/39
f 6/6/3 7/7/3 8/8/3
f 8/8/4 9/9/4 10/10/4
f 10/10/5 11/11/5 12/12/5
f 12/12/6 13/13/6 14/14/6
f 14/14/7 15/15/7 16/16/7
f 16/16/8 17/17/8 18/18/8
f 18/18/9 19/19/9 20/20/9
f 20/20/10 21/21/10 22/22/10
f 22/22/11 23/23/11 24/24/11
f 24/24/12 25/25/12 26/26/12
f 26/26/13 27/27/13 28/28/13
f 28/28/14 29/29/14 30/30/14
f 30/30/40 31/31/40 32/32/40
f 32/32/41 33/33/41 34/34/41
f 34/34/42 35/35/42 36/36/42
f 36/36/18 37/37/18 38/38/18
f 38/38/19 39/39/19 40/40/19
f 40/40/20 41/41/20 42/42/20
f 42/42/21 43/43/21 44/44/21
f 44/44/22 45/45/22 46/46/22
f 46/46/23 47/47/23 48/48/23
f 48/48/24 49/49/24 50/50/24
f 50/50/25 51/51/25 52/52/25
f 52/52/26 53/53/26 54/54/26
f 54/54/27 55/55/27 56/56/27
f 56/56/28 57/57/28 58/58/28
f 58/58/29 59/59/29 60/60/29
f 60/60/30 61/61/30 62/65/30
f 6/142/31 2/143/31 4/144/31
f 2/143/31 6/142/31 64/145/31
f 64/145/31 6/142/31 62/146/31
f 62/146/31 58/147/31 60/148/31
f 58/147/31 54/62/31 56/149/31
f 54/62/31 50/150/31 52/151/31
f 50/150/31 54/62/31 48/152/31
f 48/152/31 54/62/31 46/153/31
f 46/153/31 38/64/31 44/154/31
f 44/154/31 38/64/31 42/155/31
f 42/155/31 38/64/31 40/156/31
f 38/64/31 34/157/31 36/158/31
f 34/157/31 30/159/31 32/160/31
f 30/159/31 26/161/31 28/162/31
f 26/161/31 22/63/31 24/163/31
f 22/63/31 18/164/31 20/165/31
f 18/164/31 22/63/31 16/166/31
f 16/166/31 22/63/31 14/167/31
f 14/167/31 10/168/31 12/169/31
f 10/168/31 6/142/31 8/170/31
f 62/146/31 6/142/31 58/147/31
f 58/147/31 6/142/31 54/62/31
f 38/64/31 22/63/31 34/157/31
f 34/157/31 22/63/31 30/159/31
f 30/159/31 22/63/31 26/161/31
f 14/167/31 22/63/31 10/168/31
f 10/168/31 22/63/31 6/142/31
f 54/62/31 38/64/31 46/153/31
f 6/142/31 22/63/31 54/62/31
f 62/65/43 63/66/43 64/67/43
f 64/67/44 1/68/44 2/171/44
f 63/172/34 3/173/34 1/174/34
f 3/173/34 7/175/34 5/176/34
f 7/175/34 11/177/34 9/178/34
f 11/177/34 7/175/34 13/179/34
f 13/179/34 7/175/34 15/69/34
f 15/69/34 19/180/34 17/181/34
f 19/180/34 15/69/34 21/182/34
f 21/182/34 15/69/34 23/183/34
f 23/183/34 31/71/34 25/184/34
f 25/184/34 31/71/34 27/185/34
f 27/185/34 31/71/34 29/186/34
f 31/71/34 35/187/34 33/188/34
f 35/187/34 39/189/34 37/190/34
f 39/189/34 43/191/34 41/192/34
f 43/191/34 47/70/34 45/193/34
f 47/70/34 51/194/34 49/195/34
f 51/194/34 55/196/34 53/197/34
f 55/196/34 63/172/34 57/198/34
f 57/198/34 63/172/34 59/199/34
f 59/199/34 63/172/34 61/200/34
f 63/172/34 7/175/34 3/173/34
f 31/71/34 47/70/34 35/187/34
f 35/187/34 47/70/34 39/189/34
f 39/189/34 47/70/34 43/191/34
f 47/70/34 63/172/34 51/194/34
f 51/194/34 63/172/34 55/196/34
f 63/172/34 15/69/34 7/175/34
f 15/69/34 31/71/34 23/183/34
f 63/172/34 47/70/34 15/69/34
f 66/72/35 73/74/35 68/133/35
f 102/75/36 75/77/36 72/78/36
f 72/78/37 76/79/37 70/132/37
f 104/80/38 74/82/38 66/201/38
f 97/83/35 82/85/35 81/110/35
f 68/86/31 104/88/31 66/202/31
f 65/89/34 73/91/34 74/131/34
f 67/90/34 101/93/34 73/91/34
f 71/94/34 76/79/34 75/77/34
f 69/95/34 103/97/34 76/79/34
f 80/98/37 87/100/37 88/129/37
f 98/84/38 108/102/38 82/85/38
f 100/103/36 107/105/36 83/107/36
f 99/106/37 83/107/37 84/112/37
f 78/108/31 81/110/31 82/85/31
f 109/111/31 81/110/31 77/109/31
f 79/99/34 84/112/34 83/107/34
f 80/98/31 108/102/31 84/112/31
f 87/100/34 112/115/34 88/129/34
f 77/109/35 86/116/35 85/128/35
f 78/108/38 112/115/38 86/116/38
f 79/99/36 111/114/36 87/100/36
f 90/117/31 120/119/31 119/126/31
f 122/120/34 94/122/34 121/127/34
f 120/119/36 93/121/36 122/120/36
f 92/123/34 124/125/34 123/139/34
f 89/118/35 94/122/35 93/121/35
f 90/117/38 121/127/38 94/122/38
f 71/94/36 99/106/36 69/95/36
f 105/92/36 100/103/36 71/94/36
f 106/96/36 98/84/36 65/89/36
f 65/89/36 97/83/36 67/90/36
f 69/95/36 114/101/36 106/96/36
f 67/90/36 113/104/36 105/92/36
f 109/111/36 85/128/36 111/114/36
f 110/113/38 88/129/38 112/115/38
f 111/114/36 115/130/36 117/134/36
f 110/113/31 82/85/31 108/102/31
f 79/99/31 107/105/31 109/111/31
f 113/104/36 81/110/36 107/105/36
f 114/101/38 84/112/38 108/102/38
f 65/89/34 103/97/34 106/96/34
f 71/94/34 101/93/34 105/92/34
f 102/87/31 70/132/31 104/88/31
f 70/132/38 103/81/38 104/80/38
f 68/133/36 101/76/36 102/75/36
f 117/134/34 116/135/34 118/136/34
f 86/116/38 118/136/38 116/135/38
f 112/115/37 117/134/37 118/136/37
f 85/128/35 116/135/35 115/130/35
f 91/124/37 119/126/37 120/119/37
f 95/137/37 121/127/37 96/138/37
f 95/137/37 120/119/37 122/120/37
f 96/138/37 119/126/37 92/123/37
f 123/139/37 126/140/37 125/141/37
f 96/138/36 123/139/36 125/141/36
f 95/137/31 125/141/31 126/140/31
f 91/124/38 126/140/38 124/125/38
