# Blender v3.5.1 OBJ File: 'omaigat.blend'
# www.blender.org
mtllib lemari.mtl
o Cube.008_Cube.094
v 0.721128 0.239506 -4.367582
v 0.721128 2.987224 -4.367582
v 0.772756 0.291593 -5.623117
v 0.772756 2.935136 -5.623117
v 3.444621 0.239506 -4.367582
v 3.444621 2.987224 -4.367582
v 3.392993 0.291593 -5.623117
v 3.392993 2.935136 -5.623117
v 2.050483 0.239506 -5.542473
v 2.082874 0.239506 -5.517874
v 2.082874 0.239506 -4.367582
v 2.082874 2.987224 -4.367582
v 1.998855 0.291593 -5.623117
v 2.166893 0.291593 -5.623117
v 2.082874 0.239506 -5.598518
v 2.166893 2.935136 -5.623117
v 1.998855 2.935136 -5.623117
v 2.082874 2.987224 -5.598518
v 2.115266 0.239506 -5.542473
v 2.082874 2.987224 -5.517874
v 2.115266 2.987224 -5.542473
v 2.050483 2.987224 -5.542473
v 2.193521 1.238279 -5.623719
v 2.272257 1.238279 -5.623719
v 2.193521 1.559966 -5.623719
v 2.272257 1.559966 -5.623719
v 2.193521 1.559966 -5.652493
v 2.193521 1.238279 -5.652493
v 2.272257 1.238279 -5.652493
v 2.272257 1.559966 -5.652493
v 2.193521 1.329589 -5.623719
v 2.272257 1.329589 -5.623719
v 2.193521 1.329589 -5.652493
v 2.272257 1.329589 -5.652493
v 2.193521 1.329589 -5.669664
v 2.193521 1.238279 -5.669664
v 2.272257 1.238279 -5.669664
v 2.272257 1.329589 -5.669664
v 1.885328 1.238279 -5.623719
v 1.964065 1.238279 -5.623719
v 1.885328 1.559966 -5.623719
v 1.964065 1.559966 -5.623719
v 1.885328 1.559966 -5.652493
v 1.885328 1.238279 -5.652493
v 1.964065 1.238279 -5.652493
v 1.964065 1.559966 -5.652493
v 1.885328 1.329589 -5.623719
v 1.964065 1.329589 -5.623719
v 1.885328 1.329589 -5.652493
v 1.964065 1.329589 -5.652493
v 1.885328 1.329589 -5.669664
v 1.885328 1.238279 -5.669664
v 1.964065 1.238279 -5.669664
v 1.964065 1.329589 -5.669664
v 0.721128 2.987224 -5.623117
v 0.721128 0.239506 -5.623117
v 3.444621 2.987224 -5.623117
v 3.444621 0.239506 -5.623117
v 2.115266 2.987224 -5.623117
v 2.115266 0.239506 -5.623117
v 2.050483 0.239506 -5.623117
v 2.050483 2.987224 -5.623117
v 0.772756 2.935136 -5.585011
v 0.772756 0.291593 -5.585011
v 3.392993 2.935136 -5.585011
v 3.392993 0.291593 -5.585011
v 2.166893 2.935136 -5.585011
v 2.166893 0.291593 -5.585011
v 1.998855 0.291593 -5.585011
v 1.998855 2.935136 -5.585011
vt 0.076745 0.913411
vt 0.076745 0.913411
vt 0.076745 0.913411
vt 0.076745 0.913411
vt 0.076745 0.913411
vt 0.076745 0.913411
vt 0.076745 0.913411
vt 0.076745 0.913411
vt 0.076745 0.913411
vt 0.076745 0.913411
vt 0.076745 0.913411
vt 0.076745 0.913411
vt 0.076745 0.913411
vt 0.076745 0.913411
vt 0.076745 0.913411
vt 0.076745 0.913411
vt 0.076745 0.913412
vt 0.076745 0.913412
vt 0.076745 0.913411
vt 0.076745 0.913411
vt 0.076745 0.913411
vt 0.076745 0.913411
vt 0.076745 0.913411
vt 0.076745 0.913411
vt 0.076745 0.913411
vt 0.076745 0.913411
vt 0.942941 0.933098
vt 0.942941 0.933098
vt 0.942941 0.933098
vt 0.076745 0.913411
vt 0.076745 0.913411
vt 0.942941 0.933098
vt 0.942941 0.933098
vt 0.942941 0.933098
vt 0.942941 0.933098
vt 0.942941 0.933098
vt 0.942941 0.933098
vt 0.942941 0.933098
vt 0.942941 0.933098
vt 0.942941 0.933098
vt 0.942941 0.933098
vt 0.942941 0.933098
vt 0.942941 0.933098
vt 0.942941 0.933098
vt 0.942941 0.933098
vt 0.942941 0.933098
vt 0.942941 0.933098
vt 0.942941 0.933098
vt 0.942941 0.933098
vt 0.942941 0.933098
vt 0.942941 0.933098
vt 0.942941 0.933098
vt 0.942941 0.933098
vt 0.942941 0.933098
vt 0.942941 0.933098
vt 0.942941 0.933098
vt 0.942941 0.933098
vt 0.942941 0.933098
vt 0.942941 0.933098
vt 0.942941 0.933098
vt 0.942941 0.933098
vt 0.942941 0.933098
vt 0.942941 0.933098
vt 0.076745 0.913411
vt 0.076745 0.913411
vt 0.076745 0.913411
vt 0.076745 0.913411
vt 0.814980 0.942941
vt 0.814980 0.942941
vt 0.814980 0.942941
vt 0.814980 0.942941
vt 0.814980 0.942941
vt 0.814980 0.942941
vt 0.076745 0.913411
vt 0.076745 0.913411
vt 0.076745 0.913411
vt 0.076745 0.913411
vt 0.076745 0.913411
vt 0.076745 0.913411
vt 0.942941 0.933098
vt 0.814980 0.942941
vt 0.814980 0.942941
vn -1.0000 0.0000 0.0000
vn 0.0000 1.0000 0.0000
vn 1.0000 0.0000 0.0000
vn 0.0000 0.0000 1.0000
vn 0.0000 -1.0000 0.0000
vn 0.0000 0.0000 -1.0000
usemtl Material.018
s off
f 2/1/1 56/2/1 1/3/1
f 18/4/2 12/5/2 6/6/2
f 57/7/3 5/8/3 58/9/3
f 12/5/4 1/3/4 11/10/4
f 15/11/5 11/10/5 1/3/5
f 9/12/5 19/13/5 10/14/5
f 2/1/2 18/4/2 55/15/2
f 17/16/5 63/17/5 4/18/5
f 6/6/4 11/10/4 5/8/4
f 5/8/5 15/11/5 58/9/5
f 15/11/2 9/12/2 10/14/2
f 15/11/2 19/13/2 60/19/2
f 60/19/1 21/20/1 59/21/1
f 8/22/5 67/23/5 16/24/5
f 21/20/2 22/25/2 20/26/2
f 19/27/6 22/28/6 21/29/6
f 62/30/3 9/12/3 61/31/3
f 18/4/5 22/25/5 62/30/5
f 18/4/5 21/20/5 20/26/5
f 25/32/6 32/33/6 31/34/6
f 34/35/4 27/36/4 33/37/4
f 23/38/3 33/37/3 31/34/3
f 25/32/5 30/39/5 26/40/5
f 24/41/2 28/42/2 23/38/2
f 26/40/1 34/35/1 32/33/1
f 32/33/1 29/43/1 24/41/1
f 31/34/3 27/36/3 25/32/3
f 33/37/5 38/44/5 34/35/5
f 31/34/6 24/41/6 23/38/6
f 37/45/4 35/46/4 36/47/4
f 29/43/2 36/47/2 28/42/2
f 28/42/3 35/46/3 33/37/3
f 34/35/1 37/45/1 29/43/1
f 41/48/6 48/49/6 47/50/6
f 50/51/4 43/52/4 49/53/4
f 39/54/3 49/53/3 47/50/3
f 41/48/5 46/55/5 42/56/5
f 40/57/2 44/58/2 39/54/2
f 42/56/1 50/51/1 48/49/1
f 48/49/1 45/59/1 40/57/1
f 47/50/3 43/52/3 41/48/3
f 49/53/5 54/60/5 50/51/5
f 47/50/6 40/57/6 39/54/6
f 53/61/4 51/62/4 52/63/4
f 45/59/2 52/63/2 44/58/2
f 44/58/3 51/62/3 49/53/3
f 50/51/1 53/61/1 45/59/1
f 3/64/6 55/15/6 4/18/6
f 8/22/6 58/9/6 7/65/6
f 14/66/6 59/21/6 16/24/6
f 17/16/6 61/31/6 13/67/6
f 3/64/6 61/31/6 56/2/6
f 4/18/6 62/30/6 17/16/6
f 7/65/6 60/19/6 14/66/6
f 16/24/6 57/7/6 8/22/6
f 68/68/6 65/69/6 66/70/6
f 63/71/6 69/72/6 64/73/6
f 13/67/1 70/74/1 17/16/1
f 7/65/1 65/75/1 8/22/1
f 14/66/2 66/76/2 7/65/2
f 3/64/2 69/77/2 13/67/2
f 16/24/3 68/78/3 14/66/3
f 4/18/3 64/79/3 3/64/3
f 2/1/1 55/15/1 56/2/1
f 6/6/2 57/7/2 18/4/2
f 57/7/2 59/21/2 18/4/2
f 57/7/3 6/6/3 5/8/3
f 12/5/4 2/1/4 1/3/4
f 1/3/5 56/2/5 15/11/5
f 56/2/5 61/31/5 15/11/5
f 12/5/2 18/4/2 2/1/2
f 18/4/2 62/30/2 55/15/2
f 17/16/5 70/74/5 63/17/5
f 6/6/4 12/5/4 11/10/4
f 11/10/5 15/11/5 5/8/5
f 15/11/5 60/19/5 58/9/5
f 15/11/2 61/31/2 9/12/2
f 15/11/2 10/14/2 19/13/2
f 60/19/1 19/13/1 21/20/1
f 8/22/5 65/75/5 67/23/5
f 19/27/6 9/80/6 22/28/6
f 62/30/3 22/25/3 9/12/3
f 18/4/5 20/26/5 22/25/5
f 18/4/5 59/21/5 21/20/5
f 25/32/6 26/40/6 32/33/6
f 34/35/4 30/39/4 27/36/4
f 23/38/3 28/42/3 33/37/3
f 25/32/5 27/36/5 30/39/5
f 24/41/2 29/43/2 28/42/2
f 26/40/1 30/39/1 34/35/1
f 32/33/1 34/35/1 29/43/1
f 31/34/3 33/37/3 27/36/3
f 33/37/5 35/46/5 38/44/5
f 31/34/6 32/33/6 24/41/6
f 37/45/4 38/44/4 35/46/4
f 29/43/2 37/45/2 36/47/2
f 28/42/3 36/47/3 35/46/3
f 34/35/1 38/44/1 37/45/1
f 41/48/6 42/56/6 48/49/6
f 50/51/4 46/55/4 43/52/4
f 39/54/3 44/58/3 49/53/3
f 41/48/5 43/52/5 46/55/5
f 40/57/2 45/59/2 44/58/2
f 42/56/1 46/55/1 50/51/1
f 48/49/1 50/51/1 45/59/1
f 47/50/3 49/53/3 43/52/3
f 49/53/5 51/62/5 54/60/5
f 47/50/6 48/49/6 40/57/6
f 53/61/4 54/60/4 51/62/4
f 45/59/2 53/61/2 52/63/2
f 44/58/3 52/63/3 51/62/3
f 50/51/1 54/60/1 53/61/1
f 3/64/6 56/2/6 55/15/6
f 8/22/6 57/7/6 58/9/6
f 14/66/6 60/19/6 59/21/6
f 17/16/6 62/30/6 61/31/6
f 3/64/6 13/67/6 61/31/6
f 4/18/6 55/15/6 62/30/6
f 7/65/6 58/9/6 60/19/6
f 16/24/6 59/21/6 57/7/6
f 68/68/6 67/81/6 65/69/6
f 63/71/6 70/82/6 69/72/6
f 13/67/1 69/77/1 70/74/1
f 7/65/1 66/76/1 65/75/1
f 14/66/2 68/78/2 66/76/2
f 3/64/2 64/79/2 69/77/2
f 16/24/3 67/23/3 68/78/3
f 4/18/3 63/17/3 64/79/3
