# Blender v3.5.1 OBJ File: 'omaigat.blend'
# www.blender.org
mtllib meja.mtl
o Cube.012_Cube.095
v -1.795945 0.225543 -6.861239
v -1.795945 1.206901 -6.861239
v -1.795945 0.225543 -10.380426
v -1.795945 1.206901 -10.380426
v -0.122875 0.225543 -6.861239
v -0.122875 1.206901 -6.861239
v -0.122875 0.225543 -10.380426
v -0.122875 1.206901 -10.380426
v -1.795945 1.206901 -10.209558
v -1.795945 0.225543 -10.209558
v -0.180315 0.225543 -10.259604
v -0.180315 1.206901 -10.259604
v -0.204108 0.225543 -6.861239
v -0.204108 1.206901 -6.861239
v -1.795945 0.225543 -6.623398
v -1.795945 1.253799 -6.693060
v -1.795945 1.206901 -10.380426
v -0.122875 1.273225 -10.380426
v -0.180315 1.206187 -10.259604
v -0.122875 1.253799 -6.693060
v -0.122875 0.225543 -6.623398
v -1.795945 1.206187 -10.209558
v -1.420819 1.373277 -8.482354
v -1.012471 1.373277 -8.482354
v -1.420819 1.373277 -8.759311
v -1.012471 1.373277 -8.759311
v -1.382241 1.371802 -8.491753
v -0.973893 1.371802 -8.491753
v -1.382241 1.371802 -8.768709
v -0.973893 1.371802 -8.768709
v -1.278236 1.371802 -8.757288
v -0.869889 1.371802 -8.757288
v -1.278236 1.371802 -9.034245
v -0.869889 1.371802 -9.034245
v -1.289199 1.373277 -7.491210
v -1.015179 1.373277 -7.793965
v -1.494539 1.373277 -7.677060
v -1.220518 1.373277 -7.979815
v -1.206652 1.373277 -7.151542
v -0.798305 1.373277 -7.151542
v -1.206652 1.373277 -7.428498
v -0.798305 1.373277 -7.428498
v -1.079825 1.373277 -7.513432
v -0.671506 1.373277 -7.518248
v -1.083091 1.373277 -7.790369
v -0.674772 1.373277 -7.795185
vt 0.565461 0.568902
vt 0.565461 0.568902
vt 0.565461 0.568902
vt 0.565461 0.568902
vt 0.565461 0.568902
vt 0.565461 0.568902
vt 0.565461 0.568902
vt 0.565461 0.568902
vt 0.565461 0.568902
vt 0.565461 0.568902
vt 0.565461 0.568902
vt 0.565461 0.568902
vt 0.565461 0.568902
vt 0.565461 0.568902
vt 0.063461 0.933098
vt 0.063461 0.933098
vt 0.063461 0.933098
vt 0.063461 0.933098
vt 0.063461 0.933098
vt 0.565461 0.568902
vt 0.565461 0.568902
vt 0.565461 0.568902
vt 0.565461 0.568902
vt 0.565461 0.568902
vt 0.565461 0.568902
vt 0.565461 0.568902
vt 0.565461 0.568902
vt 0.057059 0.928176
vt 0.057059 0.928176
vt 0.057059 0.928176
vt 0.455706 0.928176
vt 0.455706 0.928176
vt 0.455706 0.928176
vt 0.199784 0.687019
vt 0.199784 0.687019
vt 0.199784 0.687019
vt 0.209628 0.928176
vt 0.209628 0.928176
vt 0.209628 0.928176
vt 0.057059 0.928176
vt 0.057059 0.928176
vt 0.057059 0.928176
vt 0.455706 0.938019
vt 0.455706 0.938019
vt 0.455706 0.938019
vt 0.063461 0.933098
vt 0.057059 0.928176
vt 0.455706 0.928176
vt 0.199784 0.687019
vt 0.209628 0.928176
vt 0.057059 0.928176
vt 0.455706 0.938019
vn -0.0001 -1.0000 -0.0042
vn 1.0000 0.0000 0.0000
vn 0.0000 -1.0000 0.0000
vn -1.0000 0.0000 0.0000
vn 0.0310 0.0000 0.9995
vn -0.0310 0.0000 -0.9995
vn 1.0000 0.0000 0.0070
vn 0.0000 1.0000 0.0000
vn 0.0000 0.0000 -1.0000
vn 0.0000 0.0676 0.9977
vn 0.0000 1.0000 0.0053
vn -0.9031 0.0000 -0.4294
vn 0.0000 0.0000 1.0000
vn 0.0349 -0.8808 -0.4721
vn -0.0396 0.9991 -0.0127
vn 0.9032 0.0000 0.4293
usemtl Material.018
s off
f 17/1/1 19/2/1 22/3/1
f 4/4/2 10/5/2 3/6/2
f 5/7/3 15/8/3 1/9/3
f 2/10/4 15/8/4 16/11/4
f 7/12/3 1/9/3 3/6/3
f 9/13/5 19/2/5 12/14/5
f 9/15/6 11/16/6 10/17/6
f 12/18/7 13/19/7 11/16/7
f 6/20/3 12/14/3 8/21/3
f 3/6/8 11/22/8 7/12/8
f 5/7/9 14/23/9 6/20/9
f 5/7/8 11/22/8 13/24/8
f 20/25/10 15/8/10 21/26/10
f 18/27/11 16/11/11 20/25/11
f 9/13/4 17/1/4 22/3/4
f 6/20/2 18/27/2 20/25/2
f 8/21/12 19/2/12 18/27/12
f 4/4/13 16/11/13 17/1/13
f 6/20/2 21/26/2 5/7/2
f 24/28/8 25/29/8 23/30/8
f 28/31/8 29/32/8 27/33/8
f 32/34/8 33/35/8 31/36/8
f 35/37/8 38/38/8 37/39/8
f 40/40/8 41/41/8 39/42/8
f 43/43/8 46/44/8 45/45/8
f 17/1/14 18/27/14 19/2/14
f 4/4/2 9/13/2 10/5/2
f 5/7/3 21/26/3 15/8/3
f 2/10/4 1/9/4 15/8/4
f 7/12/3 5/7/3 1/9/3
f 9/13/5 22/3/5 19/2/5
f 9/15/6 12/18/6 11/16/6
f 12/18/7 14/46/7 13/19/7
f 6/20/3 14/23/3 12/14/3
f 3/6/8 10/5/8 11/22/8
f 5/7/9 13/24/9 14/23/9
f 5/7/8 7/12/8 11/22/8
f 20/25/10 16/11/10 15/8/10
f 18/27/15 17/1/15 16/11/15
f 9/13/13 4/4/13 17/1/13
f 6/20/2 8/21/2 18/27/2
f 8/21/16 12/14/16 19/2/16
f 4/4/4 2/10/4 16/11/4
f 6/20/2 20/25/2 21/26/2
f 24/28/8 26/47/8 25/29/8
f 28/31/8 30/48/8 29/32/8
f 32/34/8 34/49/8 33/35/8
f 35/37/8 36/50/8 38/38/8
f 40/40/8 42/51/8 41/41/8
f 43/43/8 44/52/8 46/44/8
