# Blender v3.5.1 OBJ File: 'omaigat.blend'
# www.blender.org
mtllib sofaKecil.mtl
o Cube.019_Cube.102
v 0.033041 0.225026 -10.442110
v 0.033041 0.545008 -10.442110
v 0.033041 0.225026 -11.673037
v 0.033041 0.545008 -11.673037
v 1.809938 0.225026 -10.442110
v 1.809938 0.545008 -10.442110
v 1.809938 0.225026 -11.673037
v 1.809938 0.545008 -11.673037
v 1.515909 0.225026 -11.673037
v 0.327070 0.225026 -11.673037
v 0.327070 0.545008 -11.673037
v 1.515909 0.545008 -11.673037
v 0.327070 0.225026 -10.442110
v 1.515909 0.225026 -10.442110
v 1.515909 0.545008 -10.442110
v 0.327070 0.545008 -10.442110
v 0.033041 0.978014 -10.442110
v 0.033041 0.978014 -11.673037
v 1.515909 0.978014 -11.673037
v 1.809938 0.978014 -11.673037
v 1.809938 0.978014 -10.442110
v 0.327070 0.978014 -10.442110
v 0.327070 0.978014 -11.673037
v 1.515909 0.978014 -10.442110
v 1.515909 0.225026 -11.964828
v 0.327070 0.225026 -11.964828
v 0.327070 0.545008 -11.964828
v 1.515909 0.545008 -11.964828
v 0.327070 1.520466 -11.693087
v 1.515909 1.520466 -11.693087
v 0.327070 1.520466 -11.984878
v 1.515909 1.520466 -11.984878
v 0.338059 0.515427 -10.474234
v 0.338059 0.750802 -10.474234
v 0.338059 0.515427 -11.640913
v 0.338059 0.750802 -11.640913
v 1.504920 0.515427 -10.474234
v 1.504920 0.750802 -10.474234
v 1.504920 0.515427 -11.640913
v 1.504920 0.750802 -11.640913
vt 0.625000 0.000000
vt 0.375000 0.250000
vt 0.375000 0.000000
vt 0.625000 0.416667
vt 0.375000 0.500000
vt 0.375000 0.416667
vt 0.625000 0.500000
vt 0.375000 0.750000
vt 0.625000 0.916667
vt 0.375000 1.000000
vt 0.375000 0.916667
vt 0.291667 0.750000
vt 0.291667 0.500000
vt 0.625000 1.000000
vt 0.625000 1.000000
vt 0.625000 0.250000
vt 0.625000 0.250000
vt 0.791667 0.500000
vt 0.708333 0.750000
vt 0.708333 0.500000
vt 0.208333 0.500000
vt 0.125000 0.750000
vt 0.125000 0.500000
vt 0.208333 0.750000
vt 0.625000 0.750000
vt 0.375000 0.833333
vt 0.625000 0.833333
vt 0.625000 0.333333
vt 0.375000 0.333333
vt 0.791667 0.500000
vt 0.875000 0.500000
vt 0.791667 0.750000
vt 0.791667 0.500000
vt 0.708333 0.500000
vt 0.625000 0.750000
vt 0.625000 0.500000
vt 0.625000 0.833333
vt 0.625000 0.333333
vt 0.791667 0.750000
vt 0.625000 0.333333
vt 0.375000 0.416667
vt 0.375000 0.333333
vt 0.291667 0.500000
vt 0.625000 0.416667
vt 0.708333 0.500000
vt 0.791667 0.500000
vt 0.625000 0.416667
vt 0.625000 0.333333
vt 0.625000 0.333333
vt 0.625000 0.416667
vt 0.625000 0.000000
vt 0.375000 0.250000
vt 0.375000 0.000000
vt 0.625000 0.250000
vt 0.375000 0.500000
vt 0.625000 0.500000
vt 0.375000 0.750000
vt 0.625000 0.750000
vt 0.375000 1.000000
vt 0.125000 0.750000
vt 0.125000 0.500000
vt 0.875000 0.500000
vt 0.625000 0.916667
vt 0.625000 0.000000
vt 0.875000 0.750000
vt 0.708333 0.750000
vt 0.625000 0.416667
vt 0.208333 0.500000
vt 0.708333 0.500000
vt 0.625000 1.000000
vt 0.875000 0.750000
vn -1.0000 0.0000 0.0000
vn 0.0000 0.0000 -1.0000
vn 1.0000 0.0000 0.0000
vn 0.0000 0.0000 1.0000
vn 0.0000 -1.0000 0.0000
vn 0.0000 1.0000 0.0000
vn 0.0000 0.0206 0.9998
vn 0.0000 -0.0206 -0.9998
usemtl None
s off
f 2/1/1 3/2/1 1/3/1
f 12/4/2 7/5/2 9/6/2
f 8/7/3 5/8/3 7/5/3
f 16/9/4 1/10/4 13/11/4
f 7/5/5 14/12/5 9/13/5
f 16/9/4 17/14/4 2/15/4
f 2/1/1 18/16/1 4/17/1
f 11/18/6 15/19/6 12/20/6
f 10/21/5 1/22/5 3/23/5
f 9/13/5 13/24/5 10/21/5
f 6/25/4 14/26/4 5/8/4
f 15/27/4 13/11/4 14/26/4
f 3/2/2 11/28/2 10/29/2
f 12/20/7 29/30/7 11/18/7
f 18/31/6 22/32/6 23/33/6
f 19/34/6 21/35/6 20/36/6
f 15/19/1 19/34/1 12/20/1
f 15/27/4 21/35/4 24/37/4
f 12/4/2 20/36/2 8/7/2
f 4/17/2 23/38/2 11/28/2
f 11/18/3 22/32/3 16/39/3
f 8/7/3 21/35/3 6/25/3
f 27/40/2 25/41/2 26/42/2
f 11/28/1 26/42/1 10/29/1
f 10/21/5 25/43/5 9/13/5
f 9/6/3 28/44/3 12/4/3
f 30/45/6 31/46/6 29/30/6
f 28/44/3 30/47/3 12/4/3
f 27/40/1 29/48/1 31/49/1
f 27/40/8 32/50/8 28/44/8
f 34/51/1 35/52/1 33/53/1
f 36/54/2 39/55/2 35/52/2
f 40/56/3 37/57/3 39/55/3
f 38/58/4 33/59/4 37/57/4
f 39/55/5 33/60/5 35/61/5
f 36/62/6 38/58/6 40/56/6
f 2/1/1 4/17/1 3/2/1
f 12/4/2 8/7/2 7/5/2
f 8/7/3 6/25/3 5/8/3
f 16/9/4 2/15/4 1/10/4
f 7/5/5 5/8/5 14/12/5
f 16/9/4 22/63/4 17/14/4
f 2/1/1 17/64/1 18/16/1
f 11/18/6 16/39/6 15/19/6
f 10/21/5 13/24/5 1/22/5
f 9/13/5 14/12/5 13/24/5
f 6/25/4 15/27/4 14/26/4
f 15/27/4 16/9/4 13/11/4
f 3/2/2 4/17/2 11/28/2
f 12/20/7 30/45/7 29/30/7
f 18/31/6 17/65/6 22/32/6
f 19/34/6 24/66/6 21/35/6
f 15/19/1 24/66/1 19/34/1
f 15/27/4 6/25/4 21/35/4
f 12/4/2 19/67/2 20/36/2
f 4/17/2 18/16/2 23/38/2
f 11/18/3 23/33/3 22/32/3
f 8/7/3 20/36/3 21/35/3
f 27/40/2 28/44/2 25/41/2
f 11/28/1 27/40/1 26/42/1
f 10/21/5 26/68/5 25/43/5
f 9/6/3 25/41/3 28/44/3
f 30/45/6 32/69/6 31/46/6
f 28/44/3 32/50/3 30/47/3
f 27/40/1 11/28/1 29/48/1
f 27/40/8 31/49/8 32/50/8
f 34/51/1 36/54/1 35/52/1
f 36/54/2 40/56/2 39/55/2
f 40/56/3 38/58/3 37/57/3
f 38/58/4 34/70/4 33/59/4
f 39/55/5 37/57/5 33/60/5
f 36/62/6 34/71/6 38/58/6
