# Blender v3.5.1 OBJ File: 'omaigat.blend'
# www.blender.org
mtllib sofa.mtl
o Cube.013_Cube.096
v 3.345822 0.570998 -10.680760
v 3.345822 0.461997 -10.680760
v 3.345822 0.570998 -7.178420
v 3.345822 0.461997 -7.178420
v 2.097198 0.570998 -10.680760
v 2.097198 0.461997 -10.680760
v 2.097198 0.570998 -7.178420
v 2.097198 0.461997 -7.178420
v 3.345822 0.570998 -10.896173
v 3.345822 0.461997 -10.896173
v 2.097198 0.461997 -10.896173
v 2.097198 0.570998 -10.896173
v 3.345822 0.461997 -7.029056
v 3.345822 0.570998 -7.029056
v 2.097198 0.570998 -7.029056
v 2.097198 0.461997 -7.029056
v 2.097198 1.179148 -7.178420
v 3.345822 1.179148 -7.178420
v 3.345822 1.179148 -10.680760
v 2.097198 1.179148 -10.680760
v 3.345822 1.179148 -10.896173
v 2.097198 1.179148 -10.896173
v 2.097198 1.179148 -7.029056
v 3.345822 1.179148 -7.029056
v 2.097198 0.570998 -7.362753
v 3.345822 0.570998 -7.362753
v 3.345822 0.570998 -10.496427
v 2.097198 0.570998 -10.496427
v 2.097198 1.179148 -7.362753
v 3.345822 1.179148 -7.362753
v 3.345822 1.179148 -10.496427
v 2.097198 1.179148 -10.496427
v 3.598271 0.570998 -7.178420
v 3.598271 0.570998 -10.680760
v 3.468005 0.461997 -10.680760
v 3.468005 0.461997 -7.178420
v 3.345822 1.644140 -7.178420
v 3.345822 1.644140 -10.680760
v 3.598271 1.644140 -7.178420
v 3.598271 1.644140 -10.680760
v 3.280211 0.565271 -10.517503
v 3.280211 0.565271 -8.955506
v 2.162809 0.565271 -10.517503
v 2.162809 0.565271 -8.955506
v 3.280211 0.810419 -8.955506
v 3.280211 0.810419 -10.517503
v 2.162809 0.810419 -8.955506
v 2.162809 0.810419 -10.517503
v 3.280211 0.565271 -8.913481
v 3.280211 0.565271 -7.309248
v 2.162809 0.565271 -8.913481
v 2.162809 0.565271 -7.309248
v 3.280211 0.810419 -7.309248
v 3.280211 0.810419 -8.913481
v 2.162809 0.810419 -7.309248
v 2.162809 0.810419 -8.913481
v 3.168775 0.835481 -10.495335
v 3.168775 0.835481 -8.933337
v 3.168774 1.611602 -10.495335
v 3.168774 1.611602 -8.933337
v 3.521720 0.835482 -8.933337
v 3.521720 0.835482 -10.495335
v 3.521720 1.611602 -8.933337
v 3.521720 1.611602 -10.495335
v 3.168775 0.835481 -8.891313
v 3.168775 0.835481 -7.287080
v 3.168774 1.611602 -8.891313
v 3.168774 1.611602 -7.287080
v 3.521720 0.835482 -7.287080
v 3.521720 0.835482 -8.891313
v 3.521720 1.611602 -7.287080
v 3.521720 1.611602 -8.891313
vt 0.875000 0.500000
vt 0.875000 0.750000
vt 0.875000 0.750000
vt 0.375000 0.500000
vt 0.625000 0.500000
vt 0.625000 0.500000
vt 0.375000 0.750000
vt 0.625000 0.750000
vt 0.625000 0.750000
vt 0.125000 0.500000
vt 0.125000 0.750000
vt 0.375000 0.750000
vt 0.375000 1.000000
vt 0.375000 0.000000
vt 0.625000 0.000000
vt 0.625000 0.000000
vt 0.375000 0.250000
vt 0.375000 0.250000
vt 0.375000 0.250000
vt 0.625000 0.250000
vt 0.375000 0.500000
vt 0.375000 0.000000
vt 0.375000 0.000000
vt 0.875000 0.500000
vt 0.625000 0.250000
vt 0.375000 0.750000
vt 0.125000 0.750000
vt 0.125000 0.750000
vt 0.125000 0.500000
vt 0.375000 0.500000
vt 0.375000 0.500000
vt 0.125000 0.500000
vt 0.375000 0.750000
vt 0.375000 0.250000
vt 0.375000 0.250000
vt 0.125000 0.500000
vt 0.375000 0.500000
vt 0.375000 0.500000
vt 0.375000 0.750000
vt 0.125000 0.750000
vt 0.125000 0.750000
vt 0.375000 0.750000
vt 0.375000 0.000000
vt 0.375000 0.000000
vt 0.625000 0.000000
vt 0.375000 0.000000
vt 0.375000 0.250000
vt 0.125000 0.500000
vt 0.625000 0.250000
vt 0.125000 0.750000
vt 0.125000 0.500000
vt 0.375000 0.000000
vt 0.375000 0.000000
vt 0.375000 0.250000
vt 0.125000 0.750000
vt 0.125000 0.500000
vt 0.375000 0.500000
vt 0.375000 0.500000
vt 0.125000 0.500000
vt 0.125000 0.750000
vt 0.375000 0.750000
vt 0.375000 0.750000
vt 0.125000 0.750000
vt 0.125000 0.500000
vt 0.375000 0.500000
vt 0.375000 0.500000
vt 0.125000 0.500000
vt 0.125000 0.750000
vt 0.375000 0.750000
vt 0.375000 0.750000
vt 0.125000 0.750000
vt 0.125000 0.500000
vt 0.375000 0.500000
vt 0.375000 0.500000
vt 0.125000 0.500000
vt 0.125000 0.750000
vt 0.375000 0.750000
vt 0.375000 0.750000
vt 0.125000 0.750000
vt 0.125000 0.500000
vt 0.375000 0.500000
vt 0.375000 0.500000
vt 0.125000 0.500000
vt 0.125000 0.750000
vt 0.375000 0.750000
vt 0.375000 0.750000
vt 0.875000 0.500000
vt 0.875000 0.750000
vt 0.625000 1.000000
vt 0.125000 0.500000
vt 0.375000 1.000000
vt 0.375000 0.250000
vt 0.375000 0.000000
vt 0.125000 0.750000
vt 0.375000 0.250000
vn 0.0000 -1.0000 0.0000
vn -1.0000 0.0000 0.0000
vn 0.0000 1.0000 0.0000
vn 0.0000 0.0000 -1.0000
vn 1.0000 0.0000 0.0000
vn 0.0000 0.0000 1.0000
vn 0.6417 -0.7669 0.0000
usemtl None
s off
f 4/1/1 2/2/1 35/3/1
f 7/4/2 8/5/2 16/6/2
f 8/5/2 7/4/2 5/7/2
f 2/2/1 6/8/1 11/9/1
f 7/4/3 3/10/3 1/11/3
f 4/1/1 8/5/1 6/8/1
f 11/9/4 12/12/4 9/13/4
f 6/8/2 5/7/2 12/12/2
f 1/14/5 2/15/5 10/16/5
f 14/17/5 3/18/5 18/19/5
f 13/20/6 14/17/6 15/21/6
f 1/14/5 9/22/5 21/23/5
f 8/5/1 4/1/1 13/24/1
f 4/25/5 3/18/5 14/17/5
f 20/26/3 19/27/3 21/28/3
f 18/29/3 17/30/3 23/31/3
f 17/30/3 18/29/3 30/32/3
f 7/4/2 15/21/2 23/31/2
f 12/12/2 5/7/2 20/26/2
f 9/13/4 12/12/4 22/33/4
f 15/21/6 14/17/6 24/34/6
f 18/19/5 3/18/5 26/35/5
f 26/36/4 25/37/4 29/38/4
f 28/39/6 27/40/6 31/41/6
f 3/10/1 7/4/1 25/37/1
f 7/4/2 17/30/2 29/38/2
f 19/27/3 20/26/3 32/42/3
f 1/14/5 19/43/5 31/44/5
f 20/26/2 5/7/2 28/39/2
f 5/7/1 1/11/1 27/40/1
f 35/45/7 34/46/7 33/47/7
f 1/11/2 3/10/2 37/48/2
f 3/18/6 4/25/6 36/49/6
f 1/14/4 34/46/4 35/45/4
f 38/50/3 37/48/3 39/51/3
f 34/46/4 1/14/4 38/52/4
f 33/47/5 34/46/5 40/53/5
f 3/18/6 33/47/6 39/54/6
f 41/55/1 42/56/1 44/57/1
f 47/58/3 45/59/3 46/60/3
f 43/61/2 44/57/2 47/58/2
f 42/56/5 41/55/5 46/60/5
f 41/55/4 43/61/4 48/62/4
f 44/57/6 42/56/6 45/59/6
f 49/63/1 50/64/1 52/65/1
f 55/66/3 53/67/3 54/68/3
f 51/69/2 52/65/2 55/66/2
f 50/64/5 49/63/5 54/68/5
f 49/63/4 51/69/4 56/70/4
f 52/65/6 50/64/6 53/67/6
f 57/71/2 58/72/2 60/73/2
f 63/74/5 61/75/5 62/76/5
f 59/77/3 60/73/3 63/74/3
f 58/72/1 57/71/1 62/76/1
f 57/71/4 59/77/4 64/78/4
f 60/73/6 58/72/6 61/75/6
f 65/79/2 66/80/2 68/81/2
f 71/82/5 69/83/5 70/84/5
f 67/85/3 68/81/3 71/82/3
f 66/80/1 65/79/1 70/84/1
f 65/79/4 67/85/4 72/86/4
f 68/81/6 66/80/6 69/83/6
f 4/1/1 35/3/1 36/87/1
f 7/4/2 16/6/2 15/21/2
f 8/5/2 5/7/2 6/8/2
f 2/2/1 11/9/1 10/88/1
f 7/4/3 1/11/3 5/7/3
f 4/1/1 6/8/1 2/2/1
f 11/9/4 9/13/4 10/89/4
f 6/8/2 12/12/2 11/9/2
f 1/14/5 10/16/5 9/22/5
f 14/17/5 18/19/5 24/34/5
f 13/20/6 15/21/6 16/6/6
f 1/14/5 21/23/5 19/43/5
f 8/5/1 13/24/1 16/6/1
f 4/25/5 14/17/5 13/20/5
f 20/26/3 21/28/3 22/33/3
f 18/29/3 23/31/3 24/90/3
f 17/30/3 30/32/3 29/38/3
f 7/4/2 23/31/2 17/30/2
f 12/12/2 20/26/2 22/33/2
f 9/13/4 22/33/4 21/91/4
f 15/21/6 24/34/6 23/31/6
f 18/19/5 26/35/5 30/92/5
f 26/36/4 29/38/4 30/32/4
f 28/39/6 31/41/6 32/42/6
f 3/10/1 25/37/1 26/36/1
f 7/4/2 29/38/2 25/37/2
f 19/27/3 32/42/3 31/41/3
f 1/14/5 31/44/5 27/93/5
f 20/26/2 28/39/2 32/42/2
f 5/7/1 27/40/1 28/39/1
f 35/45/7 33/47/7 36/49/7
f 1/11/2 37/48/2 38/50/2
f 3/18/6 36/49/6 33/47/6
f 1/14/4 35/45/4 2/15/4
f 38/50/3 39/51/3 40/94/3
f 34/46/4 38/52/4 40/53/4
f 33/47/5 40/53/5 39/54/5
f 3/18/6 39/54/6 37/95/6
f 41/55/1 44/57/1 43/61/1
f 47/58/3 46/60/3 48/62/3
f 43/61/2 47/58/2 48/62/2
f 42/56/5 46/60/5 45/59/5
f 41/55/4 48/62/4 46/60/4
f 44/57/6 45/59/6 47/58/6
f 49/63/1 52/65/1 51/69/1
f 55/66/3 54/68/3 56/70/3
f 51/69/2 55/66/2 56/70/2
f 50/64/5 54/68/5 53/67/5
f 49/63/4 56/70/4 54/68/4
f 52/65/6 53/67/6 55/66/6
f 57/71/2 60/73/2 59/77/2
f 63/74/5 62/76/5 64/78/5
f 59/77/3 63/74/3 64/78/3
f 58/72/1 62/76/1 61/75/1
f 57/71/4 64/78/4 62/76/4
f 60/73/6 61/75/6 63/74/6
f 65/79/2 68/81/2 67/85/2
f 71/82/5 70/84/5 72/86/5
f 67/85/3 71/82/3 72/86/3
f 66/80/1 70/84/1 69/83/1
f 65/79/4 72/86/4 70/84/4
f 68/81/6 69/83/6 71/82/6
