# Blender v3.5.1 OBJ File: 'omaigat.blend'
# www.blender.org
mtllib dinding3.mtl
o Wall.006_Cube.042
v 4.360000 -0.215920 -11.876667
v 4.400000 -0.189045 -11.876667
v 4.360000 -0.189045 -11.833334
v 4.400000 5.132137 -11.876667
v 4.360000 5.159012 -11.876667
v 4.360000 5.132137 -11.833334
v -3.960000 -0.215920 -11.876667
v -3.960000 -0.189045 -11.833334
v -4.000000 -0.189045 -11.876667
v -3.960000 5.159012 -11.876667
v -4.000000 5.132137 -11.876667
v -3.960000 5.132137 -11.833334
v 4.360000 -0.189045 -20.933334
v 4.400000 -0.189045 -20.889999
v 4.360000 -0.215920 -20.889999
v 4.360000 5.132137 -20.933334
v 4.360000 5.159012 -20.889999
v 4.400000 5.132137 -20.889999
v 3.960000 -0.189045 -12.266667
v 4.000000 -0.189045 -12.310000
v 4.039999 -0.215920 -12.310000
v 3.960000 -0.215920 -12.223334
v 4.000000 5.132137 -12.310000
v 3.960000 5.132137 -12.266667
v 3.960000 5.159012 -12.223334
v 4.039999 5.159012 -12.310000
v -3.960000 -0.215920 -12.223334
v -4.000000 -0.189045 -12.223334
v -3.960000 -0.189045 -12.266667
v -3.960000 5.159012 -12.223334
v -3.960000 5.132137 -12.266667
v -4.000000 5.132137 -12.223334
v 4.039999 -0.189045 -20.933334
v 4.039999 -0.215920 -20.889999
v 4.000000 -0.189045 -20.889999
v 4.039999 5.132137 -20.933334
v 4.000000 5.132137 -20.889999
v 4.039999 5.159012 -20.889999
v 4.400000 4.401252 -15.280495
v 4.400000 4.401252 -18.001112
v 4.400000 1.463075 -15.280495
v 4.400000 1.463075 -18.001112
v 4.000000 1.463075 -15.280495
v 4.000000 1.463075 -18.001112
v 4.000000 4.401252 -15.280495
v 4.000000 4.401252 -18.001112
vt 0.376250 0.998809
vt 0.376250 0.751190
vt 0.453094 0.905298
vt 0.623750 0.751190
vt 0.589755 0.905298
vt 0.589755 0.830555
vt 0.375000 0.751209
vt 0.375000 0.997563
vt 0.375000 0.751231
vt 0.589755 0.913063
vt 0.623750 0.751250
vt 0.589755 0.834583
vt 0.453094 0.913063
vt 0.453094 0.834583
vt 0.376250 0.751250
vt 0.623750 0.001190
vt 0.376250 0.248810
vt 0.376250 0.001190
vt 0.625000 0.751209
vt 0.625000 0.751231
vt 0.625000 0.997564
vt 0.376250 0.750000
vt 0.623750 0.750000
vt 0.623750 0.750000
vt 0.376250 0.248750
vt 0.623750 0.001250
vt 0.376250 0.001250
vt 0.625000 0.248791
vt 0.625000 0.002437
vt 0.625000 0.248769
vt 0.623750 0.250000
vt 0.376250 0.250000
vt 0.376250 0.250000
vt 0.375000 1.000000
vt 0.375000 0.998810
vt 0.375000 1.000000
vt 0.623750 0.998810
vt 0.625000 0.998810
vt 0.623750 1.000000
vt 0.375000 0.248791
vt 0.623750 0.248810
vt 0.375000 0.000000
vt 0.375000 0.001250
vt 0.375000 0.001250
vt 0.623750 0.000000
vt 0.625000 0.000000
vt 0.623750 0.000000
vt 0.375000 0.248769
vt 0.623750 0.248750
vt 0.623750 0.250000
vt 0.376250 0.750000
vt 0.375000 0.000000
vt 0.623750 0.000000
vt 0.376250 0.000000
vt 0.625000 0.000000
vt 0.625000 1.000000
vt 0.376250 0.000000
vt 0.376250 0.998750
vt 0.623750 0.998750
vt 0.375000 0.002437
vt 0.625000 0.099579
vt 0.375000 0.149579
vt 0.625000 0.149579
vt 0.625000 0.600421
vt 0.375000 0.650421
vt 0.625000 0.650421
vt 0.125000 0.650421
vt 0.375000 0.600421
vt 0.125000 0.600421
vt 0.875000 0.650421
vt 0.453094 0.830556
vt 0.625000 1.002354
vt 0.375000 0.000000
vt 0.625000 0.001250
vt 0.375000 -0.002354
vt 0.375000 0.099579
vt 0.875000 0.600421
vn 1.0000 -0.0000 0.0000
vn 0.0000 -1.0000 0.0000
vn -1.0000 0.0000 0.0000
vn 0.0000 0.0000 1.0000
vn 0.0000 1.0000 0.0000
vn 0.0000 0.0000 -1.0000
vn -0.1350 -0.9767 -0.1671
vn 0.9828 -0.1685 -0.0750
vn -0.0210 -0.1874 0.9821
vn 0.9828 0.1686 -0.0751
vn -0.1351 0.9767 -0.1670
vn -0.0209 0.1873 0.9821
vn 0.1351 -0.9767 -0.1670
vn 0.0209 -0.1873 0.9821
vn -0.9828 -0.1686 -0.0751
vn 0.1350 0.9767 -0.1671
vn -0.9828 0.1685 -0.0750
vn 0.0210 0.1874 0.9821
vn -0.0209 -0.1873 -0.9821
vn 0.9828 -0.1686 0.0751
vn -0.1351 -0.9766 0.1671
vn -0.0210 0.1874 -0.9821
vn -0.1350 0.9766 0.1672
vn 0.9828 0.1685 0.0750
vn -0.9941 -0.0571 -0.0924
vn 0.2772 -0.9607 -0.0126
vn -0.0156 -0.1596 -0.9871
vn -0.1697 0.0582 -0.9838
vn -0.0144 0.9555 0.2948
vn -0.9863 0.1551 0.0570
vn 0.1350 -0.9767 0.1671
vn -0.9828 -0.1685 0.0750
vn 0.0210 -0.1874 -0.9821
vn 0.1351 0.9767 0.1670
vn 0.0209 0.1873 -0.9821
vn -0.9828 0.1686 0.0751
vn 0.1350 -0.9766 0.1672
vn 0.1351 0.9766 0.1671
vn -0.7071 -0.5987 0.3764
vn 0.0029 -0.2282 0.9736
vn 0.0000 -0.9736 -0.2282
vn 0.5143 -0.7071 0.4854
vn 0.0400 0.0053 0.9992
vn 0.9992 0.0000 -0.0400
vn 0.7071 0.5986 0.3764
vn -0.0029 0.2282 0.9736
vn -0.0000 0.9736 -0.2283
vn -0.5143 0.7071 0.4854
vn -0.0400 -0.0053 0.9992
vn -0.9992 -0.0000 -0.0400
vn 0.5143 0.7071 -0.4854
vn 0.0400 -0.0053 -0.9992
vn 0.9992 -0.0000 0.0400
vn 0.3975 -0.5848 0.7071
vn 0.9813 -0.1926 -0.0026
vn -0.1926 -0.9813 -0.0000
vn 0.3975 0.5848 -0.7071
vn 0.9813 0.1926 0.0026
vn -0.1926 0.9813 0.0000
vn -0.7071 -0.6033 -0.3688
vn 0.0033 -0.9736 0.2283
vn 0.0000 -0.2282 -0.9736
vn -0.5143 -0.7071 -0.4854
vn -0.9992 0.0000 0.0400
vn -0.0400 -0.0000 -0.9992
vn 0.7071 0.6033 -0.3688
vn -0.0031 0.9736 0.2283
vn -0.0000 0.2282 -0.9736
vn -0.5249 0.7071 -0.4739
vn -0.9992 -0.0053 0.0400
vn -0.0399 -0.0000 -0.9992
vn -0.5249 0.7071 -0.4738
vn -0.3910 -0.5891 0.7071
vn 0.1926 -0.9813 -0.0027
vn -0.9813 -0.1926 -0.0000
vn -0.3910 0.5891 -0.7071
vn 0.1926 0.9813 0.0027
vn -0.9813 0.1926 0.0000
vn -0.9156 -0.2367 -0.3250
vn 0.1901 -0.9796 -0.0651
vn 0.1270 0.9372 -0.3250
vn -0.9788 0.1942 -0.0651
vn 0.1926 0.9813 -0.0000
vn -0.3208 -0.9330 0.1629
vn -0.0744 -0.2303 -0.9703
vn -0.0000 -0.9736 0.2283
vn -0.3208 0.2688 -0.9082
vn -0.0744 0.9715 0.2250
vn -0.9010 -0.3423 0.2666
vn 0.1688 -0.9769 0.1310
vn 0.0438 -0.9671 0.2505
vn 0.2077 0.3570 -0.9107
vn 0.1310 0.9765 0.1712
vn 0.2504 0.9677 0.0277
vn -0.0029 -0.9736 -0.2282
vn -0.0000 -0.2282 0.9736
vn 0.7071 -0.6032 0.3690
vn 0.9992 -0.0053 -0.0400
vn 0.0399 -0.0000 0.9992
vn 0.5249 0.7071 0.4738
vn 0.0029 0.9736 -0.2282
vn 0.0000 0.2282 0.9736
vn -0.7071 0.6032 0.3690
vn -0.9992 0.0053 -0.0400
vn -0.0399 0.0000 0.9992
vn -0.5249 -0.7071 0.4738
vn 0.9992 0.0053 0.0400
vn 0.0400 0.0000 -0.9992
vn 0.5249 -0.7071 -0.4738
vn -0.1926 -0.9813 0.0026
vn 0.9813 -0.1926 0.0000
vn 0.3912 -0.5890 -0.7071
vn -0.1926 0.9813 -0.0026
vn 0.9813 0.1926 -0.0000
vn 0.3912 0.5890 0.7071
vn -0.0031 -0.2282 -0.9736
vn 0.7071 -0.5985 -0.3765
vn 0.0031 0.2282 -0.9736
vn 0.0000 0.9736 0.2283
vn -0.7071 0.5985 -0.3765
vn -0.0400 0.0053 -0.9992
vn -0.9813 -0.1926 0.0027
vn 0.1926 -0.9813 0.0000
vn -0.3976 -0.5847 -0.7071
vn -0.9813 0.1926 -0.0027
vn -0.3976 0.5847 0.7071
vn -0.9788 -0.1942 0.0651
vn 0.1270 -0.9372 0.3250
vn 0.1901 0.9796 0.0651
vn -0.9156 0.2367 0.3250
vn 0.0744 -0.9715 0.2249
vn 0.3208 -0.2688 -0.9082
vn 0.0744 0.2303 -0.9703
vn 0.3208 0.9330 0.1629
usemtl White.008
s off
f 2/1/1 14/2/1 41/3/1
f 18/4/1 39/5/1 40/6/1
f 15/7/2 21/8/2 34/9/2
f 45/10/3 37/11/3 46/12/3
f 43/13/3 44/14/3 35/15/3
f 6/16/4 8/17/4 3/18/4
f 17/19/5 38/20/5 26/21/5
f 13/22/6 36/23/6 16/24/6
f 29/25/6 24/26/6 19/27/6
f 10/28/5 25/29/5 30/30/5
f 11/31/3 28/32/3 9/33/3
f 1/34/7 2/35/8 3/36/9
f 4/37/10 5/38/11 6/39/12
f 7/40/13 8/17/14 9/33/15
f 10/28/16 11/31/17 12/41/18
f 13/22/19 14/2/20 15/7/21
f 16/24/22 17/19/23 18/4/24
f 20/42/25 22/43/26 19/44/27
f 24/45/28 26/46/29 23/47/30
f 27/48/31 28/32/32 29/25/33
f 30/30/34 31/49/35 32/50/36
f 33/51/33 34/9/37 35/15/32
f 36/23/35 37/11/36 38/20/38
f 1/52/39 8/17/40 7/40/41
f 4/53/42 3/18/43 2/54/44
f 10/28/45 6/16/46 5/55/47
f 9/33/48 12/41/49 11/31/50
f 14/2/51 16/24/52 18/4/53
f 15/7/54 2/1/55 1/34/56
f 5/56/57 18/4/58 17/19/59
f 19/27/60 27/48/61 29/25/62
f 24/26/63 20/57/64 19/27/65
f 31/49/66 25/29/67 24/26/68
f 29/25/69 32/50/70 31/49/71
f 33/51/72 37/11/70 36/23/65
f 35/15/73 21/8/74 20/58/75
f 23/59/76 38/20/77 37/11/78
f 28/32/79 7/40/80 9/33/75
f 30/30/81 11/31/82 10/28/83
f 34/9/84 13/22/85 15/7/86
f 36/23/87 17/19/88 16/24/68
f 7/40/2 27/48/2 22/60/2
f 39/61/6 43/62/6 45/63/6
f 46/64/4 42/65/4 40/66/4
f 41/67/5 44/68/5 43/69/5
f 39/70/2 46/64/2 40/66/2
f 39/5/1 4/37/1 41/3/1
f 4/37/1 2/1/1 41/3/1
f 14/2/1 18/4/1 42/71/1
f 18/4/1 40/6/1 42/71/1
f 14/2/1 42/71/1 41/3/1
f 18/4/1 4/37/1 39/5/1
f 15/7/2 1/34/2 21/8/2
f 45/10/3 23/59/3 37/11/3
f 46/12/3 37/11/3 44/14/3
f 37/11/3 35/15/3 44/14/3
f 20/58/3 23/59/3 43/13/3
f 23/59/3 45/10/3 43/13/3
f 20/58/3 43/13/3 35/15/3
f 6/16/4 12/41/4 8/17/4
f 26/21/5 25/72/5 5/56/5
f 5/56/5 17/19/5 26/21/5
f 13/22/6 33/51/6 36/23/6
f 29/25/6 31/49/6 24/26/6
f 10/28/5 5/55/5 25/29/5
f 11/31/3 32/50/3 28/32/3
f 20/42/89 21/73/90 22/43/91
f 24/45/92 25/74/93 26/46/94
f 1/52/95 3/18/96 8/17/97
f 4/53/98 6/16/99 3/18/100
f 10/28/101 12/41/102 6/16/103
f 9/33/104 8/17/105 12/41/106
f 14/2/107 13/22/108 16/24/109
f 15/7/110 14/2/111 2/1/112
f 5/56/113 4/37/114 18/4/115
f 19/27/116 22/60/86 27/48/117
f 24/26/71 23/47/64 20/57/69
f 31/49/118 30/30/119 25/29/120
f 29/25/121 28/32/64 32/50/63
f 33/51/121 35/15/64 37/11/63
f 35/15/122 34/9/123 21/8/124
f 23/59/125 26/21/83 38/20/126
f 28/32/127 27/48/123 7/40/128
f 30/30/129 32/50/78 11/31/130
f 34/9/131 33/51/62 13/22/132
f 36/23/133 38/20/119 17/19/134
f 22/60/2 21/75/2 1/52/2
f 1/52/2 7/40/2 22/60/2
f 39/61/6 41/76/6 43/62/6
f 46/64/4 44/68/4 42/65/4
f 41/67/5 42/65/5 44/68/5
f 39/70/2 45/77/2 46/64/2
