# Blender v3.5.1 OBJ File: 'omaigat.blend'
# www.blender.org
mtllib jendela.mtl
o Cube.006_Cube.088
v -2.366700 2.737007 -20.633226
v -0.121845 2.737007 -20.643867
v -0.249854 4.207543 -20.644627
v -0.158196 3.844167 -20.644627
v -0.425469 4.414802 -20.644627
v -0.816113 4.620638 -20.644627
v -0.480884 4.458502 -20.644627
v -0.219864 4.150446 -20.644627
v -0.743710 4.596988 -20.644627
v -1.204507 4.669268 -20.644627
v -1.942302 4.485824 -20.644627
v -1.676757 4.625743 -20.644627
v -2.275156 4.153858 -20.634798
v -2.016085 4.459612 -20.641394
v -2.337986 3.845365 -20.632465
v -2.246328 4.208741 -20.634798
v -1.746355 4.603010 -20.644627
v -1.285558 4.675290 -20.644627
v -1.323223 4.672364 -20.644627
v -1.165322 4.672364 -20.644627
vt 0.000000 0.000000
vt 0.000000 0.000000
vt 0.000000 0.000000
vt 0.000000 0.000000
vt 0.000000 0.000000
vt 0.000000 0.000000
vt 0.000000 0.000000
vt 0.000000 0.000000
vt 0.000000 0.000000
vt 0.000000 0.000000
vt 0.000000 0.000000
vt 0.000000 0.000000
vt 0.000000 0.000000
vt 0.000000 0.000000
vt 0.000000 0.000000
vt 0.000000 0.000000
vt 0.000000 0.000000
vt 0.000000 0.000000
vt 0.000000 0.000000
vt 0.000000 0.000000
vn 0.0000 0.0000 -1.0000
vn 0.0056 -0.0008 1.0000
vn -0.0056 -0.0071 -1.0000
vn -0.0276 -0.0019 -0.9996
vn -0.0619 0.0325 -0.9976
vn -0.0511 0.0206 -0.9985
vn -0.0001 0.0000 -1.0000
vn 0.0056 -0.0224 -0.9997
vn 0.0001 0.0000 -1.0000
vn 0.0047 0.0008 1.0000
usemtl Material.012
s off
f 10/1/1 9/2/1 5/3/1
f 1/4/2 4/5/2 15/6/2
f 8/7/1 4/5/1 10/1/1
f 4/5/3 15/6/3 10/1/3
f 15/6/4 13/8/4 11/9/4
f 13/8/5 16/10/5 11/9/5
f 16/10/6 14/11/6 11/9/6
f 11/9/1 17/12/1 12/13/1
f 12/13/1 19/14/1 11/9/1
f 19/14/1 18/15/1 10/1/1
f 10/1/7 20/16/7 6/17/7
f 19/14/1 10/1/1 11/9/1
f 10/1/8 15/6/8 11/9/8
f 5/3/7 3/18/7 8/7/7
f 9/2/9 7/19/9 5/3/9
f 10/1/1 6/17/1 9/2/1
f 5/3/1 8/7/1 10/1/1
f 1/4/10 2/20/10 4/5/10
