# Blender v3.5.1 OBJ File: 'omaigat.blend'
# www.blender.org
mtllib kertas.mtl
o Plane.007_Plane.008
v 0.953776 1.655758 -18.116381
v 2.151164 1.717598 -18.109924
v 1.001334 1.729139 -19.295158
v 1.777440 1.967269 -19.197912
v 0.999633 1.688659 -18.717346
v 1.540295 1.666319 -18.089033
v 2.163229 1.768990 -18.710213
v 1.564352 1.764182 -19.289921
v 1.560895 1.718222 -18.699324
v 0.966963 1.725841 -18.430569
v 1.855764 1.674398 -18.109924
v 2.087113 1.854468 -19.028807
v 1.267326 1.767200 -19.291082
v 1.032303 1.688272 -19.004124
v 1.203528 1.665479 -18.089302
v 2.151164 1.683812 -18.405323
v 1.711115 1.851083 -19.278473
v 1.563279 1.748312 -18.996281
v 1.552184 1.689777 -18.383728
v 1.270814 1.699723 -18.692097
v 1.859110 1.725973 -18.702225
v 1.855764 1.674939 -18.405323
v 1.236199 1.688225 -18.376080
v 1.282876 1.713425 -18.986870
v 1.829505 1.796477 -19.003937
vt 0.750000 0.750000
vt 1.000000 1.000000
vt 0.750000 1.000000
vt 0.500000 0.750000
vt 0.250000 1.000000
vt 0.250000 0.750000
vt 0.500000 0.250000
vt 0.250000 0.500000
vt 0.250000 0.250000
vt 1.000000 0.250000
vt 0.750000 0.500000
vt 0.750000 0.250000
vt 0.500000 0.500000
vt 0.750000 0.000000
vt 0.500000 0.000000
vt 0.000000 0.250000
vt 0.000000 0.500000
vt 0.000000 0.000000
vt 0.250000 0.000000
vt 0.000000 0.750000
vt 0.000000 1.000000
vt 0.500000 1.000000
vt 1.000000 0.750000
vt 1.000000 0.500000
vt 1.000000 0.000000
vn -0.8817 0.2106 0.4221
vn -0.1156 0.9771 0.1786
vn -0.0040 0.9993 0.0359
vn -0.0296 0.9852 0.1690
vn 0.0551 0.9943 0.0911
vn -0.0203 0.9967 0.0785
vn -0.0300 0.9995 0.0018
vn -0.0282 0.9909 -0.1317
vn 0.0911 0.9711 0.2204
vn -0.0025 0.9969 0.0788
vn -0.1423 0.9780 0.1525
vn -0.0990 0.9950 -0.0126
vn -0.0625 0.9971 0.0438
vn -0.5116 0.8581 0.0445
vn -0.0249 0.9946 0.1006
vn -0.1909 0.9515 0.2411
vn -0.1002 0.7333 0.6725
vn 0.0099 0.9985 0.0540
vn -0.0612 0.9942 0.0879
vn -0.1284 0.9565 0.2621
vn -0.0240 0.9853 0.1691
vn 0.0489 0.9988 0.0018
vn -0.1438 0.9832 -0.1125
vn 0.1282 0.9905 0.0501
vn -0.0468 0.9962 0.0737
vn -0.0030 0.9969 0.0792
vn -0.1104 0.9777 0.1785
vn -0.0449 0.9980 0.0446
vn -0.1196 0.9879 0.0991
vn -0.1646 0.9514 0.2602
vn -0.1662 0.9565 0.2398
vn -0.1269 0.9500 0.2852
usemtl None
s off
f 25/1/1 4/2/1 17/3/1
f 18/4/2 13/5/2 24/6/2
f 19/7/3 20/8/3 23/9/3
f 16/10/4 21/11/4 22/12/4
f 22/12/5 9/13/5 19/7/5
f 11/14/6 19/7/6 6/15/6
f 11/14/7 16/10/7 22/12/7
f 10/16/8 20/8/8 5/17/8
f 1/18/9 23/9/9 10/16/9
f 6/15/10 23/9/10 15/19/10
f 14/20/11 13/5/11 3/21/11
f 5/17/12 24/6/12 14/20/12
f 9/13/13 24/6/13 20/8/13
f 18/4/14 17/3/14 8/22/14
f 21/11/15 18/4/15 9/13/15
f 21/11/16 12/23/16 25/1/16
f 25/1/17 12/23/17 4/2/17
f 18/4/18 8/22/18 13/5/18
f 19/7/19 9/13/19 20/8/19
f 16/10/20 7/24/20 21/11/20
f 22/12/21 21/11/21 9/13/21
f 11/14/22 22/12/22 19/7/22
f 11/14/23 2/25/23 16/10/23
f 10/16/24 23/9/24 20/8/24
f 1/18/25 15/19/25 23/9/25
f 6/15/26 19/7/26 23/9/26
f 14/20/27 24/6/27 13/5/27
f 5/17/28 20/8/28 24/6/28
f 9/13/29 18/4/29 24/6/29
f 18/4/30 25/1/30 17/3/30
f 21/11/31 25/1/31 18/4/31
f 21/11/32 7/24/32 12/23/32
