# Blender v3.5.1 OBJ File: 'omaigat.blend'
# www.blender.org
mtllib obor2.mtl
o Cube.010_Cube.086
v 1.559029 3.917260 -20.177460
v 1.592581 4.053859 -20.177460
v 1.585818 4.049757 -20.177460
v 1.580096 4.053039 -20.177460
v 1.570733 4.049757 -20.177460
v 1.541083 4.001763 -20.177460
v 1.537441 3.970177 -20.177460
v 1.543163 3.938591 -20.177460
v 1.604025 4.047706 -20.177460
v 1.618070 4.024734 -20.177460
v 1.617549 4.057141 -20.177460
v 1.608706 4.078062 -20.177460
v 1.600383 4.106366 -20.177460
v 1.593621 4.129748 -20.177460
v 1.604545 4.154770 -20.177460
v 1.637316 4.248298 -20.177460
v 1.642518 4.213840 -20.177460
v 1.653962 4.191279 -20.177460
v 1.670088 4.188818 -20.177460
v 1.685173 4.194150 -20.177460
v 1.689855 4.206457 -20.177460
v 1.693496 4.238452 -20.177460
v 1.684653 4.270039 -20.177460
v 1.679451 4.283165 -20.177460
v 1.686214 4.345107 -20.177460
v 1.697137 4.376282 -20.177460
v 1.757479 4.516573 -20.177460
v 1.763721 4.425097 -20.177460
v 1.773084 4.367668 -20.177460
v 1.790250 4.327057 -20.177460
v 1.806376 4.315161 -20.177460
v 1.827704 4.318033 -20.177460
v 1.843829 4.332800 -20.177460
v 1.843829 4.338543 -20.177460
v 1.861516 4.276192 -20.177460
v 1.865677 4.178973 -20.177460
v 1.870359 4.142464 -20.177460
v 1.885444 4.112109 -20.177460
v 1.908332 4.099392 -20.177460
v 1.931740 4.106776 -20.177460
v 1.937462 4.135490 -20.177460
v 1.949427 4.083805 -20.177460
v 1.947346 3.988226 -20.177460
v 1.963472 4.025555 -20.177460
v 1.973875 4.009147 -20.177460
v 1.973355 3.973048 -20.177460
v 1.950467 3.921772 -20.177460
v 1.943704 3.916440 -20.177460
v 1.559029 3.917260 -20.321205
v 1.592581 4.053859 -20.321205
v 1.585818 4.049757 -20.321205
v 1.580096 4.053039 -20.321205
v 1.570733 4.049757 -20.321205
v 1.541082 4.001763 -20.321205
v 1.537441 3.970177 -20.321205
v 1.543163 3.938591 -20.321205
v 1.604025 4.047706 -20.321205
v 1.618070 4.024734 -20.321205
v 1.617549 4.057141 -20.321205
v 1.608706 4.078062 -20.321205
v 1.600383 4.106366 -20.321205
v 1.593621 4.129748 -20.321205
v 1.604545 4.154770 -20.321205
v 1.637316 4.248298 -20.321205
v 1.642518 4.213840 -20.321205
v 1.653962 4.191279 -20.321205
v 1.670088 4.188818 -20.321205
v 1.685173 4.194150 -20.321205
v 1.689855 4.206457 -20.321205
v 1.693496 4.238452 -20.321205
v 1.684653 4.270039 -20.321205
v 1.679451 4.283165 -20.321205
v 1.686214 4.345107 -20.321205
v 1.697137 4.376282 -20.321205
v 1.757479 4.516573 -20.321205
v 1.763721 4.425097 -20.321205
v 1.773084 4.367668 -20.321205
v 1.790250 4.327057 -20.321205
v 1.806376 4.315161 -20.321207
v 1.827703 4.318033 -20.321207
v 1.843829 4.332800 -20.321207
v 1.843829 4.338543 -20.321207
v 1.861515 4.276192 -20.321207
v 1.865677 4.178973 -20.321207
v 1.870359 4.142464 -20.321207
v 1.885444 4.112109 -20.321207
v 1.908332 4.099392 -20.321207
v 1.931740 4.106776 -20.321207
v 1.937462 4.135490 -20.321207
v 1.949426 4.083805 -20.321207
v 1.947346 3.988226 -20.321207
v 1.963471 4.025555 -20.321207
v 1.973875 4.009147 -20.321207
v 1.973355 3.973048 -20.321207
v 1.950467 3.921772 -20.321207
v 1.943704 3.916440 -20.321207
vt 0.000000 0.000000
vt 0.000000 0.000000
vt 0.000000 0.000000
vt 0.000000 0.000000
vt 0.000000 0.000000
vt 0.000000 0.000000
vt 0.000000 0.000000
vt 0.000000 0.000000
vt 0.000000 0.000000
vt 0.000000 0.000000
vt 0.000000 0.000000
vt 0.000000 0.000000
vt 0.000000 0.000000
vt 0.000000 0.000000
vt 0.000000 0.000000
vt 0.000000 0.000000
vt 0.000000 0.000000
vt 0.000000 0.000000
vt 0.000000 0.000000
vt 0.000000 0.000000
vt 0.000000 0.000000
vt 0.000000 0.000000
vt 0.000000 0.000000
vt 0.000000 0.000000
vt 0.000000 0.000000
vt 0.000000 0.000000
vt 0.000000 0.000000
vt 0.000000 0.000000
vt 0.000000 0.000000
vt 0.000000 0.000000
vt 0.000000 0.000000
vt 0.000000 0.000000
vt 0.000000 0.000000
vt 0.000000 0.000000
vt 0.000000 0.000000
vt 0.000000 0.000000
vt 0.000000 0.000000
vt 0.000000 0.000000
vt 0.000000 0.000000
vt 0.000000 0.000000
vt 0.000000 0.000000
vt 0.000000 0.000000
vt 0.000000 0.000000
vt 0.000000 0.000000
vt 0.000000 0.000000
vt 0.000000 0.000000
vt 0.000000 0.000000
vt 0.000000 0.000000
vt 0.000000 0.000000
vt 0.000000 0.000000
vt 0.000000 0.000000
vt 0.000000 0.000000
vt 0.000000 0.000000
vt 0.000000 0.000000
vt 0.000000 0.000000
vt 0.000000 0.000000
vt 0.000000 0.000000
vt 0.000000 0.000000
vt 0.000000 0.000000
vt 0.000000 0.000000
vt 0.000000 0.000000
vt 0.000000 0.000000
vt 0.000000 0.000000
vt 0.000000 0.000000
vt 0.000000 0.000000
vt 0.000000 0.000000
vt 0.000000 0.000000
vt 0.000000 0.000000
vt 0.000000 0.000000
vt 0.000000 0.000000
vt 0.000000 0.000000
vt 0.000000 0.000000
vt 0.000000 0.000000
vt 0.000000 0.000000
vt 0.000000 0.000000
vt 0.000000 0.000000
vt 0.000000 0.000000
vt 0.000000 0.000000
vt 0.000000 0.000000
vt 0.000000 0.000000
vt 0.000000 0.000000
vt 0.000000 0.000000
vt 0.000000 0.000000
vt 0.000000 0.000000
vt 0.000000 0.000000
vt 0.000000 0.000000
vt 0.000000 0.000000
vt 0.000000 0.000000
vt 0.000000 0.000000
vt 0.000000 0.000000
vt 0.000000 0.000000
vt 0.000000 0.000000
vt 0.000000 0.000000
vt 0.000000 0.000000
vt 0.000000 0.000000
vt 0.000000 0.000000
vn 0.3307 -0.9437 -0.0000
vn -0.8955 -0.4450 0.0000
vn 0.9941 -0.1085 0.0000
vn 0.8507 -0.5256 -0.0000
vn -0.4857 -0.8742 0.0000
vn 0.9437 -0.3307 0.0000
vn 0.9934 -0.1145 0.0000
vn 0.3008 -0.9537 -0.0000
vn 0.9186 -0.3951 0.0000
vn 0.9840 0.1783 -0.0000
vn 0.9807 -0.1954 0.0000
vn -0.9977 -0.0681 0.0000
vn 0.8024 0.5968 -0.0000
vn -0.9742 -0.2255 0.0000
vn 0.9165 -0.4001 0.0000
vn -0.9870 -0.1609 0.0000
vn -0.9888 -0.1493 0.0000
vn -0.9998 0.0218 0.0000
vn 0.9606 0.2778 -0.0000
vn -0.9211 -0.3893 -0.0000
vn -0.8918 -0.4524 -0.0000
vn 0.9180 -0.3966 -0.0000
vn 0.9594 0.2821 0.0000
vn -0.5937 -0.8047 0.0000
vn -0.1509 -0.9886 0.0000
vn -0.8445 -0.5355 0.0000
vn 0.9211 0.3893 -0.0000
vn 0.1334 -0.9911 0.0000
vn 0.3333 -0.9428 0.0000
vn -0.9999 0.0144 0.0000
vn 0.9999 0.0160 -0.0000
vn 0.6754 -0.7375 0.0000
vn 0.9347 -0.3556 0.0000
vn -0.9132 0.4076 0.0000
vn -0.8532 -0.5216 0.0000
vn 1.0000 0.0000 -0.0000
vn 0.9936 -0.1131 -0.0000
vn -0.6192 0.7852 0.0000
vn -0.4736 -0.8808 0.0000
vn -0.9620 -0.2729 0.0000
vn 0.9630 0.2696 -0.0000
vn 0.0021 1.0000 0.0000
vn 0.5186 -0.8550 0.0000
vn -0.9991 -0.0428 0.0000
vn 0.9297 0.3684 -0.0000
vn -0.4975 -0.8675 0.0000
vn -0.9919 -0.1272 0.0000
vn 0.0000 0.0000 -1.0000
vn 0.0001 0.0000 1.0000
vn -0.4857 -0.8741 0.0000
vn 0.9840 0.1782 0.0000
vn -0.9211 -0.3894 0.0000
vn -0.8446 -0.5355 0.0000
vn 0.9999 0.0161 -0.0000
vn 0.0001 0.0000 -1.0000
vn -0.0001 0.0000 -1.0000
vn 0.0002 0.0000 -1.0000
vn -0.0002 0.0000 -1.0000
vn -0.0010 0.0000 -1.0000
vn 0.0000 0.0000 1.0000
vn 0.0002 0.0000 1.0000
vn -0.0002 0.0000 1.0000
vn 0.0000 -0.0001 1.0000
usemtl Material.006
s off
f 4/1/1 5/2/1 53/3/1
f 38/4/2 37/5/2 85/6/2
f 25/7/3 24/8/3 72/9/3
f 6/10/4 54/11/4 53/3/4
f 39/12/5 38/4/5 86/13/5
f 25/7/6 73/14/6 74/15/6
f 6/10/7 7/16/7 55/17/7
f 40/18/8 39/12/8 87/19/8
f 26/20/9 74/15/9 75/21/9
f 7/16/10 8/22/10 56/23/10
f 41/24/11 40/18/11 88/25/11
f 16/26/6 15/27/6 63/28/6
f 28/29/12 27/30/12 75/21/12
f 8/22/13 1/31/13 49/32/13
f 42/33/14 41/24/14 89/34/14
f 15/27/15 14/35/15 62/36/15
f 29/37/16 28/29/16 76/38/16
f 17/39/17 16/26/17 64/40/17
f 43/41/18 42/33/18 90/42/18
f 14/35/19 13/43/19 61/44/19
f 30/45/20 29/37/20 77/46/20
f 18/47/21 17/39/21 65/48/21
f 44/49/22 43/41/22 91/50/22
f 13/43/23 12/51/23 60/52/23
f 31/53/24 30/45/24 78/54/24
f 19/55/25 18/47/25 66/56/25
f 45/57/26 44/49/26 92/58/26
f 12/51/27 11/59/27 59/60/27
f 32/61/28 31/53/28 79/62/28
f 20/63/29 19/55/29 67/64/29
f 46/65/30 45/57/30 93/66/30
f 10/67/31 58/68/31 59/60/31
f 33/69/32 32/61/32 80/70/32
f 20/63/33 68/71/33 69/72/33
f 47/73/34 46/65/34 94/74/34
f 10/67/35 9/75/35 57/76/35
f 34/77/36 33/69/36 81/78/36
f 22/79/37 21/80/37 69/72/37
f 48/81/38 47/73/38 95/82/38
f 9/75/39 2/83/39 50/84/39
f 35/85/40 34/77/40 82/86/40
f 23/87/41 22/79/41 70/88/41
f 1/31/42 48/81/42 96/89/42
f 2/83/43 3/90/43 51/91/43
f 36/92/44 35/85/44 83/93/44
f 23/87/45 71/94/45 72/9/45
f 3/90/46 4/1/46 52/95/46
f 37/5/47 36/92/47 84/96/47
f 30/45/48 25/7/48 29/37/48
f 80/70/49 79/62/49 83/93/49
f 4/1/1 53/3/1 52/95/1
f 38/4/2 85/6/2 86/13/2
f 25/7/3 72/9/3 73/14/3
f 6/10/4 53/3/4 5/2/4
f 39/12/50 86/13/50 87/19/50
f 25/7/6 74/15/6 26/20/6
f 6/10/7 55/17/7 54/11/7
f 40/18/8 87/19/8 88/25/8
f 26/20/9 75/21/9 27/30/9
f 7/16/51 56/23/51 55/17/51
f 41/24/11 88/25/11 89/34/11
f 16/26/6 63/28/6 64/40/6
f 28/29/12 75/21/12 76/38/12
f 8/22/13 49/32/13 56/23/13
f 42/33/14 89/34/14 90/42/14
f 15/27/15 62/36/15 63/28/15
f 29/37/16 76/38/16 77/46/16
f 17/39/17 64/40/17 65/48/17
f 43/41/18 90/42/18 91/50/18
f 14/35/19 61/44/19 62/36/19
f 30/45/52 77/46/52 78/54/52
f 18/47/21 65/48/21 66/56/21
f 44/49/22 91/50/22 92/58/22
f 13/43/23 60/52/23 61/44/23
f 31/53/24 78/54/24 79/62/24
f 19/55/25 66/56/25 67/64/25
f 45/57/53 92/58/53 93/66/53
f 12/51/27 59/60/27 60/52/27
f 32/61/28 79/62/28 80/70/28
f 20/63/29 67/64/29 68/71/29
f 46/65/30 93/66/30 94/74/30
f 10/67/54 59/60/54 11/59/54
f 33/69/32 80/70/32 81/78/32
f 20/63/33 69/72/33 21/80/33
f 47/73/34 94/74/34 95/82/34
f 10/67/35 57/76/35 58/68/35
f 34/77/36 81/78/36 82/86/36
f 22/79/37 69/72/37 70/88/37
f 48/81/38 95/82/38 96/89/38
f 9/75/39 50/84/39 57/76/39
f 35/85/40 82/86/40 83/93/40
f 23/87/41 70/88/41 71/94/41
f 1/31/42 96/89/42 49/32/42
f 2/83/43 51/91/43 50/84/43
f 36/92/44 83/93/44 84/96/44
f 23/87/45 72/9/45 24/8/45
f 3/90/46 52/95/46 51/91/46
f 37/5/47 84/96/47 85/6/47
f 15/27/55 13/43/55 14/35/55
f 13/43/48 19/55/48 12/51/48
f 12/51/48 20/63/48 11/59/48
f 19/55/48 20/63/48 12/51/48
f 10/67/56 3/90/56 9/75/56
f 9/75/57 3/90/57 2/83/57
f 15/27/48 19/55/48 13/43/48
f 15/27/56 18/47/56 19/55/56
f 16/26/55 17/39/55 15/27/55
f 17/39/48 18/47/48 15/27/48
f 10/67/48 5/2/48 3/90/48
f 3/90/48 5/2/48 4/1/48
f 11/59/48 38/4/48 10/67/48
f 5/2/48 10/67/48 6/10/48
f 6/10/48 10/67/48 7/16/48
f 7/16/48 10/67/48 8/22/48
f 8/22/48 10/67/48 1/31/48
f 1/31/48 10/67/48 48/81/48
f 48/81/48 43/41/48 47/73/48
f 10/67/48 43/41/48 48/81/48
f 47/73/55 43/41/55 46/65/55
f 46/65/56 43/41/56 45/57/56
f 45/57/57 43/41/57 44/49/57
f 43/41/48 39/12/48 42/33/48
f 42/33/58 40/18/58 41/24/58
f 42/33/48 39/12/48 40/18/48
f 43/41/48 38/4/48 39/12/48
f 11/59/48 37/5/48 38/4/48
f 38/4/48 43/41/48 10/67/48
f 20/63/48 37/5/48 11/59/48
f 20/63/48 36/92/48 37/5/48
f 21/80/48 36/92/48 20/63/48
f 22/79/48 36/92/48 21/80/48
f 25/7/48 30/45/48 24/8/48
f 24/8/48 30/45/48 23/87/48
f 23/87/48 31/53/48 22/79/48
f 36/92/48 22/79/48 35/85/48
f 35/85/59 33/69/59 34/77/59
f 31/53/48 35/85/48 22/79/48
f 26/20/48 29/37/48 25/7/48
f 30/45/56 31/53/56 23/87/56
f 28/29/48 26/20/48 27/30/48
f 29/37/48 26/20/48 28/29/48
f 35/85/56 32/61/56 33/69/56
f 35/85/48 31/53/48 32/61/48
f 63/28/60 65/48/60 64/40/60
f 63/28/60 66/56/60 65/48/60
f 61/44/60 63/28/60 62/36/60
f 59/60/60 68/71/60 60/52/60
f 60/52/49 67/64/49 61/44/49
f 50/84/61 51/91/61 57/76/61
f 57/76/60 51/91/60 58/68/60
f 60/52/49 68/71/49 67/64/49
f 61/44/60 67/64/60 63/28/60
f 67/64/60 66/56/60 63/28/60
f 52/95/60 53/3/60 51/91/60
f 51/91/60 53/3/60 58/68/60
f 58/68/60 86/13/60 59/60/60
f 55/17/60 58/68/60 54/11/60
f 54/11/60 58/68/60 53/3/60
f 49/32/49 58/68/49 56/23/49
f 56/23/60 58/68/60 55/17/60
f 95/82/60 91/50/60 96/89/60
f 96/89/60 58/68/60 49/32/60
f 93/66/60 91/50/60 94/74/60
f 94/74/60 91/50/60 95/82/60
f 91/50/49 93/66/49 92/58/49
f 89/34/62 88/25/62 90/42/62
f 90/42/60 87/19/60 91/50/60
f 88/25/60 87/19/60 90/42/60
f 96/89/60 91/50/60 58/68/60
f 59/60/60 85/6/60 68/71/60
f 86/13/60 85/6/60 59/60/60
f 87/19/60 86/13/60 91/50/60
f 86/13/60 58/68/60 91/50/60
f 68/71/60 84/96/60 69/72/60
f 85/6/60 84/96/60 68/71/60
f 69/72/60 84/96/60 70/88/60
f 71/94/60 78/54/60 72/9/60
f 72/9/60 78/54/60 73/14/60
f 70/88/60 79/62/60 71/94/60
f 84/96/60 83/93/60 70/88/60
f 73/14/60 77/46/60 74/15/60
f 71/94/63 79/62/63 78/54/63
f 74/15/60 76/38/60 75/21/60
f 74/15/60 77/46/60 76/38/60
f 70/88/60 83/93/60 79/62/60
f 82/86/60 81/78/60 83/93/60
f 81/78/60 80/70/60 83/93/60
f 77/46/60 73/14/60 78/54/60
