# Blender v3.5.1 OBJ File: 'omaigat.blend'
# www.blender.org
mtllib pena.mtl
o feather_Vert
v 0.299478 1.798327 -18.709288
v 0.303287 1.832865 -18.709288
v 0.330899 1.928221 -18.709288
v 0.351846 1.981531 -18.709288
v 0.422304 2.114429 -18.709288
v 0.496570 2.217293 -18.709288
v 0.587975 2.321659 -18.709288
v 0.761264 2.449301 -18.709288
v 0.670811 2.401248 -18.709288
v 0.547985 2.308144 -18.709288
v 0.443251 2.187260 -18.709288
v 0.377553 2.088900 -18.709288
v 0.330899 1.986786 -18.709288
v 0.309000 2.013817 -18.709288
v 0.292813 2.045352 -18.709288
v 0.281388 2.177499 -18.709288
v 0.316617 2.145213 -18.709288
v 0.309000 2.216542 -18.709288
v 0.320425 2.185007 -18.709288
v 0.335659 2.165485 -18.709288
v 0.328994 2.248077 -18.709288
v 0.363271 2.329168 -18.709288
v 0.370888 2.276609 -18.709288
v 0.388979 2.239818 -18.709288
v 0.397548 2.320158 -18.709288
v 0.421352 2.366709 -18.709288
v 0.471815 2.422271 -18.709288
v 0.539416 2.466571 -18.709288
v 0.627965 2.517627 -18.709288
v 0.592736 2.474079 -18.709288
v 0.565124 2.435035 -18.709288
v 0.561315 2.414012 -18.709288
v 0.617491 2.468072 -18.709288
v 0.683189 2.513123 -18.709288
v 0.802205 2.548412 -18.709288
v 0.907892 2.557422 -18.709288
v 1.037383 2.555920 -18.709288
v 0.998345 2.507116 -18.709288
v 0.941217 2.441042 -18.709288
v 0.882185 2.396743 -18.709288
v 0.812679 2.350942 -18.709288
v 0.749838 2.317905 -18.709288
v 0.676524 2.289373 -18.709288
v 0.703183 2.289373 -18.709288
v 0.789828 2.304390 -18.709288
v 0.753646 2.281865 -18.709288
v 0.715561 2.243572 -18.709288
v 0.686997 2.215041 -18.709288
v 0.657481 2.196270 -18.709288
v 0.635582 2.184257 -18.709288
v 0.599401 2.172243 -18.709288
v 0.556555 2.165486 -18.709288
v 0.567980 2.157977 -18.709288
v 0.588927 2.156476 -18.709288
v 0.624156 2.159479 -18.709288
v 0.649864 2.166236 -18.709288
v 0.637486 2.157977 -18.709288
v 0.613683 2.136203 -18.709288
v 0.590831 2.114429 -18.709288
v 0.562267 2.105419 -18.709288
v 0.523230 2.094907 -18.709288
v 0.509900 2.088150 -18.709288
v 0.557507 2.087399 -18.709288
v 0.588927 2.098661 -18.709288
v 0.567028 2.079890 -18.709288
v 0.545129 2.058116 -18.709288
v 0.520374 2.026581 -18.709288
v 0.484192 1.998049 -18.709288
v 0.438490 1.976275 -18.709288
v 0.409926 1.969517 -18.709288
v 0.381362 1.968016 -18.709288
v 0.372793 1.962009 -18.709288
v 0.359463 1.935730 -18.709288
v 0.349941 1.899690 -18.709288
v 0.328042 1.832114 -18.709288
v 0.313760 1.808838 -18.709288
v 0.299478 1.798327 -18.714209
v 0.303287 1.832865 -18.714209
v 0.330899 1.928221 -18.714209
v 0.351846 1.981531 -18.714209
v 0.422304 2.114429 -18.714209
v 0.496570 2.217293 -18.714209
v 0.587975 2.321659 -18.714209
v 0.761264 2.449301 -18.714209
v 0.670811 2.401248 -18.714209
v 0.547985 2.308144 -18.714209
v 0.443251 2.187260 -18.714209
v 0.377553 2.088900 -18.714209
v 0.330899 1.986786 -18.714209
v 0.309000 2.013817 -18.714209
v 0.292813 2.045352 -18.714209
v 0.281388 2.177499 -18.714209
v 0.316617 2.145213 -18.714209
v 0.309000 2.216542 -18.714209
v 0.320425 2.185007 -18.714209
v 0.335659 2.165485 -18.714209
v 0.328994 2.248077 -18.714209
v 0.363271 2.329168 -18.714209
v 0.370888 2.276609 -18.714209
v 0.388979 2.239818 -18.714209
v 0.397548 2.320158 -18.714209
v 0.421352 2.366709 -18.714209
v 0.471815 2.422271 -18.714209
v 0.539416 2.466571 -18.714209
v 0.627965 2.517627 -18.714209
v 0.592736 2.474079 -18.714209
v 0.565124 2.435035 -18.714209
v 0.561315 2.414012 -18.714209
v 0.617491 2.468072 -18.714209
v 0.683189 2.513123 -18.714209
v 0.802205 2.548412 -18.714209
v 0.907892 2.557422 -18.714209
v 1.037383 2.555920 -18.714209
v 0.998345 2.507116 -18.714209
v 0.941217 2.441042 -18.714209
v 0.882185 2.396743 -18.714209
v 0.812679 2.350942 -18.714209
v 0.749838 2.317905 -18.714209
v 0.676524 2.289373 -18.714209
v 0.703183 2.289373 -18.714209
v 0.789828 2.304390 -18.714209
v 0.753646 2.281865 -18.714209
v 0.715561 2.243572 -18.714209
v 0.686997 2.215041 -18.714209
v 0.657481 2.196270 -18.714209
v 0.635582 2.184257 -18.714209
v 0.599401 2.172243 -18.714209
v 0.556555 2.165486 -18.714209
v 0.567980 2.157977 -18.714209
v 0.588927 2.156476 -18.714209
v 0.624156 2.159479 -18.714209
v 0.649864 2.166236 -18.714209
v 0.637486 2.157977 -18.714209
v 0.613683 2.136203 -18.714209
v 0.590831 2.114429 -18.714209
v 0.562267 2.105419 -18.714209
v 0.523230 2.094907 -18.714209
v 0.509900 2.088150 -18.714209
v 0.557507 2.087399 -18.714209
v 0.588927 2.098661 -18.714209
v 0.567028 2.079890 -18.714209
v 0.545129 2.058116 -18.714209
v 0.520374 2.026581 -18.714209
v 0.484192 1.998049 -18.714209
v 0.438490 1.976275 -18.714209
v 0.409926 1.969517 -18.714209
v 0.381362 1.968016 -18.714209
v 0.372793 1.962009 -18.714209
v 0.359463 1.935730 -18.714209
v 0.349941 1.899690 -18.714209
v 0.328042 1.832114 -18.714209
v 0.313760 1.808839 -18.714209
v 0.742697 2.530767 -18.709288
v 0.742697 2.530767 -18.714209
v 0.303287 1.832865 -18.706991
v 0.303287 1.832865 -18.711912
v 0.349941 1.899690 -18.711912
v 0.328042 1.832114 -18.711912
v 0.328042 1.832114 -18.717422
v 0.349941 1.899690 -18.717422
v 0.359463 1.935730 -18.717422
v 0.330899 1.928221 -18.717422
v 0.303287 1.832865 -18.717422
v 0.299478 1.798327 -18.717422
v 0.299478 1.798327 -18.706991
v 0.359463 1.935730 -18.706991
v 0.328042 1.832114 -18.706991
v 0.299478 1.798327 -18.711912
v 0.330899 1.928221 -18.711912
v 0.313760 1.808839 -18.711912
v 0.330899 1.928221 -18.706991
v 0.349941 1.899690 -18.706991
v 0.313760 1.808838 -18.706991
v 0.359463 1.935730 -18.711912
v 0.313760 1.808839 -18.717422
vn 0.0001 0.0000 1.0000
vn 0.0000 0.0000 -1.0000
vn -0.3375 0.9413 0.0000
vn 0.7565 -0.6540 0.0000
vn 0.9096 -0.4155 0.0000
vn 0.6509 -0.7592 0.0000
vn 0.6001 -0.7999 0.0000
vn -0.7768 -0.6298 0.0000
vn 0.7049 -0.7093 0.0000
vn 0.5503 -0.8350 0.0000
vn -0.8897 -0.4566 0.0000
vn 0.7866 -0.6174 0.0000
vn 0.4651 -0.8852 0.0000
vn -0.9963 -0.0861 0.0000
vn 0.6193 -0.7852 0.0000
vn 0.3625 -0.9320 0.0000
vn 0.6757 0.7372 0.0000
vn 0.4300 -0.9028 0.0000
vn 0.0000 1.0000 0.0000
vn -0.9943 -0.1062 0.0000
vn 0.2303 -0.9731 0.0000
vn -0.1708 0.9853 0.0000
vn 0.9402 0.3406 0.0000
vn 0.0525 -0.9986 0.0000
vn 0.5286 -0.8489 0.0000
vn 0.7882 0.6154 0.0000
vn 0.5741 -0.8188 0.0000
vn 0.7089 -0.7053 0.0000
vn -0.9968 -0.0804 0.0000
vn 0.8919 -0.4523 0.0000
vn 0.7065 -0.7077 0.0000
vn -0.9210 0.3895 0.0000
vn 0.5367 -0.8438 0.0000
vn 0.9897 0.1434 0.0000
vn 0.4810 -0.8767 0.0000
vn 0.8974 0.4412 0.0000
vn 0.3152 -0.9490 0.0000
vn -0.9944 0.1060 0.0000
vn 0.1558 -0.9878 0.0000
vn -0.8903 0.4554 0.0000
vn 0.5489 0.8359 0.0000
vn -0.7403 0.6723 0.0000
vn 0.0715 0.9974 0.0000
vn -0.5480 0.8365 0.0000
vn -0.0850 0.9964 0.0000
vn -0.4996 0.8663 0.0000
vn 0.7773 -0.6291 0.0000
vn -0.9307 0.3657 0.0000
vn -0.2543 0.9671 0.0000
vn 0.8163 -0.5776 0.0000
vn -0.8836 0.4683 0.0000
vn 0.5551 -0.8318 0.0000
vn 0.9840 -0.1783 0.0000
vn -0.8108 0.5854 0.0000
vn 0.6750 -0.7378 0.0000
vn -0.6931 0.7208 0.0000
vn -0.7524 0.6587 0.0000
vn 0.6897 -0.7241 0.0000
vn -0.5656 0.8247 0.0000
vn -0.5930 0.8052 0.0000
vn 0.3009 -0.9537 0.0000
vn -0.2843 0.9587 0.0000
vn 0.4690 -0.8832 0.0000
vn 0.2599 -0.9656 0.0000
vn -0.0849 0.9964 0.0000
vn 0.6041 -0.7969 0.0000
vn 0.4522 -0.8919 0.0000
vn 0.0116 0.9999 0.0000
vn 0.7559 -0.6547 0.0000
vn 0.0158 0.9999 0.0000
vn 0.7808 -0.6248 0.0000
vn 0.8315 -0.5555 0.0000
vn -0.9513 0.3082 0.0000
vn 0.9940 -0.1096 0.0000
vn 0.8525 -0.5228 0.0000
vn 0.5929 -0.8053 0.0000
vn 0.5928 -0.8053 0.0000
vn -0.9940 0.1096 0.0000
vn 0.9668 -0.2555 0.0000
vn 0.9513 -0.3082 0.0000
vn 0.8524 -0.5229 0.0000
vn -0.9605 0.2782 0.0000
vn -0.9669 0.2553 0.0000
vn 0.9606 -0.2780 0.0000
vn 0.0000 0.0000 1.0000
vn -0.0001 0.0000 1.0000
vn -0.0001 0.0000 -1.0000
vn 0.0002 0.0000 -1.0000
vn 0.0001 0.0000 -1.0000
vn -0.3373 0.9414 0.0000
vn 0.6003 -0.7998 0.0000
vn -0.7771 -0.6294 0.0000
vn 0.7051 -0.7091 0.0000
vn 0.5501 -0.8351 0.0000
vn 0.4654 -0.8851 0.0000
vn 0.3627 -0.9319 0.0000
vn 0.4302 -0.9027 0.0000
vn -0.9944 -0.1061 0.0000
vn -0.1707 0.9853 0.0000
vn 0.5284 -0.8490 0.0000
vn 0.7884 0.6151 0.0000
vn 0.5739 -0.8190 0.0000
vn 0.7091 -0.7051 0.0000
vn 0.7068 -0.7074 0.0000
vn -0.9211 0.3893 0.0000
vn 0.4808 -0.8768 0.0000
vn -0.9944 0.1061 0.0000
vn -0.8904 0.4552 0.0000
vn 0.5492 0.8357 0.0000
vn -0.5482 0.8364 0.0000
vn -0.4994 0.8664 0.0000
vn 0.7775 -0.6289 0.0000
vn -0.9307 0.3658 0.0000
vn 0.8165 -0.5773 0.0000
vn -0.8834 0.4685 0.0000
vn 0.9840 -0.1782 0.0000
vn 0.6748 -0.7380 0.0000
vn -0.6935 0.7205 0.0000
vn -0.7523 0.6589 0.0000
vn 0.6899 -0.7239 0.0000
vn -0.5654 0.8248 0.0000
vn -0.2841 0.9588 0.0000
vn 0.4692 -0.8831 0.0000
vn 0.2601 -0.9656 0.0000
vn 0.6039 -0.7970 0.0000
vn 0.7557 -0.6550 0.0000
vn 0.7810 -0.6246 0.0000
vn 0.8317 -0.5553 0.0000
vn 0.8522 -0.5231 0.0000
vn 0.5927 -0.8055 0.0000
vn 0.5928 -0.8054 0.0000
vn 0.9668 -0.2554 0.0000
vn 0.8522 -0.5232 0.0000
vn -0.9668 0.2556 0.0000
vn 0.9605 -0.2782 0.0000
usemtl Material.015
s off
f 60//1 53//1 52//1
f 129//2 136//2 128//2
f 63//3 140//3 139//3
f 38//4 115//4 114//4
f 13//5 88//5 12//5
f 65//6 140//6 64//6
f 40//7 115//7 39//7
f 13//8 90//8 89//8
f 66//9 141//9 65//9
f 41//10 116//10 40//10
f 15//11 90//11 14//11
f 67//12 142//12 66//12
f 42//13 117//13 41//13
f 16//14 91//14 15//14
f 68//15 143//15 67//15
f 43//16 118//16 42//16
f 17//17 92//17 16//17
f 69//18 144//18 68//18
f 44//19 119//19 43//19
f 18//20 93//20 17//20
f 70//21 145//21 69//21
f 45//22 120//22 44//22
f 19//23 94//23 18//23
f 71//24 146//24 70//24
f 46//25 121//25 45//25
f 20//26 95//26 19//26
f 72//27 147//27 71//27
f 47//28 122//28 46//28
f 21//29 96//29 20//29
f 73//30 148//30 72//30
f 48//31 123//31 47//31
f 22//32 97//32 21//32
f 49//33 124//33 48//33
f 23//34 98//34 22//34
f 50//35 125//35 49//35
f 24//36 99//36 23//36
f 51//37 126//37 50//37
f 25//38 100//38 24//38
f 52//39 127//39 51//39
f 25//40 102//40 101//40
f 53//41 128//41 52//41
f 27//42 102//42 26//42
f 54//43 129//43 53//43
f 28//44 103//44 27//44
f 55//45 130//45 54//45
f 29//46 104//46 28//46
f 30//47 105//47 29//47
f 4//48 79//48 3//48
f 56//49 131//49 55//49
f 31//50 106//50 30//50
f 4//51 81//51 80//51
f 57//52 132//52 56//52
f 32//53 107//53 31//53
f 6//54 81//54 5//54
f 58//55 133//55 57//55
f 32//56 109//56 108//56
f 7//57 82//57 6//57
f 59//58 134//58 58//58
f 34//59 109//59 33//59
f 8//60 83//60 7//60
f 60//61 135//61 59//61
f 35//62 154//62 153//62
f 9//63 84//63 8//63
f 61//64 136//64 60//64
f 36//65 111//65 35//65
f 10//66 85//66 9//66
f 62//67 137//67 61//67
f 37//68 112//68 36//68
f 11//69 86//69 10//69
f 63//70 138//70 62//70
f 38//71 113//71 37//71
f 12//72 87//72 11//72
f 153//62 110//62 34//62
f 157//73 159//73 158//73
f 168//74 163//74 156//74
f 170//75 159//75 158//75
f 168//76 175//76 170//76
f 173//77 168//77 170//77
f 155//78 168//78 165//78
f 172//79 174//79 166//79
f 172//80 158//80 157//80
f 167//81 170//81 158//81
f 171//82 156//82 155//82
f 174//83 160//83 157//83
f 156//84 162//84 169//84
f 2//85 1//85 76//85
f 76//86 75//86 2//86
f 75//85 74//85 2//85
f 74//85 73//85 3//85
f 3//86 2//86 74//86
f 5//85 4//85 69//85
f 4//85 3//85 73//85
f 7//85 6//85 50//85
f 6//85 5//85 52//85
f 8//85 7//85 42//85
f 6//85 52//85 51//85
f 50//85 6//85 51//85
f 4//85 73//85 72//85
f 4//86 72//86 71//86
f 71//1 70//1 4//1
f 70//85 69//85 4//85
f 52//85 5//85 61//85
f 69//85 68//85 5//85
f 68//85 67//85 62//85
f 67//85 66//85 62//85
f 65//86 64//86 63//86
f 66//85 65//85 63//85
f 62//85 66//85 63//85
f 14//86 13//86 12//86
f 16//85 15//85 17//85
f 15//85 14//85 12//85
f 17//85 15//85 12//85
f 19//85 18//85 17//85
f 12//85 11//85 20//85
f 17//85 12//85 20//85
f 20//85 19//85 17//85
f 22//85 21//85 23//85
f 21//85 20//85 24//85
f 23//85 21//85 24//85
f 20//85 11//85 24//85
f 11//85 10//85 24//85
f 26//85 25//85 10//85
f 25//85 24//85 10//85
f 28//85 27//85 31//85
f 27//85 26//85 10//85
f 31//85 27//85 32//85
f 30//85 29//85 28//85
f 31//85 30//85 28//85
f 10//85 9//85 32//85
f 32//85 27//85 10//85
f 34//85 33//85 9//85
f 33//85 32//85 9//85
f 153//85 34//85 8//85
f 8//1 34//1 9//1
f 36//85 35//85 39//85
f 35//85 153//85 8//85
f 38//85 37//85 36//85
f 40//85 39//85 8//85
f 39//85 38//85 36//85
f 42//85 41//85 8//85
f 41//85 40//85 8//85
f 43//85 42//85 7//85
f 8//85 39//85 35//85
f 61//85 60//85 52//85
f 60//1 59//1 53//1
f 53//86 59//86 54//86
f 68//85 62//85 5//85
f 59//1 58//1 54//1
f 58//1 57//1 55//1
f 54//85 58//85 55//85
f 57//85 56//85 55//85
f 62//85 61//85 5//85
f 46//85 45//85 44//85
f 46//1 44//1 47//1
f 44//85 43//85 47//85
f 48//85 47//85 43//85
f 50//85 49//85 7//85
f 49//85 48//85 43//85
f 49//85 43//85 7//85
f 152//2 77//2 78//2
f 78//2 79//2 150//2
f 79//2 80//2 149//2
f 80//2 81//2 145//2
f 81//2 82//2 128//2
f 80//87 147//87 148//87
f 82//2 83//2 126//2
f 83//2 84//2 118//2
f 119//2 83//2 118//2
f 147//2 80//2 146//2
f 83//2 119//2 125//2
f 152//2 78//2 151//2
f 79//2 149//2 150//2
f 150//2 151//2 78//2
f 88//87 89//87 90//87
f 90//2 91//2 88//2
f 91//2 92//2 93//2
f 93//88 94//88 95//88
f 91//2 93//2 88//2
f 87//2 88//2 96//2
f 88//2 93//2 96//2
f 93//87 95//87 96//87
f 96//2 97//2 100//2
f 97//2 98//2 99//2
f 97//87 99//87 100//87
f 86//2 87//2 100//2
f 87//2 96//2 100//2
f 100//2 101//2 86//2
f 101//2 102//2 86//2
f 102//2 103//2 86//2
f 103//2 104//2 107//2
f 104//2 105//2 106//2
f 104//89 106//89 107//89
f 103//2 107//2 108//2
f 85//2 86//2 108//2
f 108//2 86//2 103//2
f 108//2 109//2 85//2
f 109//2 110//2 85//2
f 110//2 154//2 84//2
f 154//2 111//2 84//2
f 111//2 112//2 115//2
f 84//2 111//2 115//2
f 112//2 113//2 114//2
f 114//87 115//87 112//87
f 115//2 116//2 84//2
f 116//2 117//2 84//2
f 117//2 118//2 84//2
f 110//2 84//2 85//2
f 148//2 149//2 80//2
f 80//2 145//2 146//2
f 81//2 138//2 144//2
f 138//89 81//89 137//89
f 128//2 82//2 127//2
f 144//2 145//2 81//2
f 142//2 143//2 138//2
f 143//87 144//87 138//87
f 139//2 140//2 141//2
f 141//2 142//2 139//2
f 120//2 121//2 122//2
f 122//2 123//2 120//2
f 123//2 124//2 119//2
f 120//2 123//2 119//2
f 124//2 125//2 119//2
f 125//2 126//2 83//2
f 126//2 127//2 82//2
f 142//2 138//2 139//2
f 135//2 136//2 129//2
f 136//87 137//87 128//87
f 135//2 129//2 130//2
f 134//2 135//2 130//2
f 133//88 134//88 131//88
f 131//2 132//2 133//2
f 130//2 131//2 134//2
f 81//2 128//2 137//2
f 63//90 64//90 140//90
f 38//4 39//4 115//4
f 13//5 89//5 88//5
f 65//6 141//6 140//6
f 40//91 116//91 115//91
f 13//92 14//92 90//92
f 66//93 142//93 141//93
f 41//94 117//94 116//94
f 15//11 91//11 90//11
f 67//12 143//12 142//12
f 42//95 118//95 117//95
f 16//14 92//14 91//14
f 68//15 144//15 143//15
f 43//96 119//96 118//96
f 17//17 93//17 92//17
f 69//97 145//97 144//97
f 44//19 120//19 119//19
f 18//98 94//98 93//98
f 70//21 146//21 145//21
f 45//99 121//99 120//99
f 19//23 95//23 94//23
f 71//24 147//24 146//24
f 46//100 122//100 121//100
f 20//101 96//101 95//101
f 72//102 148//102 147//102
f 47//103 123//103 122//103
f 21//29 97//29 96//29
f 73//30 149//30 148//30
f 48//104 124//104 123//104
f 22//105 98//105 97//105
f 49//33 125//33 124//33
f 23//34 99//34 98//34
f 50//106 126//106 125//106
f 24//36 100//36 99//36
f 51//37 127//37 126//37
f 25//107 101//107 100//107
f 52//39 128//39 127//39
f 25//108 26//108 102//108
f 53//109 129//109 128//109
f 27//42 103//42 102//42
f 54//43 130//43 129//43
f 28//110 104//110 103//110
f 55//45 131//45 130//45
f 29//111 105//111 104//111
f 30//112 106//112 105//112
f 4//113 80//113 79//113
f 56//49 132//49 131//49
f 31//114 107//114 106//114
f 4//115 5//115 81//115
f 57//52 133//52 132//52
f 32//116 108//116 107//116
f 6//54 82//54 81//54
f 58//117 134//117 133//117
f 32//118 33//118 109//118
f 7//119 83//119 82//119
f 59//120 135//120 134//120
f 34//121 110//121 109//121
f 8//60 84//60 83//60
f 60//61 136//61 135//61
f 35//122 111//122 154//122
f 9//123 85//123 84//123
f 61//124 137//124 136//124
f 36//45 112//45 111//45
f 10//125 86//125 85//125
f 62//67 138//67 137//67
f 37//68 113//68 112//68
f 11//126 87//126 86//126
f 63//70 139//70 138//70
f 38//127 114//127 113//127
f 12//128 88//128 87//128
f 153//122 154//122 110//122
f 157//73 160//73 159//73
f 168//74 164//74 163//74
f 170//129 175//129 159//129
f 168//130 164//130 175//130
f 173//131 165//131 168//131
f 155//78 156//78 168//78
f 172//132 157//132 174//132
f 172//80 167//80 158//80
f 167//133 173//133 170//133
f 171//82 169//82 156//82
f 174//134 161//134 160//134
f 156//135 163//135 162//135
