# Blender v3.5.1 OBJ File: 'omaigat.blend'
# www.blender.org
mtllib phone.mtl
o low_poly_interior.2280_Plane.163
v 6.959991 0.675947 -10.171117
v 6.965687 0.675947 -10.164517
v 6.962818 0.675947 -10.156285
v 6.954258 0.675947 -10.154653
v 6.948559 0.675947 -10.161251
v 6.951427 0.675947 -10.169483
v 6.962513 0.675947 -10.163912
v 6.958927 0.675947 -10.168064
v 6.960705 0.675947 -10.158733
v 6.955318 0.675947 -10.157705
v 6.951733 0.675947 -10.161857
v 6.953541 0.675947 -10.167037
v 6.725571 0.675701 -10.048768
v 6.726757 0.675701 -10.064952
v 6.825813 0.675701 -9.950195
v 6.809631 0.675701 -9.951385
v 6.924019 0.675701 -10.220062
v 6.907837 0.675701 -10.221251
v 7.008080 0.675701 -10.122678
v 7.006889 0.675701 -10.106494
v 6.725571 0.671703 -10.048768
v 6.726757 0.671703 -10.064952
v 6.825813 0.671703 -9.950195
v 6.809631 0.671703 -9.951385
v 6.924019 0.671703 -10.220062
v 6.907837 0.671703 -10.221251
v 7.008080 0.671703 -10.122678
v 7.006889 0.671703 -10.106494
v 6.780415 0.675947 -10.006733
v 6.776829 0.675947 -10.010884
v 6.778610 0.675947 -10.001553
v 6.773220 0.675947 -10.000525
v 6.769642 0.675947 -10.004678
v 6.771442 0.675947 -10.009856
v 6.729069 0.675846 -10.048391
v 6.730400 0.675846 -10.064091
v 6.825493 0.675846 -9.953920
v 6.809769 0.675846 -9.954899
v 6.923885 0.675846 -10.216547
v 6.908157 0.675846 -10.217525
v 7.004581 0.675846 -10.123055
v 7.003254 0.675846 -10.107356
vt 0.872149 0.589620
vt 0.872139 0.589593
vt 0.872149 0.589599
vt 0.872167 0.589643
vt 0.872139 0.589626
vt 0.872185 0.589620
vt 0.872167 0.589630
vt 0.872185 0.589599
vt 0.872196 0.589626
vt 0.872167 0.589577
vt 0.872196 0.589593
vt 0.872167 0.589589
vt 0.882408 0.674985
vt 0.882971 0.675028
vt 0.882365 0.675028
vt 0.865674 0.681413
vt 0.865649 0.681474
vt 0.865649 0.681413
vt 0.873664 0.678574
vt 0.873689 0.678055
vt 0.873689 0.678574
vt 0.865674 0.681474
vt 0.865649 0.681841
vt 0.865674 0.680907
vt 0.865649 0.680907
vt 0.873664 0.678055
vt 0.873689 0.678012
vt 0.873664 0.678618
vt 0.873689 0.678618
vt 0.865649 0.682600
vt 0.865674 0.682557
vt 0.865674 0.682600
vt 0.882971 0.675744
vt 0.882365 0.675744
vt 0.882408 0.675787
vt 0.882928 0.675787
vt 0.865649 0.682557
vt 0.865674 0.681841
vt 0.872149 0.589599
vt 0.872185 0.589599
vt 0.872167 0.589630
vt 0.876164 0.848650
vt 0.876727 0.848607
vt 0.876771 0.848650
vt 0.876771 0.849366
vt 0.876164 0.849366
vt 0.876727 0.849409
vt 0.876207 0.849409
vt 0.882928 0.674985
vt 0.865674 0.681841
vt 0.873664 0.678012
vt 0.865649 0.681841
vt 0.872149 0.589620
vt 0.872167 0.589589
vt 0.872185 0.589620
vt 0.876207 0.848607
vn 0.0000 1.0000 -0.0000
vn -0.9973 0.0000 -0.0731
vn 0.7570 0.0000 -0.6534
vn -0.7570 0.0000 0.6534
vn -0.6534 0.0000 -0.7570
vn 0.0734 0.0000 -0.9973
vn 0.9973 0.0000 0.0733
vn -0.0732 0.0000 0.9973
vn 0.6534 0.0000 0.7570
vn 0.0732 0.0000 -0.9973
vn -0.0734 0.0000 0.9973
usemtl low_poly_interior
s off
f 7/1/1 1/2/1 8/3/1
f 7/1/1 3/4/1 2/5/1
f 10/6/1 3/4/1 9/7/1
f 11/8/1 4/9/1 10/6/1
f 11/8/1 6/10/1 5/11/1
f 8/3/1 6/10/1 12/12/1
f 13/13/1 15/14/1 14/15/1
f 22/16/2 13/17/2 14/18/2
f 27/19/3 17/20/3 19/21/3
f 21/22/4 16/23/4 13/17/4
f 26/24/5 14/18/5 18/25/5
f 25/26/6 18/27/6 17/20/6
f 28/28/7 19/21/7 20/29/7
f 24/30/8 15/31/8 16/32/8
f 14/15/1 20/33/1 18/34/1
f 17/35/1 20/33/1 19/36/1
f 23/37/9 20/38/9 15/31/9
f 30/39/1 33/40/1 31/41/1
f 36/42/1 38/43/1 37/44/1
f 36/42/1 42/45/1 40/46/1
f 40/46/1 41/47/1 39/48/1
f 7/1/1 2/5/1 1/2/1
f 7/1/1 9/7/1 3/4/1
f 10/6/1 4/9/1 3/4/1
f 11/8/1 5/11/1 4/9/1
f 11/8/1 12/12/1 6/10/1
f 8/3/1 1/2/1 6/10/1
f 13/13/1 16/49/1 15/14/1
f 22/16/2 21/22/2 13/17/2
f 27/19/3 25/26/3 17/20/3
f 21/22/4 24/50/4 16/23/4
f 26/24/5 22/16/5 14/18/5
f 25/26/10 26/51/10 18/27/10
f 28/28/7 27/19/7 19/21/7
f 24/30/11 23/37/11 15/31/11
f 14/15/1 15/14/1 20/33/1
f 17/35/1 18/34/1 20/33/1
f 23/37/9 28/52/9 20/38/9
f 31/41/1 29/53/1 30/39/1
f 30/39/1 34/54/1 33/40/1
f 33/40/1 32/55/1 31/41/1
f 36/42/1 35/56/1 38/43/1
f 36/42/1 37/44/1 42/45/1
f 40/46/1 42/45/1 41/47/1
