# Blender v3.5.1 OBJ File: 'omaigat.blend'
# www.blender.org
mtllib plat.mtl
o low_poly_interior.755_Cube.629
v 4.350727 0.300051 -11.946870
v 4.350727 0.300051 -12.338051
v 12.163136 -0.033115 -11.946870
v 12.163136 0.300051 -11.946870
v 12.163136 0.300051 -12.338051
v 4.350727 -0.033115 -11.946870
v 12.163136 -0.033115 -12.338052
vt 0.888828 0.054960
vt 0.888828 0.056083
vt 0.888828 0.056083
vt 0.888351 0.054484
vt 0.861274 0.061520
vt 0.861274 0.061520
vt 0.861274 0.061520
vt 0.888828 0.054960
vt 0.888351 0.056559
vt 0.861274 0.061520
vn 0.0000 1.0000 0.0000
vn 0.0000 0.0000 1.0000
vn 1.0000 0.0000 0.0000
usemtl low_poly_interior
s off
f 4/1/1 2/2/1 1/3/1
f 1/3/2 3/4/2 4/1/2
f 5/5/3 3/6/3 7/7/3
f 4/1/1 5/8/1 2/2/1
f 1/3/2 6/9/2 3/4/2
f 5/5/3 4/10/3 3/6/3
