# Blender v3.5.1 OBJ File: 'omaigat.blend'
# www.blender.org
mtllib tirai1.mtl
o low_poly_interior.577_Cube.534
v 5.093159 4.412004 -11.963726
v 11.904377 4.412004 -12.082953
v 5.093159 0.041330 -11.955436
v 11.904377 0.041330 -11.902133
v 9.751713 4.412004 -12.082953
v 7.327553 4.412004 -12.082953
v 7.327553 0.041330 -11.746895
v 9.751713 0.041330 -11.955435
v 10.828041 4.412004 -12.082953
v 6.880676 0.041330 -11.865643
v 6.880676 4.412004 -11.963726
v 6.433796 4.412004 -12.082953
v 5.986919 4.412004 -11.963726
v 5.540043 4.412004 -12.082953
v 6.326153 0.041330 -11.827030
v 6.541435 0.041330 -11.827030
v 5.432400 0.041330 -11.827030
v 5.647678 0.041330 -11.827030
v 11.243603 0.041330 -11.797000
v 11.366211 4.412004 -11.958933
v 11.488815 0.041330 -11.797000
v 10.705441 0.041330 -11.908691
v 10.950649 0.041330 -11.908691
v 10.167274 0.041330 -11.797000
v 10.289879 4.412004 -11.958933
v 10.412483 0.041330 -11.797000
v 5.875572 0.041330 -11.913291
v 6.098263 0.041330 -11.913291
v 4.679966 4.412004 -5.051678
v 4.454262 0.072906 -5.051678
v 4.454266 4.412004 -6.592836
v 4.849045 0.072906 -6.592836
v 4.624249 0.072906 -6.284605
v 4.679970 4.412004 -6.284605
v 4.454266 4.412004 -5.976372
v 4.679970 4.412004 -5.668140
v 4.454262 4.412004 -5.359909
v 4.697342 0.072906 -5.902128
v 4.697342 0.072906 -6.050617
v 4.697342 0.072906 -5.285666
v 4.697342 0.072906 -5.434153
v 4.534050 0.072906 -5.591343
v 4.534050 0.072906 -5.744942
v 4.679966 4.412004 -10.248200
v 4.454262 0.072906 -10.248199
v 4.454266 4.412004 -11.789358
v 4.849045 0.072906 -11.789358
v 4.624249 0.072906 -11.481126
v 4.679970 4.412004 -11.481126
v 4.454266 4.412004 -11.172894
v 4.679970 4.412004 -10.864663
v 4.454262 4.412004 -10.556431
v 4.697342 0.072906 -11.098651
v 4.697342 0.072906 -11.247138
v 4.697342 0.072906 -10.482188
v 4.697342 0.072906 -10.630674
v 4.534050 0.072906 -10.787864
v 4.534050 0.072906 -10.941463
vt 0.778198 0.310039
vt 0.778198 0.310039
vt 0.778198 0.310039
vt 0.778198 0.310039
vt 0.778198 0.310039
vt 0.778198 0.310039
vt 0.778198 0.310039
vt 0.778198 0.310039
vt 0.778198 0.310039
vt 0.778198 0.310039
vt 0.778198 0.310039
vt 0.778198 0.310039
vt 0.778198 0.310039
vt 0.778198 0.310039
vt 0.778198 0.310039
vt 0.778198 0.310039
vt 0.778198 0.310039
vt 0.778198 0.310039
vt 0.778198 0.310039
vt 0.778198 0.310039
vt 0.778198 0.310039
vt 0.778198 0.310039
vt 0.778198 0.310039
vt 0.778198 0.310039
vt 0.778198 0.310039
vt 0.778198 0.310039
vt 0.778198 0.310039
vt 0.778198 0.310039
vt 0.778198 0.310039
vt 0.778198 0.310039
vt 0.778198 0.310039
vt 0.778198 0.310039
vt 0.778198 0.310039
vt 0.778198 0.310039
vt 0.778198 0.310039
vt 0.778198 0.310039
vt 0.778198 0.310039
vt 0.778198 0.310039
vt 0.778198 0.310039
vt 0.778198 0.310039
vt 0.778198 0.310039
vt 0.778198 0.310039
vt 0.778198 0.310039
vt 0.778198 0.310039
vt 0.778198 0.310039
vt 0.778198 0.310039
vt 0.778198 0.310039
vt 0.778198 0.310039
vt 0.778198 0.310039
vt 0.778198 0.310039
vt 0.778198 0.310039
vt 0.778198 0.310039
vt 0.778198 0.310039
vt 0.778198 0.310039
vt 0.778198 0.310039
vt 0.778198 0.310039
vt 0.778198 0.310039
vt 0.778198 0.310039
vn -0.1795 0.0424 0.9828
vn -0.0031 0.0387 0.9992
vn 0.0000 0.0335 0.9994
vn -0.1635 0.0372 0.9858
vn -0.0102 0.0363 0.9993
vn 0.0000 0.0182 0.9998
vn -0.2330 0.0414 0.9716
vn -0.1780 0.0332 0.9835
vn 0.0031 0.0387 0.9992
vn 0.1795 0.0424 0.9828
vn 0.0102 0.0363 0.9993
vn 0.1635 0.0372 0.9858
vn -0.0077 0.0618 0.9981
vn -0.2241 0.0254 0.9742
vn 0.2571 0.0741 0.9635
vn 0.2277 0.0481 0.9725
vn -0.1622 0.0319 0.9862
vn -0.1811 0.0619 0.9815
vn 0.0451 0.0412 0.9981
vn 0.1811 0.0619 0.9815
vn -0.1833 0.0415 0.9822
vn 0.1244 0.0390 0.9915
vn 0.1833 0.0415 0.9822
vn 0.2257 0.0422 0.9733
vn 0.9989 -0.0330 -0.0320
vn 0.8067 -0.0167 -0.5907
vn 0.9998 -0.0208 0.0000
vn 0.8067 -0.0167 0.5907
vn 0.9989 -0.0330 0.0320
vn 0.9979 0.0633 0.0126
vn 0.8391 -0.0060 0.5440
vn 0.8047 0.0732 -0.5892
vn 0.8063 0.0351 -0.5904
vn 0.9980 0.0554 -0.0319
vn 0.8104 0.0362 -0.5847
vn 0.9192 0.0582 0.3894
vn 0.9913 0.0230 -0.1293
vn 0.8104 0.0362 0.5847
vn 0.9192 0.0582 -0.3894
vn 0.8104 0.0362 0.5848
vn -0.3561 0.0273 0.9340
vn -0.0733 0.0224 0.9971
vn -0.3540 0.0018 0.9352
vn 0.2451 0.0401 0.9687
vn 0.6926 0.0511 0.7195
vn 0.6926 0.0511 -0.7195
vn 0.9867 -0.0127 0.1623
vn 0.6931 -0.0361 0.7200
usemtl low_poly_interior
s 1
f 23/1/1 20/2/2 9/3/3
f 28/4/4 12/5/5 13/6/6
f 5/7/7 24/8/8 25/9/9
f 25/9/9 22/10/10 9/3/3
f 14/11/11 27/12/12 13/6/6
f 11/13/13 7/14/14 6/15/15
f 1/16/16 17/17/17 14/11/11
f 15/18/18 16/19/19 12/5/5
f 17/17/17 18/20/20 14/11/11
f 16/19/19 11/13/13 12/5/5
f 19/21/21 21/22/22 20/2/2
f 22/10/10 23/1/1 9/3/3
f 24/8/8 26/23/23 25/9/9
f 27/12/12 28/4/4 13/6/6
f 21/22/22 2/24/24 20/2/2
f 43/25/25 35/26/26 36/27/27
f 37/28/28 42/29/29 36/27/27
f 34/30/30 32/31/31 31/32/32
f 29/33/33 40/34/34 37/28/35
f 38/35/36 39/36/37 35/26/38
f 40/34/34 41/37/39 37/28/35
f 39/36/37 34/30/30 35/26/38
f 42/29/29 43/25/25 36/27/27
f 58/38/25 50/39/26 51/40/27
f 52/41/28 57/42/29 51/40/27
f 49/43/30 47/44/31 46/45/32
f 44/46/33 55/47/34 52/41/35
f 53/48/36 54/49/37 50/39/40
f 55/47/34 56/50/39 52/41/35
f 54/49/37 49/43/30 50/39/40
f 57/42/29 58/38/25 51/40/27
f 23/1/1 19/21/21 20/2/2
f 28/4/4 15/18/18 12/5/5
f 5/7/7 8/51/41 24/8/8
f 25/9/9 26/23/23 22/10/10
f 14/11/11 18/20/20 27/12/12
f 11/13/13 10/52/42 7/14/14
f 1/16/16 3/53/43 17/17/17
f 16/19/19 10/52/42 11/13/13
f 21/22/22 4/54/44 2/24/24
f 43/25/45 38/35/36 35/26/38
f 37/28/35 41/37/39 42/29/46
f 34/30/30 33/55/47 32/31/31
f 29/33/48 30/56/48 40/34/48
f 39/36/37 33/55/47 34/30/30
f 58/38/45 53/48/36 50/39/40
f 52/41/35 56/50/39 57/42/46
f 49/43/30 48/57/47 47/44/31
f 44/46/48 45/58/48 55/47/48
f 54/49/37 48/57/47 49/43/30
