# Blender v3.5.1 OBJ File: 'omaigat.blend'
# www.blender.org
mtllib tv_table.mtl
o low_poly_interior.2244_2990_430_1930.043
v 11.733017 0.347061 -10.171204
v 11.733017 0.743998 -10.171204
v 11.733017 0.347061 -6.548872
v 11.733017 0.743998 -6.548872
v 11.121605 0.375669 -10.122753
v 11.121605 0.715387 -10.122753
v 11.121605 0.375669 -6.597324
v 11.121605 0.715387 -6.597324
v 11.121605 0.743998 -6.548872
v 11.121605 0.347061 -6.548872
v 11.121605 0.347061 -10.171204
v 11.121605 0.743998 -10.171204
v 11.191093 0.715387 -6.597324
v 11.191093 0.375669 -6.597324
v 11.191093 0.375669 -10.122753
v 11.191093 0.715387 -10.122753
v 11.709869 0.365622 -7.366852
v 11.709869 0.733950 -7.366852
v 11.172680 0.365622 -7.415304
v 11.172680 0.733950 -7.415304
v 11.172680 0.733950 -7.366852
v 11.172680 0.365622 -7.366852
v 11.709869 0.733950 -7.415304
v 11.709869 0.365622 -7.415304
v 11.709869 0.365622 -8.307213
v 11.709869 0.733950 -8.307213
v 11.172680 0.365622 -8.355663
v 11.172680 0.733950 -8.355663
v 11.172680 0.733950 -8.307213
v 11.172680 0.365622 -8.307213
v 11.709869 0.733950 -8.355663
v 11.709869 0.365622 -8.355663
v 11.709869 0.365622 -9.247572
v 11.709869 0.733950 -9.247572
v 11.172680 0.365622 -9.296023
v 11.172680 0.733950 -9.296023
v 11.172680 0.733950 -9.247572
v 11.172680 0.365622 -9.247572
v 11.709869 0.733950 -9.296023
v 11.709869 0.365622 -9.296023
vt 0.877663 0.143360
vt 0.876684 0.141937
vt 0.877663 0.141937
vt 0.872056 0.139772
vt 0.872056 0.133430
vt 0.872056 0.133430
vt 0.873640 0.139836
vt 0.874619 0.141259
vt 0.873640 0.141259
vt 0.876684 0.133377
vt 0.875705 0.139825
vt 0.875705 0.133377
vt 0.870574 0.139825
vt 0.870652 0.139772
vt 0.872134 0.139825
vt 0.870574 0.133377
vt 0.870652 0.133430
vt 0.872134 0.133377
vt 0.867552 0.045210
vt 0.868956 0.038868
vt 0.868956 0.045210
vt 0.870652 0.139772
vt 0.872056 0.139772
vt 0.870652 0.133430
vt 0.877663 0.143360
vt 0.876684 0.141937
vt 0.877663 0.141937
vt 0.872056 0.139772
vt 0.870574 0.139825
vt 0.870652 0.139772
vt 0.872056 0.139772
vt 0.877663 0.143360
vt 0.876684 0.141937
vt 0.877663 0.141937
vt 0.872056 0.139772
vt 0.870574 0.139825
vt 0.870652 0.139772
vt 0.872056 0.139772
vt 0.877663 0.143360
vt 0.876684 0.141937
vt 0.877663 0.141937
vt 0.872056 0.139772
vt 0.870574 0.139825
vt 0.870652 0.139772
vt 0.872056 0.139772
vt 0.876684 0.143360
vt 0.874619 0.139836
vt 0.876684 0.139825
vt 0.867552 0.038868
vt 0.876684 0.143360
vt 0.872134 0.139825
vt 0.870652 0.139772
vt 0.876684 0.143360
vt 0.872134 0.139825
vt 0.870652 0.139772
vt 0.876684 0.143360
vt 0.872134 0.139825
vt 0.870652 0.139772
vn 0.0000 0.0000 1.0000
vn 0.0000 1.0000 0.0000
vn 0.0000 0.0000 -1.0000
vn -1.0000 0.0000 0.0000
vn 0.0000 -1.0000 0.0000
vn 1.0000 0.0000 0.0000
usemtl low_poly_interior
s off
f 4/1/1 10/2/1 3/3/1
f 7/4/2 15/5/2 5/6/2
f 12/7/3 1/8/3 11/9/3
f 4/10/2 12/11/2 9/12/2
f 7/4/4 9/13/4 8/14/4
f 5/6/4 10/15/4 7/4/4
f 8/14/4 12/16/4 6/17/4
f 6/17/4 11/18/4 5/6/4
f 13/19/4 15/20/4 14/21/4
f 6/17/5 13/22/5 8/14/5
f 8/14/3 14/23/3 7/4/3
f 5/6/1 16/24/1 6/17/1
f 18/25/1 22/26/1 17/27/1
f 19/28/4 21/29/4 20/30/4
f 20/30/3 24/31/3 19/28/3
f 26/32/1 30/33/1 25/34/1
f 27/35/4 29/36/4 28/37/4
f 28/37/3 32/38/3 27/35/3
f 34/39/1 38/40/1 33/41/1
f 35/42/4 37/43/4 36/44/4
f 36/44/3 40/45/3 35/42/3
f 1/8/6 4/1/6 3/3/6
f 4/1/1 9/46/1 10/2/1
f 7/4/2 14/23/2 15/5/2
f 12/7/3 2/47/3 1/8/3
f 4/10/2 2/48/2 12/11/2
f 7/4/4 10/15/4 9/13/4
f 5/6/4 11/18/4 10/15/4
f 8/14/4 9/13/4 12/16/4
f 6/17/4 12/16/4 11/18/4
f 13/19/4 16/49/4 15/20/4
f 6/17/5 16/24/5 13/22/5
f 8/14/3 13/22/3 14/23/3
f 5/6/1 15/5/1 16/24/1
f 18/25/1 21/50/1 22/26/1
f 19/28/4 22/51/4 21/29/4
f 20/30/3 23/52/3 24/31/3
f 26/32/1 29/53/1 30/33/1
f 27/35/4 30/54/4 29/36/4
f 28/37/3 31/55/3 32/38/3
f 34/39/1 37/56/1 38/40/1
f 35/42/4 38/57/4 37/43/4
f 36/44/3 39/58/3 40/45/3
f 1/8/6 2/48/6 4/1/6
