# Blender v3.5.1 OBJ File: 'omaigat.blend'
# www.blender.org
mtllib bookShelf.mtl
o Bookshelf.001_Cube.104
v 11.332999 2.198260 -13.033679
v 11.332999 -0.004547 -13.033679
v 11.332999 2.198260 -12.924706
v 11.332999 -0.004547 -12.924706
v 10.309220 2.198260 -13.033679
v 10.309220 -0.004547 -13.033679
v 10.309220 2.198260 -12.924706
v 10.309220 -0.004547 -12.924706
v 11.332999 2.198260 -14.970346
v 11.332999 -0.004547 -14.970346
v 11.332999 2.198260 -14.861374
v 11.332999 -0.004547 -14.861374
v 10.309220 2.198260 -14.970346
v 10.309220 -0.004547 -14.970346
v 10.309220 2.198260 -14.861374
v 10.309220 -0.004547 -14.861374
v 11.332999 2.198259 -13.033679
v 11.332999 2.198260 -14.861374
v 11.332999 2.086297 -13.033679
v 11.332999 2.086297 -14.861374
v 10.309220 2.198259 -13.033679
v 10.309220 2.198260 -14.861374
v 10.309220 2.086297 -13.033679
v 10.309220 2.086297 -14.861374
v 11.332999 1.376307 -13.033679
v 11.332999 1.376307 -14.861374
v 11.332999 1.264344 -13.033679
v 11.332999 1.264344 -14.861374
v 10.309220 1.376307 -13.033679
v 10.309220 1.376307 -14.861374
v 10.309220 1.264344 -13.033679
v 10.309220 1.264344 -14.861374
v 11.332999 1.376307 -13.033679
v 11.332999 1.376307 -14.861374
v 11.332999 1.264344 -13.033679
v 11.332999 1.264344 -14.861374
v 10.309220 1.376307 -13.033679
v 10.309220 1.376307 -14.861374
v 10.309220 1.264344 -13.033679
v 10.309220 1.264344 -14.861374
v 11.332999 0.554353 -13.033679
v 11.332999 0.554354 -14.861374
v 11.332999 -0.004547 -13.033679
v 11.332999 -0.004547 -14.861374
v 10.309220 0.554353 -13.033679
v 10.309220 0.554354 -14.861374
v 10.309220 -0.004547 -13.033679
v 10.309220 -0.004547 -14.861374
vt 0.625000 0.000000
vt 0.375000 0.000000
vt 0.375000 0.250000
vt 0.625000 0.250000
vt 0.375000 0.500000
vt 0.625000 0.500000
vt 0.375000 0.750000
vt 0.625000 0.750000
vt 0.375000 1.000000
vt 0.125000 0.500000
vt 0.125000 0.750000
vt 0.875000 0.500000
vt 0.625000 0.000000
vt 0.375000 0.000000
vt 0.375000 0.250000
vt 0.625000 0.250000
vt 0.375000 0.500000
vt 0.625000 0.500000
vt 0.375000 0.750000
vt 0.625000 0.750000
vt 0.375000 1.000000
vt 0.125000 0.500000
vt 0.125000 0.750000
vt 0.875000 0.500000
vt 0.625000 0.000000
vt 0.375000 0.000000
vt 0.375000 0.250000
vt 0.625000 0.250000
vt 0.375000 0.500000
vt 0.625000 0.500000
vt 0.375000 0.750000
vt 0.625000 0.750000
vt 0.375000 1.000000
vt 0.125000 0.500000
vt 0.125000 0.750000
vt 0.875000 0.500000
vt 0.625000 0.000000
vt 0.375000 0.000000
vt 0.375000 0.250000
vt 0.625000 0.250000
vt 0.375000 0.500000
vt 0.625000 0.500000
vt 0.375000 0.750000
vt 0.625000 0.750000
vt 0.375000 1.000000
vt 0.125000 0.500000
vt 0.125000 0.750000
vt 0.875000 0.500000
vt 0.625000 0.000000
vt 0.375000 0.000000
vt 0.375000 0.250000
vt 0.625000 0.250000
vt 0.375000 0.500000
vt 0.625000 0.500000
vt 0.375000 0.750000
vt 0.625000 0.750000
vt 0.375000 1.000000
vt 0.125000 0.500000
vt 0.125000 0.750000
vt 0.875000 0.500000
vt 0.625000 0.000000
vt 0.375000 0.000000
vt 0.375000 0.250000
vt 0.625000 0.250000
vt 0.375000 0.500000
vt 0.625000 0.500000
vt 0.375000 0.750000
vt 0.625000 0.750000
vt 0.375000 1.000000
vt 0.125000 0.500000
vt 0.125000 0.750000
vt 0.875000 0.500000
vt 0.625000 1.000000
vt 0.875000 0.750000
vt 0.625000 1.000000
vt 0.875000 0.750000
vt 0.625000 1.000000
vt 0.875000 0.750000
vt 0.625000 1.000000
vt 0.875000 0.750000
vt 0.625000 1.000000
vt 0.875000 0.750000
vt 0.625000 1.000000
vt 0.875000 0.750000
vn 1.0000 0.0000 0.0000
vn 0.0000 0.0000 1.0000
vn -1.0000 0.0000 0.0000
vn 0.0000 0.0000 -1.0000
vn 0.0000 1.0000 0.0000
vn 0.0000 -1.0000 0.0000
usemtl White.019
s off
f 2/1/1 1/2/1 3/3/1
f 4/4/2 3/3/2 7/5/2
f 8/6/3 7/5/3 5/7/3
f 6/8/4 5/7/4 1/9/4
f 7/5/5 3/10/5 1/11/5
f 4/12/6 8/6/6 6/8/6
f 10/13/1 9/14/1 11/15/1
f 12/16/2 11/15/2 15/17/2
f 16/18/3 15/17/3 13/19/3
f 14/20/4 13/19/4 9/21/4
f 15/17/5 11/22/5 9/23/5
f 12/24/6 16/18/6 14/20/6
f 18/25/1 17/26/1 19/27/1
f 20/28/6 19/27/6 23/29/6
f 24/30/3 23/29/3 21/31/3
f 22/32/5 21/31/5 17/33/5
f 23/29/2 19/34/2 17/35/2
f 20/36/4 24/30/4 22/32/4
f 26/37/1 25/38/1 27/39/1
f 28/40/6 27/39/6 31/41/6
f 32/42/3 31/41/3 29/43/3
f 30/44/5 29/43/5 25/45/5
f 31/41/2 27/46/2 25/47/2
f 28/48/4 32/42/4 30/44/4
f 34/49/1 33/50/1 35/51/1
f 36/52/6 35/51/6 39/53/6
f 40/54/3 39/53/3 37/55/3
f 38/56/5 37/55/5 33/57/5
f 39/53/2 35/58/2 33/59/2
f 36/60/4 40/54/4 38/56/4
f 42/61/1 41/62/1 43/63/1
f 44/64/6 43/63/6 47/65/6
f 48/66/3 47/65/3 45/67/3
f 46/68/5 45/67/5 41/69/5
f 47/65/2 43/70/2 41/71/2
f 44/72/4 48/66/4 46/68/4
f 2/1/1 3/3/1 4/4/1
f 4/4/2 7/5/2 8/6/2
f 8/6/3 5/7/3 6/8/3
f 6/8/4 1/9/4 2/73/4
f 7/5/5 1/11/5 5/7/5
f 4/12/6 6/8/6 2/74/6
f 10/13/1 11/15/1 12/16/1
f 12/16/2 15/17/2 16/18/2
f 16/18/3 13/19/3 14/20/3
f 14/20/4 9/21/4 10/75/4
f 15/17/5 9/23/5 13/19/5
f 12/24/6 14/20/6 10/76/6
f 18/25/1 19/27/1 20/28/1
f 20/28/6 23/29/6 24/30/6
f 24/30/3 21/31/3 22/32/3
f 22/32/5 17/33/5 18/77/5
f 23/29/2 17/35/2 21/31/2
f 20/36/4 22/32/4 18/78/4
f 26/37/1 27/39/1 28/40/1
f 28/40/6 31/41/6 32/42/6
f 32/42/3 29/43/3 30/44/3
f 30/44/5 25/45/5 26/79/5
f 31/41/2 25/47/2 29/43/2
f 28/48/4 30/44/4 26/80/4
f 34/49/1 35/51/1 36/52/1
f 36/52/6 39/53/6 40/54/6
f 40/54/3 37/55/3 38/56/3
f 38/56/5 33/57/5 34/81/5
f 39/53/2 33/59/2 37/55/2
f 36/60/4 38/56/4 34/82/4
f 42/61/1 43/63/1 44/64/1
f 44/64/6 47/65/6 48/66/6
f 48/66/3 45/67/3 46/68/3
f 46/68/5 41/69/5 42/83/5
f 47/65/2 41/71/2 45/67/2
f 44/72/4 46/68/4 42/84/4
