# Blender v3.5.1 OBJ File: 'omaigat.blend'
# www.blender.org
mtllib hiasanDinding2.mtl
o Picture_Cube.105
v 5.759546 3.408576 -19.350447
v 5.759546 4.807583 -19.350447
v 5.759546 3.408576 -19.238783
v 5.759546 4.807583 -19.238783
v 10.184278 3.408576 -19.350447
v 10.184278 4.807583 -19.350447
v 10.184278 3.408576 -19.238783
v 10.184278 4.807583 -19.238783
vt 0.961844 0.995013
vt 0.961844 0.004988
vt 0.995013 0.004988
vt 0.995013 0.995012
vt 0.004988 0.004988
vt 0.004988 0.995013
vt 0.034527 0.004987
vt 0.995013 0.054758
vt 0.004988 0.945242
vt 0.034527 0.995012
vt 0.004988 0.054758
vt 0.995013 0.945242
vn -1.0000 0.0000 0.0000
vn 0.0000 0.0000 1.0000
vn 1.0000 0.0000 0.0000
vn 0.0000 -1.0000 0.0000
vn 0.0000 1.0000 0.0000
usemtl Picture.002
s off
f 2/1/1 1/2/1 3/3/1
f 4/4/2 3/3/2 7/5/2
f 8/6/3 7/5/3 5/7/3
f 7/5/4 3/3/4 1/8/4
f 4/4/5 8/6/5 6/9/5
f 2/1/1 3/3/1 4/4/1
f 4/4/2 7/5/2 8/6/2
f 8/6/3 5/7/3 6/10/3
f 7/5/4 1/8/4 5/11/4
f 4/4/5 6/9/5 2/12/5
