# Blender v3.5.1 OBJ File: 'omaigat.blend'
# www.blender.org
mtllib isiShelf.mtl
o Books_Cube.111
v 10.397348 1.384803 -14.750272
v 10.397348 2.051495 -14.774189
v 10.397348 1.381613 -14.839203
v 10.397348 2.048304 -14.863120
v 10.838946 1.384803 -14.750272
v 10.838946 2.051495 -14.774189
v 10.838946 1.381613 -14.839203
v 10.838946 2.048304 -14.863120
v 10.397348 1.382305 -14.653821
v 10.397348 2.049292 -14.661342
v 10.397348 1.382285 -14.742826
v 10.397348 2.049273 -14.750348
v 10.838946 1.382305 -14.653821
v 10.838946 2.049292 -14.661342
v 10.838946 1.382285 -14.742826
v 10.838946 2.049273 -14.750348
v 10.397348 1.381585 -14.555300
v 10.397348 2.048572 -14.562820
v 10.397348 1.381565 -14.644306
v 10.397348 2.048552 -14.651827
v 10.838946 1.381585 -14.555300
v 10.838946 2.048572 -14.562820
v 10.838946 1.381565 -14.644306
v 10.838946 2.048552 -14.651827
v 10.397467 1.380907 -14.456277
v 10.397212 2.047891 -14.465464
v 10.397484 1.380565 -14.545280
v 10.397229 2.047549 -14.554466
v 10.839065 1.381152 -14.456194
v 10.838810 2.048136 -14.465381
v 10.839082 1.380810 -14.545197
v 10.838827 2.047794 -14.554383
v 10.397348 1.380102 -14.352454
v 10.397348 2.047089 -14.359976
v 10.397348 1.380082 -14.441461
v 10.397348 2.047069 -14.448981
v 10.838946 1.380102 -14.352454
v 10.838946 2.047089 -14.359976
v 10.838946 1.380082 -14.441461
v 10.838946 2.047069 -14.448981
v 10.397348 1.379409 -14.257732
v 10.397348 2.046396 -14.265253
v 10.397348 1.379389 -14.346739
v 10.397348 2.046377 -14.354259
v 10.838946 1.379409 -14.257732
v 10.838946 2.046396 -14.265253
v 10.838946 1.379389 -14.346739
v 10.838946 2.046377 -14.354259
v 10.838946 1.379707 -14.053207
v 10.838946 2.046108 -14.037388
v 10.838946 1.375215 -13.964229
v 10.838946 2.041616 -13.948409
v 10.397348 1.379707 -14.053206
v 10.397348 2.046108 -14.037388
v 10.397348 1.375215 -13.964229
v 10.397348 2.041616 -13.948409
v 10.838946 1.378619 -14.149636
v 10.838946 2.045556 -14.150219
v 10.838946 1.377297 -14.060621
v 10.838946 2.044234 -14.061204
v 10.397348 1.378619 -14.149636
v 10.397348 2.045556 -14.150219
v 10.397348 1.377297 -14.060621
v 10.397348 2.044234 -14.061204
v 10.838946 1.379339 -14.248157
v 10.838946 2.046276 -14.248739
v 10.838946 1.378018 -14.159142
v 10.838946 2.044954 -14.159725
v 10.397348 1.379339 -14.248157
v 10.397348 2.046276 -14.248739
v 10.397348 1.378018 -14.159142
v 10.397348 2.044954 -14.159725
v 10.397348 1.378086 -13.831515
v 10.397348 2.044777 -13.855433
v 10.397348 1.374895 -13.920446
v 10.397348 2.041587 -13.944364
v 10.838946 1.378086 -13.831515
v 10.838946 2.044777 -13.855433
v 10.838946 1.374895 -13.920446
v 10.838946 2.041587 -13.944365
v 10.397348 1.375588 -13.735064
v 10.397348 2.042575 -13.742585
v 10.397348 1.375568 -13.824070
v 10.397348 2.042555 -13.831592
v 10.838946 1.375588 -13.735065
v 10.838946 2.042575 -13.742585
v 10.838946 1.375568 -13.824070
v 10.838946 2.042555 -13.831592
v 10.397348 1.374867 -13.636543
v 10.397348 2.041855 -13.644064
v 10.397348 1.374848 -13.725550
v 10.397348 2.041835 -13.733070
v 10.838946 1.374867 -13.636543
v 10.838946 2.041855 -13.644064
v 10.838946 1.374848 -13.725550
v 10.838946 2.041835 -13.733070
vt 0.375000 0.000000
vt 0.625000 0.250000
vt 0.375000 0.250000
vt 0.375000 0.500000
vt 0.625000 0.500000
vt 0.375000 0.750000
vt 0.625000 0.750000
vt 0.375000 1.000000
vt 0.125000 0.750000
vt 0.125000 0.500000
vt 0.875000 0.500000
vt 0.375000 0.000000
vt 0.625000 0.250000
vt 0.375000 0.250000
vt 0.375000 0.500000
vt 0.625000 0.500000
vt 0.375000 0.750000
vt 0.625000 0.750000
vt 0.375000 1.000000
vt 0.125000 0.750000
vt 0.125000 0.500000
vt 0.875000 0.500000
vt 0.625000 0.000000
vt 0.375000 0.250000
vt 0.375000 0.000000
vt 0.625000 0.250000
vt 0.375000 0.500000
vt 0.625000 0.750000
vt 0.375000 0.750000
vt 0.625000 1.000000
vt 0.375000 1.000000
vt 0.125000 0.500000
vt 0.125000 0.750000
vt 0.875000 0.500000
vt 0.625000 0.500000
vt 0.375000 0.000000
vt 0.625000 0.250000
vt 0.375000 0.250000
vt 0.625000 0.500000
vt 0.375000 0.500000
vt 0.375000 0.750000
vt 0.625000 0.750000
vt 0.375000 1.000000
vt 0.125000 0.500000
vt 0.125000 0.750000
vt 0.875000 0.500000
vt 0.625000 0.000000
vt 0.625000 1.000000
vt 0.875000 0.750000
vt 0.625000 0.000000
vt 0.625000 1.000000
vt 0.875000 0.750000
vt 0.875000 0.750000
vt 0.625000 0.000000
vt 0.625000 1.000000
vt 0.875000 0.750000
vt 0.625000 0.000000
vt 0.375000 0.250000
vt 0.375000 0.000000
vt 0.625000 0.250000
vt 0.375000 0.500000
vt 0.625000 0.500000
vt 0.375000 0.750000
vt 0.625000 0.750000
vt 0.375000 1.000000
vt 0.125000 0.750000
vt 0.125000 0.500000
vt 0.875000 0.500000
vt 0.375000 0.000000
vt 0.625000 0.250000
vt 0.375000 0.250000
vt 0.375000 0.500000
vt 0.625000 0.500000
vt 0.375000 0.750000
vt 0.625000 0.750000
vt 0.375000 1.000000
vt 0.125000 0.750000
vt 0.125000 0.500000
vt 0.875000 0.500000
vt 0.375000 0.000000
vt 0.625000 0.250000
vt 0.375000 0.250000
vt 0.625000 0.500000
vt 0.375000 0.500000
vt 0.375000 0.750000
vt 0.625000 0.750000
vt 0.375000 1.000000
vt 0.125000 0.750000
vt 0.125000 0.500000
vt 0.875000 0.750000
vt 0.625000 0.000000
vt 0.375000 0.250000
vt 0.375000 0.000000
vt 0.625000 0.250000
vt 0.375000 0.500000
vt 0.625000 0.750000
vt 0.375000 0.750000
vt 0.625000 1.000000
vt 0.375000 1.000000
vt 0.125000 0.500000
vt 0.125000 0.750000
vt 0.875000 0.500000
vt 0.625000 0.500000
vt 0.375000 0.000000
vt 0.625000 0.250000
vt 0.375000 0.250000
vt 0.625000 0.500000
vt 0.375000 0.500000
vt 0.375000 0.750000
vt 0.625000 0.750000
vt 0.375000 1.000000
vt 0.125000 0.500000
vt 0.125000 0.750000
vt 0.875000 0.500000
vt 0.625000 1.000000
vt 0.875000 0.750000
vt 0.625000 0.000000
vt 0.625000 1.000000
vt 0.875000 0.750000
vt 0.625000 0.000000
vt 0.625000 1.000000
vt 0.875000 0.500000
vt 0.875000 0.750000
vt 0.625000 0.000000
vt 0.625000 1.000000
vt 0.875000 0.750000
vt 0.375000 0.000000
vt 0.625000 0.250000
vt 0.375000 0.250000
vt 0.375000 0.500000
vt 0.625000 0.500000
vt 0.375000 0.750000
vt 0.625000 0.750000
vt 0.375000 1.000000
vt 0.125000 0.750000
vt 0.125000 0.500000
vt 0.875000 0.500000
vt 0.625000 0.000000
vt 0.375000 0.250000
vt 0.375000 0.000000
vt 0.625000 0.250000
vt 0.375000 0.500000
vt 0.625000 0.750000
vt 0.375000 0.750000
vt 0.625000 1.000000
vt 0.375000 1.000000
vt 0.125000 0.500000
vt 0.125000 0.750000
vt 0.875000 0.500000
vt 0.625000 0.500000
vt 0.375000 0.000000
vt 0.625000 0.250000
vt 0.375000 0.250000
vt 0.375000 0.500000
vt 0.625000 0.500000
vt 0.375000 0.750000
vt 0.625000 0.750000
vt 0.375000 1.000000
vt 0.125000 0.500000
vt 0.125000 0.750000
vt 0.875000 0.500000
vt 0.625000 0.000000
vt 0.625000 1.000000
vt 0.875000 0.750000
vt 0.875000 0.750000
vt 0.625000 0.000000
vt 0.625000 1.000000
vt 0.875000 0.750000
vn -1.0000 -0.0000 0.0000
vn 0.0000 -0.0113 -0.9999
vn 1.0000 0.0000 0.0000
vn 0.0000 0.0113 0.9999
vn 0.0000 -1.0000 0.0002
vn 0.0000 1.0000 -0.0002
vn 0.0000 0.0009 1.0000
vn 0.0000 -0.0009 -1.0000
vn 0.0000 -0.9999 -0.0148
vn 0.0000 0.9999 0.0148
vn 0.0000 -0.0359 -0.9994
vn 0.0000 0.0359 0.9994
vn 0.0000 -0.9994 0.0359
vn 0.0000 0.9994 -0.0359
vn -1.0000 -0.0004 -0.0002
vn 0.0002 -0.0138 -0.9999
vn 1.0000 0.0004 0.0002
vn -0.0002 0.0138 0.9999
vn 0.0006 -1.0000 0.0038
vn -0.0006 1.0000 -0.0038
vn 0.0000 -0.0237 0.9997
vn 0.0000 0.0237 -0.9997
vn -0.0000 -0.9987 -0.0504
vn 0.0000 0.9987 0.0504
usemtl Red.003
s off
f 9/1/1 12/2/1 11/3/1
f 12/2/2 15/4/2 11/3/2
f 16/5/3 13/6/3 15/4/3
f 14/7/4 9/8/4 13/6/4
f 15/4/5 9/9/5 11/10/5
f 12/11/6 14/7/6 16/5/6
f 33/12/1 36/13/1 35/14/1
f 36/13/2 39/15/2 35/14/2
f 40/16/3 37/17/3 39/15/3
f 38/18/4 33/19/4 37/17/4
f 39/15/5 33/20/5 35/21/5
f 36/22/6 38/18/6 40/16/6
f 58/23/3 59/24/3 57/25/3
f 60/26/7 63/27/7 59/24/7
f 63/27/1 62/28/1 61/29/1
f 61/29/8 58/30/8 57/31/8
f 59/32/9 61/29/9 57/33/9
f 60/34/10 62/28/10 64/35/10
f 89/36/1 92/37/1 91/38/1
f 91/38/2 96/39/2 95/40/2
f 96/39/3 93/41/3 95/40/3
f 94/42/4 89/43/4 93/41/4
f 91/44/5 93/41/5 89/45/5
f 92/46/6 94/42/6 96/39/6
f 9/1/1 10/47/1 12/2/1
f 12/2/2 16/5/2 15/4/2
f 16/5/3 14/7/3 13/6/3
f 14/7/4 10/48/4 9/8/4
f 15/4/5 13/6/5 9/9/5
f 12/11/6 10/49/6 14/7/6
f 33/12/1 34/50/1 36/13/1
f 36/13/2 40/16/2 39/15/2
f 40/16/3 38/18/3 37/17/3
f 38/18/4 34/51/4 33/19/4
f 39/15/5 37/17/5 33/20/5
f 36/22/6 34/52/6 38/18/6
f 58/23/3 60/26/3 59/24/3
f 60/26/7 64/35/7 63/27/7
f 63/27/1 64/35/1 62/28/1
f 61/29/8 62/28/8 58/30/8
f 59/32/9 63/27/9 61/29/9
f 60/34/10 58/53/10 62/28/10
f 89/36/1 90/54/1 92/37/1
f 91/38/2 92/37/2 96/39/2
f 96/39/3 94/42/3 93/41/3
f 94/42/4 90/55/4 89/43/4
f 91/44/5 95/40/5 93/41/5
f 92/46/6 90/56/6 94/42/6
usemtl Blue.003
f 2/57/1 3/58/1 1/59/1
f 4/60/11 7/61/11 3/58/11
f 8/62/3 5/63/3 7/61/3
f 6/64/12 1/65/12 5/63/12
f 7/61/13 1/66/13 3/67/13
f 4/68/14 6/64/14 8/62/14
f 17/69/1 20/70/1 19/71/1
f 20/70/2 23/72/2 19/71/2
f 24/73/3 21/74/3 23/72/3
f 22/75/4 17/76/4 21/74/4
f 23/72/5 17/77/5 19/78/5
f 20/79/6 22/75/6 24/73/6
f 25/80/15 28/81/15 27/82/15
f 27/82/16 32/83/16 31/84/16
f 32/83/17 29/85/17 31/84/17
f 30/86/18 25/87/18 29/85/18
f 31/84/19 25/88/19 27/89/19
f 32/83/20 26/90/20 30/86/20
f 66/91/3 67/92/3 65/93/3
f 68/94/7 71/95/7 67/92/7
f 71/95/1 70/96/1 69/97/1
f 69/97/8 66/98/8 65/99/8
f 67/100/9 69/97/9 65/101/9
f 68/102/10 70/96/10 72/103/10
f 81/104/1 84/105/1 83/106/1
f 83/106/2 88/107/2 87/108/2
f 88/107/3 85/109/3 87/108/3
f 86/110/4 81/111/4 85/109/4
f 83/112/5 85/109/5 81/113/5
f 84/114/6 86/110/6 88/107/6
f 2/57/1 4/60/1 3/58/1
f 4/60/11 8/62/11 7/61/11
f 8/62/3 6/64/3 5/63/3
f 6/64/12 2/115/12 1/65/12
f 7/61/13 5/63/13 1/66/13
f 4/68/14 2/116/14 6/64/14
f 17/69/1 18/117/1 20/70/1
f 20/70/2 24/73/2 23/72/2
f 24/73/3 22/75/3 21/74/3
f 22/75/4 18/118/4 17/76/4
f 23/72/5 21/74/5 17/77/5
f 20/79/6 18/119/6 22/75/6
f 25/80/15 26/120/15 28/81/15
f 27/82/16 28/81/16 32/83/16
f 32/83/17 30/86/17 29/85/17
f 30/86/18 26/121/18 25/87/18
f 31/84/19 29/85/19 25/88/19
f 32/83/20 28/122/20 26/90/20
f 66/91/3 68/94/3 67/92/3
f 68/94/7 72/103/7 71/95/7
f 71/95/1 72/103/1 70/96/1
f 69/97/8 70/96/8 66/98/8
f 67/100/9 71/95/9 69/97/9
f 68/102/10 66/123/10 70/96/10
f 81/104/1 82/124/1 84/105/1
f 83/106/2 84/105/2 88/107/2
f 88/107/3 86/110/3 85/109/3
f 86/110/4 82/125/4 81/111/4
f 83/112/5 87/108/5 85/109/5
f 84/114/6 82/126/6 86/110/6
usemtl Green.002
f 41/127/1 44/128/1 43/129/1
f 44/128/2 47/130/2 43/129/2
f 48/131/3 45/132/3 47/130/3
f 46/133/4 41/134/4 45/132/4
f 47/130/5 41/135/5 43/136/5
f 44/137/6 46/133/6 48/131/6
f 50/138/3 51/139/3 49/140/3
f 52/141/21 55/142/21 51/139/21
f 55/142/1 54/143/1 53/144/1
f 53/144/22 50/145/22 49/146/22
f 51/147/23 53/144/23 49/148/23
f 52/149/24 54/143/24 56/150/24
f 73/151/1 76/152/1 75/153/1
f 76/152/11 79/154/11 75/153/11
f 80/155/3 77/156/3 79/154/3
f 78/157/12 73/158/12 77/156/12
f 75/159/13 77/156/13 73/160/13
f 76/161/14 78/157/14 80/155/14
f 41/127/1 42/162/1 44/128/1
f 44/128/2 48/131/2 47/130/2
f 48/131/3 46/133/3 45/132/3
f 46/133/4 42/163/4 41/134/4
f 47/130/5 45/132/5 41/135/5
f 44/137/6 42/164/6 46/133/6
f 50/138/3 52/141/3 51/139/3
f 52/141/21 56/150/21 55/142/21
f 55/142/1 56/150/1 54/143/1
f 53/144/22 54/143/22 50/145/22
f 51/147/23 55/142/23 53/144/23
f 52/149/24 50/165/24 54/143/24
f 73/151/1 74/166/1 76/152/1
f 76/152/11 80/155/11 79/154/11
f 80/155/3 78/157/3 77/156/3
f 78/157/12 74/167/12 73/158/12
f 75/159/13 79/154/13 77/156/13
f 76/161/14 74/168/14 78/157/14
