# Blender v3.5.1 OBJ File: 'omaigat.blend'
# www.blender.org
mtllib bukuShelf6.mtl
o Photo_frame.001_Cube.019
v 1.860629 1.359084 3.528890
v 1.830739 1.574892 3.609781
v 1.997861 1.574892 3.671536
v 2.027752 1.359084 3.590646
v 1.939193 1.557806 3.677483
v 1.939080 1.565526 3.677826
v 1.941989 1.560053 3.681753
v 1.940670 1.569617 3.685322
v 1.938282 1.571287 3.679985
v 1.936439 1.573567 3.684971
v 1.868261 1.557806 3.651273
v 1.863384 1.560053 3.652707
v 1.868148 1.565526 3.651615
v 1.865508 1.573567 3.658760
v 1.867350 1.571287 3.653774
v 1.862065 1.569617 3.656276
v 1.864780 1.553803 3.660694
v 1.864672 1.561519 3.661022
v 1.862334 1.563247 3.655549
v 1.862147 1.552770 3.655992
v 1.935711 1.553803 3.686904
v 1.940749 1.552745 3.685045
v 1.940938 1.563247 3.684595
v 1.935603 1.561519 3.687233
v 1.939958 1.568797 3.687247
v 1.935596 1.572595 3.687253
v 1.934806 1.567280 3.689392
v 1.864664 1.572595 3.661042
v 1.861354 1.568797 3.658201
v 1.863874 1.567280 3.663181
v 1.838444 1.274486 3.729367
v 1.836613 1.270563 3.734285
v 1.833335 1.274653 3.731394
v 1.909375 1.274486 3.755578
v 1.911939 1.274653 3.760439
v 1.907545 1.270563 3.760495
v 1.834973 1.274482 3.738760
v 1.832634 1.274653 3.733290
v 1.835972 1.270563 3.736019
v 1.905904 1.274482 3.764971
v 1.906904 1.270563 3.762230
v 1.911239 1.274653 3.762336
v 1.941539 1.563957 3.671170
v 1.942329 1.569273 3.669032
v 1.944849 1.567755 3.674012
v 1.943120 1.580237 3.678690
v 1.940600 1.581755 3.673710
v 1.938758 1.584035 3.678696
v 1.870607 1.563957 3.644960
v 1.866244 1.567755 3.644966
v 1.871397 1.569273 3.642821
v 1.867826 1.584035 3.652486
v 1.869669 1.581755 3.647499
v 1.864516 1.580237 3.649644
v 1.869764 1.562985 3.647242
v 1.867921 1.565266 3.652228
v 1.865401 1.566783 3.647248
v 1.940695 1.562985 3.673452
v 1.944006 1.566783 3.676294
v 1.938853 1.565266 3.678439
v 1.942277 1.579265 3.680972
v 1.937914 1.583063 3.680978
v 1.937124 1.577747 3.683117
v 1.866983 1.583063 3.654768
v 1.863672 1.579265 3.651926
v 1.866192 1.577747 3.656906
v 2.097758 1.269792 3.595721
v 2.101068 1.273590 3.598562
v 2.095915 1.272072 3.600708
v 2.049127 1.648604 3.739127
v 2.044764 1.652402 3.739133
v 2.043974 1.647087 3.741272
v 1.804144 1.269792 3.487225
v 1.802302 1.272072 3.492211
v 1.799782 1.273590 3.487231
v 1.751151 1.652402 3.630637
v 1.747840 1.648604 3.627796
v 1.750360 1.647087 3.632776
v 2.060332 1.319219 3.581007
v 2.063642 1.323017 3.583848
v 2.068588 1.324558 3.581566
v 2.062229 1.316708 3.575872
v 2.019066 1.617159 3.692682
v 2.019840 1.622751 3.690585
v 2.028373 1.614901 3.690394
v 2.023428 1.613361 3.692676
v 1.837783 1.323017 3.500388
v 1.842146 1.319219 3.500382
v 1.844043 1.316708 3.495248
v 1.835510 1.324558 3.495439
v 1.797569 1.613361 3.609216
v 1.795296 1.614901 3.604267
v 1.801654 1.622751 3.609961
v 1.800880 1.617159 3.612057
v 1.757506 1.659729 3.613439
v 1.759137 1.657172 3.608326
v 1.754195 1.655931 3.610598
v 1.810499 1.277118 3.470027
v 1.806137 1.280916 3.470033
v 1.811008 1.282666 3.467952
v 2.105076 1.282666 3.576616
v 2.107423 1.280917 3.581364
v 2.104113 1.277118 3.578523
v 2.051119 1.659729 3.721935
v 2.055482 1.655931 3.721929
v 2.053204 1.657172 3.716990
v 1.797569 1.613361 3.609216
v 1.800880 1.617159 3.612057
v 1.799412 1.611352 3.613737
v 1.839479 1.322055 3.505300
v 1.842146 1.319219 3.500382
v 1.837783 1.323017 3.500388
v 2.059160 1.322055 3.586477
v 2.063642 1.323017 3.583848
v 2.060332 1.319219 3.581007
v 2.019066 1.617159 3.692682
v 2.023428 1.613361 3.692676
v 2.019089 1.611352 3.694912
vt 0.446089 0.000000
vt 0.279740 0.000000
vt 0.375000 0.000000
vt 0.375000 0.012202
vt 0.375000 0.237798
vt 0.375000 0.237798
vt 0.375000 0.250000
vt 0.375000 0.250000
vt 0.375000 0.250000
vt 0.375000 0.000000
vt 0.375000 0.000000
vt 0.553911 0.250000
vt 0.446089 0.250000
vt 0.553911 0.250000
vt 0.375000 0.237798
vt 0.375000 0.012202
vt 0.375000 0.012202
vt 0.375000 0.012202
vt 0.375000 0.237798
vt 0.375000 0.237798
vt 0.553911 0.012202
vt 0.446089 0.237798
vt 0.446089 0.012202
vt 0.446089 0.237798
vt 0.553911 0.012202
vt 0.446089 0.012202
vt 0.625000 0.237798
vt 0.625000 0.012202
vt 0.625000 0.012202
vt 0.577709 0.000000
vt 0.422291 0.000000
vt 0.422291 0.000000
vt 0.338383 0.503183
vt 0.161617 0.746817
vt 0.161617 0.503183
vt 0.422291 0.012202
vt 0.577709 0.237798
vt 0.422291 0.237798
vt 0.625000 0.012202
vt 0.625000 0.237798
vt 0.625000 0.012202
vt 0.422291 0.250000
vt 0.577709 0.250000
vt 0.577709 0.250000
vt 0.422291 0.237798
vt 0.577709 0.012202
vt 0.422291 0.012202
vt 0.622518 0.786617
vt 0.377482 0.963383
vt 0.377482 0.786617
vt 0.397335 0.724177
vt 0.397335 0.525823
vt 0.397335 0.724177
vt 0.838383 0.503183
vt 0.661617 0.746817
vt 0.661617 0.503183
vt 0.622518 0.003183
vt 0.377482 0.246817
vt 0.377482 0.003183
vt 0.622518 0.286617
vt 0.377482 0.463383
vt 0.377482 0.286617
vt 0.399953 0.522335
vt 0.600047 0.522335
vt 0.399953 0.522335
vt 0.600047 0.727665
vt 0.399953 0.727665
vt 0.600047 0.727665
vt 0.400456 0.520198
vt 0.377138 0.502138
vt 0.622862 0.502138
vt 0.395198 0.723335
vt 0.377138 0.747862
vt 0.602665 0.724177
vt 0.602665 0.525823
vt 0.602665 0.525823
vt 0.599544 0.729802
vt 0.605802 0.725394
vt 0.622862 0.747862
vt 0.604802 0.526665
vt 0.375000 0.012202
vt 0.553911 0.000000
vt 0.375000 0.237798
vt 0.375000 0.250000
vt 0.553911 0.237798
vt 0.553911 0.000000
vt 0.625000 0.237798
vt 0.553911 0.237798
vt 0.375000 0.237798
vt 0.375000 0.012202
vt 0.375000 0.237798
vt 0.375000 0.012202
vt 0.375000 0.000000
vt 0.625000 0.237798
vt 0.577709 0.237798
vt 0.422291 0.250000
vt 0.375000 0.012202
vt 0.577709 0.000000
vt 0.577709 0.012202
vt 0.161617 0.750000
vt 0.125000 0.746817
vt 0.622518 0.963383
vt 0.625000 0.963383
vt 0.622518 1.000000
vt 0.125000 0.503183
vt 0.161617 0.500000
vt 0.625000 0.286617
vt 0.622518 0.250000
vt 0.399953 0.727665
vt 0.397335 0.525823
vt 0.600047 0.522335
vt 0.600047 0.522335
vt 0.624972 0.503173
vt 0.623857 0.501143
vt 0.338383 0.500000
vt 0.374458 0.502995
vt 0.377647 0.750542
vt 0.375000 0.786617
vt 0.624972 0.746827
vt 0.623857 0.748857
vt 0.599709 0.525145
vt 0.602665 0.724177
vt 0.599709 0.724854
vt 0.377482 0.000000
vt 0.625000 0.246817
vt 0.625000 0.003183
vt 0.622518 0.246817
vt 0.625000 0.463383
vt 0.622518 0.463383
vt 0.338383 0.746817
vt 0.625000 0.786617
vt 0.599544 0.520198
vt 0.395198 0.526665
vt 0.604802 0.723335
vt 0.400456 0.729802
vt 0.400335 0.724856
vt 0.399953 0.727665
vt 0.375000 0.250000
vt 0.838383 0.746817
vt 0.394198 0.524606
vt 0.399338 0.731341
vt 0.600662 0.518659
vt 0.602665 0.724177
vt 0.397335 0.525823
vt 0.622518 0.000000
vt 0.338383 0.750000
vt 0.400335 0.525144
vt 0.425855 0.549034
vt 0.574582 0.549034
vt 0.425855 0.700966
vt 0.574582 0.700966
vn 0.9373 -0.0020 0.3485
vn 0.0000 -1.0000 0.0000
vn -0.9381 0.0033 -0.3464
vn 0.9385 -0.0036 0.3453
vn -0.9380 -0.0001 -0.3466
vn -0.3321 0.2866 0.8987
vn 0.1286 -0.9286 -0.3480
vn -0.3219 -0.3711 0.8710
vn 0.3219 0.3711 -0.8710
vn -0.1286 0.9286 0.3482
vn 0.9380 0.0000 0.3466
vn 0.1286 -0.9286 -0.3481
vn -0.1286 0.9286 0.3480
vn 0.0000 0.0000 1.0000
vn -0.1286 0.9286 0.3481
vn -0.9380 -0.0000 -0.3466
vn 0.3366 0.3710 -0.8655
vn 0.3201 0.3839 -0.8661
vn 0.3163 0.3651 -0.8756
vn 0.3236 0.3581 -0.8758
vn 0.3324 -0.2830 -0.8997
vn 0.3218 0.3711 -0.8710
vn 0.9382 -0.0034 0.3460
vn 0.9376 -0.0010 0.3476
vn 0.3325 -0.2830 -0.8996
vn -0.9380 0.0000 -0.3467
vn 0.3218 0.3711 -0.8711
vn -0.9380 -0.0001 -0.3467
vn -0.2400 -0.1813 0.9537
vn -0.9424 0.2584 -0.2125
vn -0.2630 0.2667 0.9272
vn 0.8552 0.2536 0.4520
vn -0.4375 -0.1804 0.8810
vn -0.4033 0.2670 0.8752
vn -0.1287 0.9286 0.3481
vn -0.3218 -0.3711 0.8710
vn -0.9380 0.0001 -0.3466
vn 0.3325 -0.2830 -0.8997
vn -0.0001 -1.0000 0.0000
vn -0.9382 0.0033 -0.3462
vn 0.3325 -0.2829 -0.8997
vn 0.9382 -0.0032 0.3461
vn 0.0001 -1.0000 0.0000
vn -0.3321 0.2866 0.8986
vn -0.9381 0.0033 -0.3462
vn -0.0000 -1.0000 0.0001
vn 0.9382 -0.0034 0.3461
vn 0.9380 -0.0001 0.3466
vn 0.9380 -0.0000 0.3467
vn -0.1285 0.9286 0.3481
vn 0.1287 -0.9286 -0.3481
vn -0.9380 -0.0000 -0.3465
vn 0.9380 0.0000 0.3465
vn -0.1287 0.9286 0.3482
vn 0.9380 0.0001 0.3466
vn -0.3218 -0.3710 0.8711
vn -0.3219 -0.3710 0.8710
vn 0.1285 -0.9287 -0.3480
vn -0.3220 -0.3710 0.8710
vn -0.9380 0.0002 -0.3466
vn -0.1287 0.9286 0.3480
vn 0.3008 -0.0415 -0.9528
vn 0.3861 0.4667 -0.7957
vn 0.3339 0.3665 -0.8684
vn -0.2677 -0.9587 0.0959
vn 0.0308 0.4984 -0.8664
vn -0.3021 -0.3457 -0.8884
vn -0.4366 0.7842 -0.4408
vn 0.5805 0.2063 -0.7877
vn -0.9331 -0.0219 -0.3588
vn 0.5260 0.4915 -0.6941
vn 0.1410 -0.9587 0.2470
vn -0.9396 0.0249 -0.3413
vn 0.3363 0.3711 -0.8655
vn 0.3199 0.3837 -0.8663
vn 0.3073 0.3709 -0.8763
vn 0.3238 0.3583 -0.8756
vn -0.2999 -0.3431 -0.8901
vn 0.3427 0.3703 -0.8634
vn 0.4764 -0.2444 -0.8446
vn 0.3117 0.6653 -0.6784
vn 0.9059 0.1688 0.3883
vn 0.9375 -0.0014 0.3481
vn -0.0228 0.4050 -0.9140
vn -0.1621 0.9282 0.3348
vn 0.2827 -0.0027 -0.9592
vn -0.8186 -0.2839 -0.4992
vn 0.3228 0.3715 -0.8705
vn -0.6347 -0.0088 0.7727
vn -0.3224 -0.3711 0.8709
vn 0.9012 0.1401 0.4102
vn -0.2234 -0.0481 0.9735
vn 0.9539 -0.0015 0.3001
vn -0.4572 0.8496 0.2627
vn -0.3552 -0.3702 0.8583
vn -0.8721 -0.3474 -0.3448
vn -0.2920 -0.5242 0.7999
vn -0.2766 -0.3502 0.8949
vn -0.0886 0.9754 -0.2018
vn -0.9002 0.0437 -0.4333
vn -0.1522 0.8934 0.4228
vn 0.6129 -0.0479 0.7887
vn 0.3645 -0.2836 -0.8870
vn 0.2871 -0.9569 0.0446
vn 0.3423 -0.9202 0.1898
vn -0.2995 0.2860 0.9102
vn -0.4043 -0.7836 0.4718
vn -0.9624 0.0003 -0.2716
vn -0.9382 0.0034 -0.3461
vn 0.0328 -0.9964 -0.0786
vn 0.9358 -0.2204 -0.2750
vn -0.0002 -1.0000 -0.0001
vn 0.3329 -0.2905 -0.8971
vn -0.9020 -0.3245 -0.2848
vn -0.9377 0.0028 -0.3474
vn -0.3553 0.5966 0.7196
vn -0.9249 0.0021 -0.3802
vn -0.3644 0.2869 0.8859
vn 0.9499 -0.0044 0.3124
vn -0.1965 0.5964 0.7783
vn -0.3001 0.2867 0.9098
vn 0.8686 -0.3319 0.3678
vn 0.3297 -0.2904 -0.8983
vn 0.9389 -0.0041 0.3441
vn 0.6270 0.2921 -0.7222
vn 0.1625 -0.9278 -0.3359
vn 0.3104 0.6060 -0.7324
vn 0.9024 0.1825 0.3903
vn -0.0224 0.4050 -0.9141
vn 0.3231 0.1886 -0.9274
vn -0.8568 -0.2347 -0.4592
vn -0.9380 -0.0001 -0.3465
vn 0.4181 -0.8947 -0.1569
vn -0.2878 -0.3715 0.8827
vn 0.8568 0.2347 0.4592
vn -0.3232 -0.1889 0.9273
vn -0.4576 0.8495 0.2627
vn -0.3555 -0.3703 0.8582
vn -0.9024 -0.1825 -0.3903
vn -0.3104 -0.6057 0.7326
vn -0.1769 -0.9811 0.0782
vn -0.9648 -0.0418 -0.2596
vn -0.0835 0.9811 -0.1744
vn -0.9018 0.0418 -0.4301
vn -0.9380 0.0002 -0.3467
vn -0.1381 0.6181 0.7738
vn 0.9005 -0.0323 0.4337
vn 0.9379 0.0001 0.3470
vn 0.3983 -0.6182 -0.6776
vn 0.9661 0.0323 0.2561
vn 0.4272 -0.8921 -0.1470
vn -0.3136 -0.3710 0.8740
vn 0.9371 0.0063 0.3489
vn -0.2840 -0.0211 0.9586
vn -0.3219 -0.3709 0.8711
vn -0.4693 0.8436 0.2611
vn -0.3298 -0.3710 0.8681
vn -0.9372 -0.0064 -0.3489
vn -0.3172 -0.6722 0.6689
vn -0.3218 -0.3711 0.8711
vn -0.0141 -0.9957 -0.0920
vn -0.9714 -0.0580 -0.2303
vn 0.1287 -0.9286 -0.3480
vn -0.0706 0.9957 0.0607
vn -0.8877 0.0579 -0.4567
vn 0.3372 0.3649 -0.8678
vn -0.4187 0.8267 -0.3760
vn -0.2103 -0.8325 -0.5125
vn 0.3117 0.3837 -0.8693
vn 0.2552 0.8843 0.3909
vn 0.3319 0.3584 -0.8726
vn 0.9388 -0.0060 0.3444
vn 0.5175 0.8555 0.0171
vn 0.3074 0.3709 -0.8763
vn 0.2598 -0.7776 -0.5726
vn 0.9737 0.0412 0.2240
vn -0.1750 0.7777 0.6037
vn 0.8854 -0.0412 0.4630
vn 0.4203 0.0134 -0.9073
vn 0.3363 0.3710 -0.8656
vn -0.0214 0.4204 -0.9071
vn 0.3466 0.0000 -0.9380
vn 0.6260 0.2766 -0.7291
vn 0.0151 -0.9999 0.0055
vn 0.2707 0.0132 -0.9626
vn -0.4690 0.2523 -0.8464
vn -0.1497 0.0647 -0.9866
vn 0.3223 0.3710 -0.8709
vn -0.7751 -0.1358 -0.6171
vn 0.3214 0.3711 -0.8712
vn -0.5284 0.2328 -0.8165
vn -0.4213 0.8727 -0.2467
vn 0.3221 0.3711 -0.8710
vn -0.8367 0.0456 0.5457
vn -0.0000 -0.0000 -0.5083
vn -0.6182 -0.5996 -0.5083
vn -0.4368 0.3803 0.8152
vn 0.0000 0.0000 0.4441
vn -0.4727 0.6861 0.5530
vn 0.5723 0.6566 0.4912
vn 0.5966 -0.3176 0.7370
vn 0.0000 0.0000 0.7370
vn -0.9373 0.0020 -0.3486
vn -0.9384 0.0036 -0.3455
vn 0.9380 -0.0033 0.3465
vn -0.3219 -0.3710 0.8711
vn 0.3274 0.3770 -0.8664
vn 0.3147 0.3770 -0.8711
vn 0.3071 0.3710 -0.8764
vn 0.3291 0.3651 -0.8709
vn -0.4726 -0.5643 0.6770
vn -0.9150 0.0204 -0.4030
vn -0.9264 -0.1581 -0.3418
vn 0.9252 -0.1621 0.3432
vn 0.9570 0.0160 0.2897
vn -0.0827 -0.5644 0.8214
vn 0.6184 0.7842 -0.0510
vn -0.4543 0.7526 -0.4767
vn 0.0896 0.2182 -0.9718
vn 0.3562 -0.9181 -0.1737
vn 0.3166 0.3882 -0.8655
vn 0.3984 0.2847 -0.8719
vn 0.3911 -0.0415 -0.9194
vn 0.3271 0.3538 -0.8763
vn 0.2411 0.4525 -0.8585
vn 0.2515 0.2684 -0.9299
vn 0.3097 0.3755 -0.8735
vn -0.1576 -0.9181 -0.3636
vn 0.1779 0.3325 -0.9262
vn 0.3116 -0.2822 -0.9073
vn 0.4090 -0.0027 -0.9125
vn 0.3209 0.3714 -0.8713
vn 0.9460 -0.2854 0.1536
vn 0.3551 0.3714 -0.8579
vn 0.2156 0.8947 0.3911
vn 0.2042 0.6652 -0.7182
vn -0.9382 -0.0005 -0.3461
vn -0.9403 0.1697 -0.2952
vn -0.3316 0.2866 0.8988
vn -0.0193 -0.0757 0.9969
vn 0.8860 -0.3479 0.3065
vn -0.3719 -0.3502 0.8597
vn -0.2984 -0.5242 0.7976
vn -0.0950 0.9277 0.3609
vn 0.0071 -0.2920 0.9564
vn -0.9510 0.1413 -0.2750
vn -0.9194 -0.0005 -0.3932
vn -0.4633 -0.0481 0.8849
vn -0.1592 0.8933 0.4202
vn -0.9788 -0.0477 0.1990
vn 0.1985 0.9754 -0.0956
vn 0.9376 -0.0011 0.3476
vn 0.9654 0.0424 0.2572
vn 0.0453 -0.3261 -0.9442
vn -0.0320 -0.9994 -0.0127
vn -0.0324 -0.9994 -0.0115
vn -0.6743 0.2069 0.7089
vn 0.0263 -0.9963 -0.0817
vn 0.0001 -1.0000 -0.0001
vn -0.5323 -0.2142 -0.8190
vn 0.0011 -0.7849 0.6196
vn 0.9085 -0.0064 0.4179
vn 0.2553 0.1099 -0.9606
vn 0.3313 -0.2829 -0.9001
vn -0.9376 0.0126 -0.3475
vn -0.2980 0.2771 0.9135
vn -0.9500 0.0137 -0.3120
vn -0.9222 -0.3756 -0.0921
vn 0.7577 -0.3832 0.5283
vn 0.9254 0.0066 0.3789
vn -0.3668 0.2773 0.8880
vn 0.9384 0.0062 0.3456
vn 0.3345 -0.2829 -0.8989
vn 0.4338 0.1098 -0.8943
vn 0.2880 0.3703 -0.8832
vn -0.1765 -0.8496 -0.4970
vn 0.3574 0.1888 -0.9147
vn 0.9495 -0.2347 0.2082
vn 0.3553 0.3715 -0.8577
vn 0.2406 0.6057 -0.7584
vn -0.9394 0.1825 -0.2903
vn 0.0946 -0.9283 -0.3597
vn -0.6114 -0.4049 0.6799
vn 0.9394 -0.1825 0.2902
vn -0.2404 -0.6060 0.7583
vn -0.0953 0.9278 0.3608
vn 0.0068 -0.2922 0.9563
vn -0.9495 0.2347 -0.2082
vn -0.3574 -0.1885 0.9147
vn 0.1553 -0.8869 -0.4351
vn -0.6325 0.0526 -0.7728
vn -0.1649 0.8869 0.4316
vn -0.9830 -0.0526 0.1759
vn -0.0911 0.9610 0.2611
vn 0.9473 0.3104 -0.0792
vn 0.1004 -0.9610 -0.2576
vn 0.1286 -0.9285 -0.3483
vn 0.6682 -0.3105 0.6761
vn 0.1204 -0.9286 -0.3511
vn -0.6205 -0.4075 0.6700
vn 0.9002 -0.3500 0.2591
vn -0.3210 -0.3774 0.8687
vn -0.1204 0.9286 0.3511
vn 0.0192 -0.2858 0.9581
vn -0.9426 0.3012 -0.1445
vn -0.3228 -0.3647 0.8734
vn 0.1620 -0.8707 -0.4644
vn -0.7952 0.0671 -0.6026
vn -0.1788 0.8707 0.4582
vn -0.9960 -0.0670 -0.0592
vn -0.2154 -0.5073 -0.8344
vn 0.3364 0.3711 -0.8655
vn -0.9388 0.0059 -0.3444
vn 0.1372 -0.9286 -0.3449
vn 0.6187 0.3053 -0.7239
vn -0.1372 0.9286 0.3449
vn 0.3238 0.3584 -0.8756
vn -0.0117 0.3945 -0.9188
vn 0.7402 -0.4560 -0.4942
vn 0.3065 0.3771 -0.8740
vn 0.0929 -0.9698 -0.2255
vn 0.8068 -0.1510 0.5711
vn -0.0760 0.9699 0.2315
vn 0.9844 0.1511 0.0907
vn -0.5824 -0.8129 0.0005
vn 0.3353 0.3792 -0.8624
vn 0.3311 0.3837 -0.8620
vn -0.7845 0.3693 -0.4981
vn 0.3125 0.3583 -0.8797
vn -0.0000 -1.0000 -0.0001
vn -0.4134 -0.8882 -0.2004
vn 0.3062 0.3791 -0.8732
vn 0.3612 0.0001 -0.9325
vn -0.4479 0.6138 -0.6502
vn 0.0017 -1.0000 0.0006
vn 0.8695 -0.1339 -0.4755
vn -0.5288 0.2327 -0.8162
vn 0.3219 0.3702 -0.8714
vn 0.0000 0.0000 0.6439
vn -0.6304 -0.4336 0.6439
vn 0.6243 0.7162 -0.3120
vn 0.0000 0.0000 0.8151
vn 0.1773 -0.4827 0.8576
vn 0.6759 -0.5884 0.4438
vn 0.0000 0.0000 0.2539
vn -0.8703 0.4220 0.2539
vn 0.6636 0.1291 0.7369
vn 0.3219 0.3710 -0.8710
vn 0.3466 -0.0002 -0.9380
vn 0.3218 0.3710 -0.8711
vn -0.4462 0.7519 -0.4853
vn 0.3466 -0.0001 -0.9380
vn 0.4805 0.8727 0.0866
vn -0.9372 -0.0067 -0.3488
vn 0.3217 0.3711 -0.8711
vn 0.3221 0.3702 -0.8713
vn -0.9379 0.0001 -0.3468
vn -0.9514 0.2461 -0.1849
usemtl Frame
s off
f 23/1/1 22/2/1 7/3/1
f 36/4/2 39/5/2 32/6/2
f 33/7/3 38/8/3 20/9/3
f 22/10/4 35/11/4 7/3/4
f 16/12/5 19/13/5 29/14/5
f 17/15/6 40/16/6 21/17/6
f 43/18/7 55/19/7 49/20/7
f 27/21/8 18/22/8 24/23/8
f 13/24/9 9/25/9 6/26/9
f 14/27/10 26/28/10 10/29/10
f 46/30/11 59/31/11 45/32/11
f 98/33/12 67/34/12 73/35/12
f 60/36/8 66/37/8 56/38/8
f 48/39/13 64/40/13 62/41/13
f 50/42/5 65/43/5 54/44/5
f 51/45/9 47/46/9 44/47/9
f 105/48/11 68/49/11 102/50/11
f 79/51/14 111/52/14 115/53/14
f 76/54/15 104/55/15 95/56/15
f 72/57/8 74/58/8 69/59/8
f 77/60/16 99/61/16 75/62/16
f 87/63/14 107/64/14 112/65/14
f 86/66/14 114/67/14 117/68/14
f 90/69/17 100/70/17 96/71/17
f 82/72/18 101/73/18 100/70/18
f 83/74/14 108/75/14 94/76/14
f 85/77/19 84/78/19 106/79/19
f 93/80/20 96/71/20 106/79/20
f 5/81/21 6/26/22 7/3/23
f 8/82/24 9/25/9 10/29/13
f 11/83/25 12/84/26 13/24/9
f 14/27/13 15/85/27 16/12/28
f 18/22/29 20/9/30 17/15/31
f 22/10/32 24/23/33 21/17/34
f 25/86/24 26/28/35 27/21/36
f 28/87/15 29/14/37 30/88/8
f 31/89/38 32/6/39 33/7/40
f 34/90/41 35/11/42 36/4/43
f 37/91/44 38/8/45 39/5/2
f 40/16/44 41/92/46 42/93/47
f 43/18/12 44/47/9 45/32/48
f 46/30/49 47/46/22 48/39/50
f 49/20/51 50/42/5 51/45/9
f 52/94/35 53/95/9 54/44/52
f 55/19/12 56/38/36 57/96/26
f 58/97/51 59/31/53 60/36/8
f 61/98/11 62/41/35 63/99/36
f 64/40/54 65/43/26 66/37/8
f 67/34/7 68/100/55 69/101/56
f 70/102/55 71/103/13 72/104/57
f 73/35/58 74/105/59 75/106/60
f 76/107/61 77/60/5 78/108/56
f 79/51/62 81/109/63 82/72/64
f 83/74/65 85/77/66 86/66/67
f 88/110/68 90/69/69 87/63/70
f 92/111/71 94/76/72 91/112/73
f 95/113/35 96/71/74 97/114/16
f 98/33/7 99/115/26 100/116/75
f 101/117/76 102/50/11 103/118/7
f 104/119/15 105/120/11 106/79/77
f 107/64/16 108/75/2 109/121/9
f 116/122/2 117/68/78 118/123/9
f 13/24/79 5/81/80 11/83/21
f 6/26/81 8/82/82 7/3/83
f 15/85/84 10/29/85 9/25/22
f 13/24/86 16/12/87 15/85/88
f 21/17/89 18/22/90 17/15/6
f 25/86/91 24/23/92 23/1/93
f 28/87/94 27/21/95 26/28/35
f 29/14/96 18/22/97 30/88/98
f 28/87/99 16/12/100 29/14/16
f 26/28/101 8/82/102 10/29/13
f 31/89/103 36/4/104 32/6/2
f 41/92/105 37/91/106 39/5/2
f 32/6/107 38/8/108 33/7/109
f 36/4/110 42/93/111 41/92/112
f 11/83/113 33/7/114 12/84/115
f 17/15/116 38/8/117 37/91/118
f 42/93/119 21/17/120 40/16/121
f 35/11/122 5/81/123 7/3/124
f 44/47/125 49/20/126 51/45/9
f 47/46/127 45/32/128 44/47/22
f 53/95/129 48/39/85 47/46/22
f 53/95/130 50/42/131 54/44/132
f 58/97/133 56/38/134 55/19/51
f 61/98/135 60/36/136 59/31/11
f 64/40/137 63/99/138 62/41/35
f 65/43/139 56/38/140 66/37/8
f 49/20/141 57/96/142 50/42/5
f 64/40/143 54/44/144 65/43/145
f 48/39/146 61/98/147 46/30/148
f 58/97/149 45/32/150 59/31/48
f 67/34/151 74/105/152 73/35/7
f 68/124/153 72/57/154 69/59/155
f 76/125/156 72/57/157 71/126/15
f 77/60/158 74/58/159 78/127/160
f 73/35/161 99/115/162 98/33/163
f 95/128/164 77/60/165 76/107/13
f 96/71/166 99/61/167 97/129/16
f 98/33/168 101/73/169 103/130/163
f 104/55/170 96/71/171 95/56/61
f 105/48/172 101/73/173 106/79/174
f 103/130/175 68/100/176 67/34/12
f 71/103/177 105/48/178 104/131/15
f 91/112/16 90/69/179 92/132/180
f 89/133/181 79/51/182 82/72/75
f 84/134/183 94/76/184 93/80/77
f 81/135/185 86/66/186 85/77/174
f 111/52/187 113/136/188 115/53/182
f 116/122/189 109/121/190 108/75/2
f 117/68/191 113/136/192 118/123/193
f 94/76/194 107/64/195 91/112/196
f 111/52/197 87/63/198 112/65/199
f 79/51/200 114/67/14 80/137/14
f 83/74/201 117/68/14 116/122/202
f 11/83/21 34/90/21 31/89/21
f 7/3/11 8/82/11 23/1/11
f 8/82/11 25/86/11 23/1/11
f 36/4/2 41/92/2 39/5/2
f 20/9/203 19/138/203 12/84/203
f 12/84/204 33/7/204 20/9/204
f 22/10/205 42/93/205 35/11/205
f 16/12/37 12/84/37 19/13/37
f 17/15/6 37/91/6 40/16/6
f 43/18/12 58/97/12 55/19/12
f 27/21/36 30/88/36 18/22/36
f 13/24/9 15/85/9 9/25/9
f 14/27/13 28/87/13 26/28/13
f 46/30/11 61/98/11 59/31/11
f 98/33/12 103/130/12 67/34/12
f 60/36/206 63/99/206 66/37/206
f 48/39/13 52/94/13 64/40/13
f 50/42/37 57/96/37 65/43/37
f 51/45/9 53/95/9 47/46/9
f 105/48/11 70/102/11 68/49/11
f 79/51/14 88/110/14 111/52/14
f 76/54/15 71/139/15 104/55/15
f 72/57/8 78/127/8 74/58/8
f 77/60/16 97/129/16 99/61/16
f 87/63/14 91/112/14 107/64/14
f 86/66/14 80/137/14 114/67/14
f 96/71/17 92/132/17 90/69/17
f 90/69/207 89/140/207 100/70/207
f 100/70/18 89/133/18 82/72/18
f 82/72/208 81/141/208 101/73/208
f 83/74/14 116/122/14 108/75/14
f 101/73/209 81/135/209 106/79/209
f 81/135/209 85/77/209 106/79/209
f 106/79/20 84/134/20 93/80/20
f 93/80/210 92/142/210 96/71/210
f 18/22/211 19/13/212 20/9/213
f 22/10/214 23/1/215 24/23/216
f 79/51/217 80/137/218 81/109/219
f 83/74/220 84/143/221 85/77/222
f 88/110/223 89/144/224 90/69/225
f 92/111/226 93/80/227 94/76/228
f 13/24/229 6/26/9 5/81/230
f 6/26/231 9/25/232 8/82/233
f 15/85/234 14/27/15 10/29/235
f 13/24/236 12/84/237 16/12/238
f 21/17/239 24/23/8 18/22/240
f 25/86/241 27/21/242 24/23/243
f 28/87/244 30/88/160 27/21/245
f 29/14/246 19/13/247 18/22/248
f 28/87/249 14/27/15 16/12/250
f 26/28/251 25/86/252 8/82/253
f 31/89/254 34/90/38 36/4/255
f 41/92/256 40/16/44 37/91/257
f 32/6/258 39/5/259 38/8/260
f 36/4/261 35/11/23 42/93/262
f 11/83/263 31/89/264 33/7/265
f 17/15/266 20/9/267 38/8/268
f 42/93/269 22/10/270 21/17/271
f 35/11/272 34/90/273 5/81/274
f 44/47/275 43/18/12 49/20/276
f 47/46/277 46/30/11 45/32/278
f 53/95/279 52/94/15 48/39/235
f 53/95/280 51/45/9 50/42/281
f 58/97/282 60/36/57 56/38/283
f 61/98/284 63/99/160 60/36/285
f 64/40/286 66/37/36 63/99/287
f 65/43/288 57/96/16 56/38/289
f 49/20/290 55/19/12 57/96/291
f 64/40/292 52/94/35 54/44/293
f 48/39/294 62/41/13 61/98/295
f 58/97/296 43/18/297 45/32/298
f 67/34/299 69/101/8 74/105/300
f 68/124/301 70/145/11 72/57/302
f 76/125/303 78/127/56 72/57/304
f 77/60/305 75/62/37 74/58/306
f 73/35/307 75/106/16 99/115/308
f 95/128/309 97/129/16 77/60/310
f 96/71/311 100/70/312 99/61/313
f 98/33/314 100/70/75 101/73/315
f 104/55/316 106/79/317 96/71/318
f 105/48/319 102/50/11 101/73/320
f 103/130/321 102/146/11 68/100/322
f 71/103/323 70/102/55 105/48/324
f 91/112/325 87/63/16 90/69/326
f 89/133/327 88/110/182 79/51/328
f 84/134/329 83/74/330 94/76/331
f 81/135/332 80/137/186 86/66/186
f 111/52/333 110/147/9 113/136/334
f 116/122/335 118/123/9 109/121/336
f 117/68/337 114/67/337 113/136/338
f 94/76/339 108/75/340 107/64/341
f 111/52/342 88/110/343 87/63/344
f 79/51/345 115/53/346 114/67/14
f 83/74/347 86/66/14 117/68/14
f 11/83/21 5/81/21 34/90/21
usemtl White
f 109/121/9 1/148/9 110/147/9
f 118/123/9 2/149/9 109/121/9
f 110/147/9 4/150/9 113/136/9
f 118/123/22 4/150/22 3/151/22
f 110/147/348 111/52/349 112/65/37
f 113/136/350 114/67/351 115/53/352
f 110/147/353 107/64/354 109/121/355
f 109/121/22 2/149/22 1/148/22
f 118/123/9 3/151/9 2/149/9
f 110/147/9 1/148/9 4/150/9
f 118/123/9 113/136/9 4/150/9
f 110/147/356 112/65/357 107/64/358
usemtl Pin_picture
f 2/149/9 4/150/9 1/148/9
f 2/149/9 3/151/9 4/150/9
