# Blender v3.5.1 OBJ File: 'omaigat.blend'
# www.blender.org
mtllib bukuShelf4.mtl
o Book.003_Cube.028
v 3.697811 1.284135 3.585126
v 3.421830 1.284135 4.012660
v 3.330317 1.284135 3.347901
v 3.054336 1.284135 3.775434
v 3.697811 1.349327 3.585126
v 3.421830 1.349327 4.012660
v 3.330317 1.362246 3.347901
v 3.054336 1.362246 3.775434
v 3.330317 1.271215 3.347901
v 3.711336 1.271215 3.593857
v 3.435355 1.271215 4.021390
v 3.054336 1.271215 3.775434
v 3.054336 1.349327 3.775434
v 3.330317 1.349327 3.347901
v 3.711336 1.362246 3.593857
v 3.435355 1.362246 4.021390
v 3.335108 1.271215 3.340480
v 3.716127 1.271215 3.586436
v 3.430565 1.271215 4.028811
v 3.049545 1.271215 3.782856
v 3.716127 1.362246 3.586436
v 3.335108 1.362246 3.340480
v 3.049545 1.362246 3.782856
v 3.430565 1.362246 4.028811
v 3.335108 1.284135 3.340480
v 3.702602 1.284135 3.577705
v 3.417039 1.284135 4.020081
v 3.049545 1.284135 3.782856
v 3.702602 1.349327 3.577705
v 3.335108 1.349327 3.340480
v 3.049545 1.349327 3.782856
v 3.417039 1.349327 4.020081
v 3.047165 1.271215 3.770806
v 3.323147 1.271215 3.343273
v 3.047165 1.362246 3.770806
v 3.323146 1.362246 3.343273
v 3.047165 1.284135 3.770806
v 3.323147 1.284135 3.343273
v 3.047165 1.349327 3.770806
v 3.323147 1.349327 3.343273
v 3.327937 1.271215 3.335851
v 3.327937 1.362246 3.335851
v 3.327937 1.284135 3.335851
v 3.042375 1.284135 3.778227
v 3.042375 1.271215 3.778227
v 3.327937 1.349327 3.335851
v 3.042375 1.349327 3.778227
v 3.042375 1.362246 3.778227
v 3.548607 1.372489 3.426793
v 3.593021 1.372489 3.899419
v 3.142352 1.372489 3.464971
v 3.186767 1.372489 3.937596
v 3.548607 1.433304 3.426793
v 3.593021 1.433304 3.899419
v 3.142352 1.445356 3.464971
v 3.186767 1.445356 3.937596
v 3.142352 1.360437 3.464971
v 3.563558 1.360437 3.425388
v 3.607973 1.360437 3.898014
v 3.186767 1.360437 3.937596
v 3.186767 1.433304 3.937596
v 3.142352 1.433304 3.464971
v 3.563558 1.445356 3.425388
v 3.607973 1.445356 3.898014
v 3.141581 1.360437 3.456767
v 3.562788 1.360437 3.417184
v 3.608744 1.360437 3.906218
v 3.187538 1.360437 3.945800
v 3.562787 1.445356 3.417184
v 3.141581 1.445356 3.456767
v 3.187538 1.445356 3.945800
v 3.608744 1.445356 3.906218
v 3.141581 1.372489 3.456767
v 3.547836 1.372489 3.418589
v 3.593792 1.372489 3.907623
v 3.187538 1.372489 3.945801
v 3.547836 1.433304 3.418589
v 3.141581 1.433304 3.456767
v 3.187538 1.433304 3.945801
v 3.593792 1.433304 3.907623
v 3.178840 1.360437 3.938341
v 3.134426 1.360437 3.465716
v 3.178840 1.445356 3.938341
v 3.134425 1.445356 3.465716
v 3.178840 1.372489 3.938341
v 3.134426 1.372489 3.465716
v 3.178840 1.433304 3.938341
v 3.134426 1.433304 3.465716
v 3.133655 1.360437 3.457511
v 3.133655 1.445356 3.457511
v 3.133655 1.372489 3.457511
v 3.179611 1.372489 3.946545
v 3.179611 1.360437 3.946545
v 3.133655 1.433304 3.457511
v 3.179611 1.433304 3.946545
v 3.179611 1.445356 3.946545
v 3.646595 1.460153 3.504056
v 3.505434 1.460153 3.978085
v 3.239134 1.460153 3.382719
v 3.097973 1.460153 3.856748
v 3.646595 1.523517 3.504056
v 3.505434 1.523517 3.978085
v 3.239134 1.536074 3.382719
v 3.097973 1.536074 3.856748
v 3.239134 1.447596 3.382719
v 3.661590 1.447596 3.508522
v 3.520430 1.447596 3.982551
v 3.097973 1.447596 3.856748
v 3.097973 1.523517 3.856748
v 3.239134 1.523517 3.382719
v 3.661590 1.536074 3.508522
v 3.520430 1.536074 3.982551
v 3.241584 1.447596 3.374490
v 3.664041 1.447596 3.500293
v 3.517979 1.447596 3.990779
v 3.095522 1.447596 3.864976
v 3.664041 1.536074 3.500293
v 3.241584 1.536074 3.374490
v 3.095522 1.536074 3.864976
v 3.517979 1.536074 3.990779
v 3.241584 1.460153 3.374490
v 3.649045 1.460153 3.495828
v 3.502983 1.460153 3.986314
v 3.095522 1.460153 3.864976
v 3.649045 1.523517 3.495828
v 3.241584 1.523517 3.374490
v 3.095522 1.523517 3.864976
v 3.502983 1.523517 3.986314
v 3.090023 1.447596 3.854380
v 3.231183 1.447596 3.380351
v 3.090023 1.536074 3.854380
v 3.231183 1.536074 3.380351
v 3.090023 1.460153 3.854380
v 3.231183 1.460153 3.380351
v 3.090023 1.523517 3.854380
v 3.231183 1.523517 3.380351
v 3.233634 1.447596 3.372123
v 3.233634 1.536074 3.372123
v 3.233634 1.460153 3.372123
v 3.087572 1.460153 3.862609
v 3.087572 1.447596 3.862609
v 3.233634 1.523517 3.372123
v 3.087572 1.523517 3.862609
v 3.087572 1.536074 3.862609
v 3.591403 1.547275 3.459003
v 3.556195 1.547275 3.934023
v 3.183090 1.547275 3.428739
v 3.147882 1.547275 3.903759
v 3.591403 1.608297 3.459003
v 3.556195 1.608297 3.934023
v 3.183090 1.620390 3.428739
v 3.147882 1.620390 3.903759
v 3.183090 1.535182 3.428739
v 3.606430 1.535182 3.460117
v 3.571222 1.535182 3.935137
v 3.147882 1.535182 3.903759
v 3.147882 1.608297 3.903759
v 3.183090 1.608297 3.428739
v 3.606430 1.620390 3.460117
v 3.571222 1.620390 3.935137
v 3.183701 1.535182 3.420494
v 3.607041 1.535182 3.451871
v 3.570611 1.535182 3.943382
v 3.147271 1.535182 3.912005
v 3.607041 1.620390 3.451871
v 3.183701 1.620390 3.420494
v 3.147271 1.620390 3.912005
v 3.570611 1.620390 3.943382
v 3.183701 1.547275 3.420494
v 3.592014 1.547275 3.450757
v 3.555583 1.547275 3.942269
v 3.147271 1.547275 3.912005
v 3.592014 1.608297 3.450757
v 3.183701 1.608297 3.420494
v 3.147271 1.608297 3.912005
v 3.555583 1.608297 3.942269
v 3.139915 1.535182 3.903169
v 3.175123 1.535182 3.428149
v 3.139915 1.620390 3.903169
v 3.175123 1.620390 3.428149
v 3.139915 1.547275 3.903169
v 3.175123 1.547275 3.428149
v 3.139915 1.608297 3.903169
v 3.175123 1.608297 3.428149
v 3.175734 1.535182 3.419903
v 3.175734 1.620390 3.419903
v 3.175734 1.547275 3.419903
v 3.139304 1.547275 3.911414
v 3.139304 1.535182 3.911414
v 3.175734 1.608297 3.419903
v 3.139304 1.608297 3.911414
v 3.139304 1.620390 3.911414
vt 0.625000 0.258874
vt 0.366126 0.500000
vt 0.375000 0.258874
vt 0.133874 0.741126
vt 0.133874 0.500000
vt 0.633874 0.500000
vt 0.866126 0.741126
vt 0.633874 0.741126
vt 0.625000 0.258874
vt 0.366126 0.500000
vt 0.375000 0.258874
vt 0.133874 0.741126
vt 0.133874 0.500000
vt 0.866126 0.500000
vt 0.633874 0.741126
vt 0.633874 0.500000
vt 0.625000 0.258874
vt 0.366126 0.500000
vt 0.375000 0.258874
vt 0.133874 0.741126
vt 0.133874 0.500000
vt 0.866126 0.500000
vt 0.633874 0.741126
vt 0.633874 0.500000
vt 0.625000 0.258874
vt 0.366126 0.500000
vt 0.375000 0.258874
vt 0.133874 0.500000
vt 0.366126 0.741126
vt 0.133874 0.741126
vt 0.633874 0.500000
vt 0.866126 0.741126
vt 0.633874 0.741126
vt 0.366126 0.741126
vt 0.866126 0.500000
vt 0.366126 0.741126
vt 0.866126 0.741126
vt 0.366126 0.741126
vt 0.866126 0.741126
vt 0.866126 0.500000
vt 0.375000 0.000000
vt 0.625000 0.250000
vt 0.375000 0.250000
vt 0.625000 0.500000
vt 0.375000 0.750000
vt 0.375000 0.500000
vt 0.625000 0.750000
vt 0.375000 1.000000
vt 0.625000 0.500000
vt 0.633874 0.500000
vt 0.633874 0.500000
vt 0.366126 0.500000
vt 0.366126 0.741126
vt 0.633874 0.500000
vt 0.366126 0.500000
vt 0.366126 0.500000
vt 0.375000 0.250000
vt 0.375000 0.250000
vt 0.375000 0.250000
vt 0.625000 0.750000
vt 0.375000 0.000000
vt 0.375000 0.500000
vt 0.133874 0.741126
vt 0.125000 0.500000
vt 0.133874 0.500000
vt 0.866126 0.741126
vt 0.875000 0.500000
vt 0.875000 0.750000
vt 0.375000 0.750000
vt 0.633874 0.741126
vt 0.125000 0.750000
vt 0.625000 0.000000
vt 0.625000 0.250000
vt 0.133874 0.500000
vt 0.625000 1.000000
vt 0.625000 1.000000
vt 0.375000 0.500000
vt 0.375000 0.258874
vt 0.625000 0.250000
vt 0.625000 0.258874
vt 0.375000 0.500000
vt 0.625000 0.250000
vt 0.625000 0.258874
vt 0.625000 0.500000
vt 0.625000 0.500000
vt 0.133874 0.500000
vt 0.866126 0.500000
vt 0.875000 0.500000
vt 0.866126 0.500000
vt 0.866126 0.500000
vt 0.625000 0.000000
vt 0.375000 1.000000
vt 0.375000 0.258874
vt 0.125000 0.500000
vt 0.625000 0.000000
vt 0.375000 0.250000
vt 0.375000 0.000000
vt 0.625000 0.500000
vt 0.375000 0.750000
vt 0.375000 0.500000
vt 0.625000 0.750000
vt 0.375000 1.000000
vt 0.633874 0.500000
vt 0.625000 0.500000
vt 0.633874 0.500000
vt 0.366126 0.741126
vt 0.366126 0.500000
vt 0.366126 0.500000
vt 0.366126 0.500000
vt 0.375000 0.250000
vt 0.375000 0.250000
vt 0.375000 0.250000
vt 0.625000 0.500000
vt 0.625000 0.750000
vt 0.375000 0.000000
vt 0.375000 0.750000
vt 0.375000 0.500000
vt 0.133874 0.741126
vt 0.125000 0.500000
vt 0.133874 0.500000
vt 0.866126 0.741126
vt 0.875000 0.500000
vt 0.875000 0.750000
vt 0.633874 0.741126
vt 0.125000 0.750000
vt 0.625000 0.250000
vt 0.625000 0.250000
vt 0.133874 0.500000
vt 0.625000 1.000000
vt 0.625000 1.000000
vt 0.375000 0.500000
vt 0.375000 0.500000
vt 0.375000 0.258874
vt 0.625000 0.250000
vt 0.625000 0.258874
vt 0.633874 0.500000
vt 0.625000 0.258874
vt 0.625000 0.500000
vt 0.133874 0.500000
vt 0.625000 0.250000
vt 0.866126 0.500000
vt 0.875000 0.500000
vt 0.866126 0.500000
vt 0.375000 0.000000
vt 0.625000 0.250000
vt 0.375000 0.250000
vt 0.375000 0.500000
vt 0.625000 0.750000
vt 0.375000 0.750000
vt 0.625000 1.000000
vt 0.375000 1.000000
vt 0.625000 0.500000
vt 0.633874 0.500000
vt 0.633874 0.500000
vt 0.366126 0.741126
vt 0.633874 0.500000
vt 0.366126 0.500000
vt 0.366126 0.500000
vt 0.366126 0.500000
vt 0.375000 0.250000
vt 0.375000 0.250000
vt 0.625000 0.500000
vt 0.625000 0.750000
vt 0.375000 0.000000
vt 0.375000 0.750000
vt 0.375000 0.500000
vt 0.133874 0.741126
vt 0.125000 0.500000
vt 0.133874 0.500000
vt 0.866126 0.741126
vt 0.875000 0.500000
vt 0.875000 0.750000
vt 0.633874 0.741126
vt 0.125000 0.750000
vt 0.625000 0.000000
vt 0.625000 0.250000
vt 0.133874 0.500000
vt 0.133874 0.500000
vt 0.625000 1.000000
vt 0.375000 0.500000
vt 0.375000 0.500000
vt 0.375000 0.258874
vt 0.625000 0.250000
vt 0.625000 0.258874
vt 0.625000 0.258874
vt 0.625000 0.500000
vt 0.625000 0.500000
vt 0.375000 0.250000
vt 0.866126 0.500000
vt 0.875000 0.500000
vt 0.866126 0.500000
vt 0.866126 0.500000
vt 0.625000 0.000000
vt 0.375000 1.000000
vt 0.375000 0.258874
vt 0.125000 0.500000
vt 0.866126 0.500000
vt 0.625000 0.000000
vt 0.375000 1.000000
vt 0.625000 0.250000
vt 0.375000 0.258874
vt 0.125000 0.500000
vt 0.625000 0.000000
vt 0.375000 0.250000
vt 0.375000 0.000000
vt 0.625000 0.500000
vt 0.375000 0.750000
vt 0.375000 0.500000
vt 0.625000 0.750000
vt 0.375000 1.000000
vt 0.625000 0.500000
vt 0.633874 0.500000
vt 0.633874 0.500000
vt 0.366126 0.741126
vt 0.366126 0.500000
vt 0.366126 0.500000
vt 0.366126 0.500000
vt 0.375000 0.250000
vt 0.375000 0.250000
vt 0.375000 0.250000
vt 0.625000 0.750000
vt 0.375000 0.000000
vt 0.375000 0.500000
vt 0.133874 0.741126
vt 0.125000 0.500000
vt 0.133874 0.500000
vt 0.866126 0.741126
vt 0.875000 0.500000
vt 0.875000 0.750000
vt 0.375000 0.750000
vt 0.633874 0.741126
vt 0.125000 0.750000
vt 0.625000 0.250000
vt 0.625000 0.250000
vt 0.133874 0.500000
vt 0.625000 1.000000
vt 0.625000 1.000000
vt 0.375000 0.500000
vt 0.375000 0.500000
vt 0.375000 0.258874
vt 0.625000 0.250000
vt 0.625000 0.258874
vt 0.633874 0.500000
vt 0.625000 0.258874
vt 0.625000 0.500000
vt 0.625000 0.500000
vt 0.133874 0.500000
vt 0.866126 0.500000
vt 0.875000 0.500000
vt 0.866126 0.500000
vt 0.625000 0.000000
vt 0.375000 1.000000
vt 0.625000 0.250000
vt 0.375000 0.258874
vt 0.125000 0.500000
vt 0.866126 0.500000
vn -0.8402 0.0000 -0.5423
vn 0.5423 0.0000 -0.8402
vn -0.5423 0.0000 0.8402
vn -0.9956 0.0000 0.0936
vn -0.0936 0.0000 -0.9956
vn 0.0936 0.0000 0.9956
vn -0.9584 0.0000 -0.2854
vn 0.2854 0.0000 -0.9584
vn -0.2854 -0.0000 0.9584
vn -0.9973 0.0000 -0.0739
vn 0.0739 0.0000 -0.9973
vn -0.0739 0.0000 0.9973
vn 0.0000 -1.0000 0.0000
vn -0.0000 1.0000 0.0000
vn 0.8402 0.0000 0.5423
vn -0.5424 0.0000 0.8401
vn 0.8401 0.0000 0.5424
vn -0.8402 0.0000 -0.5424
vn -0.8401 0.0000 -0.5424
vn 0.5424 0.0000 -0.8401
vn 0.9956 0.0000 -0.0936
vn -0.0935 0.0000 -0.9956
vn 0.9584 0.0000 0.2854
vn -0.2855 0.0000 0.9584
vn 0.9956 0.0000 -0.0935
vn -0.9956 0.0000 0.0935
vn 0.2855 0.0000 -0.9584
vn 0.9973 0.0000 0.0739
vn -0.0740 0.0000 0.9973
vn 0.0740 0.0000 -0.9973
usemtl White
s off
f 4/1/1 14/2/1 3/3/1
f 14/2/2 1/4/2 3/5/2
f 13/6/3 2/7/3 6/8/3
f 52/9/4 62/10/4 51/11/4
f 62/10/5 49/12/5 51/13/5
f 52/14/6 54/15/6 61/16/6
f 100/17/7 110/18/7 99/19/7
f 110/18/8 97/20/8 99/21/8
f 100/22/9 102/23/9 109/24/9
f 148/25/10 158/26/10 147/27/10
f 147/28/11 149/29/11 145/30/11
f 157/31/12 146/32/12 150/33/12
f 4/1/1 13/6/1 14/2/1
f 14/2/2 5/34/2 1/4/2
f 13/6/3 4/35/3 2/7/3
f 52/9/4 61/16/4 62/10/4
f 62/10/5 53/36/5 49/12/5
f 52/14/6 50/37/6 54/15/6
f 100/17/7 109/24/7 110/18/7
f 110/18/8 101/38/8 97/20/8
f 100/22/9 98/39/9 102/23/9
f 148/25/10 157/31/10 158/26/10
f 147/28/11 158/26/11 149/29/11
f 157/31/12 148/40/12 146/32/12
usemtl Red
f 10/41/13 12/42/13 9/43/13
f 8/44/14 15/45/14 7/46/14
f 16/47/15 10/48/15 15/45/15
f 23/49/16 47/50/16 31/51/16
f 5/34/13 30/52/13 29/53/13
f 14/2/13 39/54/13 40/55/13
f 30/52/13 40/55/13 46/56/13
f 17/57/13 34/58/13 41/59/13
f 8/44/14 24/60/14 16/47/14
f 9/43/13 18/61/13 10/41/13
f 15/45/14 22/62/14 7/46/14
f 26/63/2 17/64/2 25/65/2
f 27/66/3 20/67/3 19/68/3
f 29/53/2 22/62/2 21/69/2
f 32/70/3 23/49/3 31/51/3
f 29/53/2 18/71/2 26/63/2
f 32/70/3 19/68/3 24/60/3
f 11/72/13 20/73/13 12/42/13
f 6/8/13 31/51/13 13/6/13
f 10/48/17 21/69/17 15/45/17
f 25/65/14 38/74/14 3/5/14
f 5/34/1 26/63/1 1/4/1
f 16/47/17 19/75/17 11/76/17
f 2/7/18 32/70/18 6/8/18
f 3/5/14 26/63/14 25/65/14
f 30/52/2 42/77/2 22/62/2
f 4/35/14 27/66/14 2/7/14
f 40/55/19 42/77/19 46/56/19
f 38/78/1 33/79/1 37/80/1
f 39/54/1 36/81/1 40/55/1
f 37/80/1 45/82/1 44/83/1
f 39/54/1 48/84/1 35/85/1
f 38/78/1 41/59/1 34/58/1
f 9/43/13 33/79/13 34/58/13
f 17/64/20 43/86/20 25/65/20
f 23/49/14 35/85/14 48/84/14
f 7/46/14 42/77/14 36/81/14
f 31/51/13 39/54/13 13/6/13
f 20/73/13 33/79/13 12/42/13
f 7/46/14 35/85/14 8/44/14
f 28/87/16 45/88/16 20/67/16
f 4/1/14 38/78/14 37/80/14
f 28/87/14 37/89/14 44/90/14
f 10/41/13 11/72/13 12/42/13
f 8/44/14 16/47/14 15/45/14
f 16/47/15 11/76/15 10/48/15
f 23/49/3 48/84/3 47/50/3
f 5/34/13 14/2/13 30/52/13
f 14/2/13 13/6/13 39/54/13
f 30/52/13 14/2/13 40/55/13
f 17/57/13 9/43/13 34/58/13
f 8/44/14 23/49/14 24/60/14
f 9/43/13 17/57/13 18/61/13
f 15/45/14 21/69/14 22/62/14
f 26/63/2 18/71/2 17/64/2
f 27/66/3 28/87/3 20/67/3
f 29/53/2 30/52/2 22/62/2
f 32/70/3 24/60/3 23/49/3
f 29/53/2 21/69/2 18/71/2
f 32/70/3 27/66/3 19/68/3
f 11/72/13 19/91/13 20/73/13
f 6/8/13 32/70/13 31/51/13
f 10/48/15 18/92/15 21/69/15
f 25/65/14 43/86/14 38/74/14
f 5/34/19 29/53/19 26/63/19
f 16/47/15 24/60/15 19/75/15
f 2/7/18 27/66/18 32/70/18
f 3/5/14 1/4/14 26/63/14
f 30/52/2 46/56/2 42/77/2
f 4/35/14 28/87/14 27/66/14
f 40/55/1 36/81/1 42/77/1
f 38/78/1 34/58/1 33/79/1
f 39/54/1 35/85/1 36/81/1
f 37/80/1 33/79/1 45/82/1
f 39/54/1 47/50/1 48/84/1
f 38/78/1 43/93/1 41/59/1
f 9/43/13 12/42/13 33/79/13
f 17/64/2 41/94/2 43/86/2
f 23/49/14 8/44/14 35/85/14
f 7/46/14 22/62/14 42/77/14
f 31/51/13 47/50/13 39/54/13
f 20/73/13 45/82/13 33/79/13
f 7/46/14 36/81/14 35/85/14
f 28/87/3 44/90/3 45/88/3
f 4/1/14 3/3/14 38/78/14
f 28/87/14 4/35/14 37/89/14
usemtl Blue
f 59/95/13 57/96/13 58/97/13
f 56/98/14 63/99/14 55/100/14
f 64/101/21 58/102/21 63/99/21
f 79/103/6 96/104/6 95/105/6
f 62/10/13 77/106/13 53/36/13
f 61/16/13 88/107/13 62/10/13
f 78/108/13 88/107/13 94/109/13
f 65/110/13 82/111/13 89/112/13
f 64/101/14 71/113/14 72/114/14
f 57/96/13 66/115/13 58/97/13
f 55/100/14 69/116/14 70/117/14
f 74/118/5 65/119/5 73/120/5
f 75/121/6 68/122/6 67/123/6
f 77/106/5 70/117/5 69/116/5
f 80/124/6 71/113/6 79/103/6
f 77/106/22 66/125/22 74/118/22
f 80/124/6 67/123/6 72/114/6
f 59/95/13 68/126/13 60/127/13
f 54/15/13 79/103/13 61/16/13
f 58/102/21 69/116/21 63/99/21
f 73/120/14 86/128/14 51/13/14
f 53/36/4 74/118/4 49/12/4
f 64/101/21 67/129/21 59/130/21
f 50/37/4 80/124/4 54/15/4
f 51/13/14 74/118/14 73/120/14
f 78/108/5 90/131/5 70/117/5
f 52/14/14 75/121/14 50/37/14
f 84/132/4 94/109/4 88/107/4
f 86/133/4 81/134/4 85/135/4
f 87/136/4 84/132/4 88/107/4
f 81/134/4 92/137/4 85/135/4
f 87/136/4 96/104/4 83/138/4
f 86/133/4 89/112/4 82/111/4
f 60/127/13 82/111/13 57/96/13
f 65/119/5 91/139/5 73/120/5
f 56/98/14 96/104/14 71/113/14
f 55/100/14 90/131/14 84/132/14
f 61/16/13 95/105/13 87/136/13
f 60/127/13 93/140/13 81/134/13
f 56/98/14 84/132/14 83/138/14
f 76/141/6 93/142/6 68/122/6
f 51/11/14 85/135/14 52/9/14
f 52/14/14 92/143/14 76/141/14
f 106/144/13 108/145/13 105/146/13
f 103/147/14 112/148/14 111/149/14
f 111/149/23 107/150/23 106/151/23
f 119/152/9 143/153/9 127/154/9
f 110/18/13 125/155/13 101/38/13
f 110/18/13 135/156/13 136/157/13
f 110/18/13 142/158/13 126/159/13
f 105/146/13 137/160/13 113/161/13
f 104/162/14 120/163/14 112/148/14
f 105/146/13 114/164/13 106/144/13
f 103/147/14 117/165/14 118/166/14
f 122/167/8 113/168/8 121/169/8
f 123/170/9 116/171/9 115/172/9
f 125/155/8 118/166/8 117/165/8
f 128/173/9 119/152/9 127/154/9
f 125/155/8 114/174/8 122/167/8
f 128/173/9 115/172/9 120/163/9
f 107/175/13 116/176/13 108/145/13
f 102/23/13 127/154/13 109/24/13
f 106/151/23 117/165/23 111/149/23
f 99/21/14 139/177/14 134/178/14
f 101/38/7 122/167/7 97/20/7
f 112/148/23 115/179/23 107/150/23
f 98/39/7 128/173/7 102/23/7
f 99/21/14 122/167/14 121/169/14
f 126/159/8 138/180/8 118/166/8
f 100/22/14 123/170/14 98/39/14
f 132/181/7 142/158/7 136/157/7
f 134/182/7 129/183/7 133/184/7
f 135/156/7 132/181/7 136/157/7
f 129/183/7 140/185/7 133/184/7
f 135/156/7 144/186/7 131/187/7
f 134/182/7 137/160/7 130/188/7
f 108/145/13 130/188/13 105/146/13
f 113/168/8 139/177/8 121/169/8
f 104/162/14 144/186/14 119/152/14
f 103/147/14 138/180/14 132/181/14
f 109/24/13 143/153/13 135/156/13
f 116/176/13 129/183/13 108/145/13
f 103/147/14 131/187/14 104/162/14
f 124/189/24 141/190/24 116/171/24
f 100/17/14 134/182/14 133/184/14
f 124/189/14 133/191/14 140/192/14
f 59/95/13 60/127/13 57/96/13
f 56/98/14 64/101/14 63/99/14
f 64/101/21 59/130/21 58/102/21
f 79/103/6 71/113/6 96/104/6
f 62/10/13 78/108/13 77/106/13
f 61/16/13 87/136/13 88/107/13
f 78/108/13 62/10/13 88/107/13
f 65/110/13 57/96/13 82/111/13
f 64/101/14 56/98/14 71/113/14
f 57/96/13 65/110/13 66/115/13
f 55/100/14 63/99/14 69/116/14
f 74/118/5 66/125/5 65/119/5
f 75/121/6 76/141/6 68/122/6
f 77/106/5 78/108/5 70/117/5
f 80/124/6 72/114/6 71/113/6
f 77/106/5 69/116/5 66/125/5
f 80/124/6 75/121/6 67/123/6
f 59/95/13 67/193/13 68/126/13
f 54/15/13 80/124/13 79/103/13
f 58/102/25 66/194/25 69/116/25
f 73/120/14 91/139/14 86/128/14
f 53/36/4 77/106/4 74/118/4
f 64/101/21 72/114/21 67/129/21
f 50/37/26 75/121/26 80/124/26
f 51/13/14 49/12/14 74/118/14
f 78/108/5 94/109/5 90/131/5
f 52/14/14 76/141/14 75/121/14
f 84/132/26 90/131/26 94/109/26
f 86/133/4 82/111/4 81/134/4
f 87/136/4 83/138/4 84/132/4
f 81/134/4 93/140/4 92/137/4
f 87/136/4 95/105/4 96/104/4
f 86/133/4 91/195/4 89/112/4
f 60/127/13 81/134/13 82/111/13
f 65/119/5 89/196/5 91/139/5
f 56/98/14 83/138/14 96/104/14
f 55/100/14 70/117/14 90/131/14
f 61/16/13 79/103/13 95/105/13
f 60/127/13 68/126/13 93/140/13
f 56/98/14 55/100/14 84/132/14
f 76/141/6 92/143/6 93/142/6
f 51/11/14 86/133/14 85/135/14
f 52/14/14 85/197/14 92/143/14
f 106/144/13 107/175/13 108/145/13
f 103/147/14 104/162/14 112/148/14
f 111/149/23 112/148/23 107/150/23
f 119/152/9 144/186/9 143/153/9
f 110/18/13 126/159/13 125/155/13
f 110/18/13 109/24/13 135/156/13
f 110/18/13 136/157/13 142/158/13
f 105/146/13 130/188/13 137/160/13
f 104/162/14 119/152/14 120/163/14
f 105/146/13 113/161/13 114/164/13
f 103/147/14 111/149/14 117/165/14
f 122/167/8 114/174/8 113/168/8
f 123/170/9 124/189/9 116/171/9
f 125/155/8 126/159/8 118/166/8
f 128/173/9 120/163/9 119/152/9
f 125/155/8 117/165/8 114/174/8
f 128/173/9 123/170/9 115/172/9
f 107/175/13 115/198/13 116/176/13
f 102/23/13 128/173/13 127/154/13
f 106/151/23 114/199/23 117/165/23
f 99/21/14 121/169/14 139/177/14
f 101/38/7 125/155/7 122/167/7
f 112/148/23 120/163/23 115/179/23
f 98/39/7 123/170/7 128/173/7
f 99/21/14 97/20/14 122/167/14
f 126/159/27 142/158/27 138/180/27
f 100/22/14 124/189/14 123/170/14
f 132/181/7 138/180/7 142/158/7
f 134/182/7 130/188/7 129/183/7
f 135/156/7 131/187/7 132/181/7
f 129/183/7 141/200/7 140/185/7
f 135/156/7 143/153/7 144/186/7
f 134/182/7 139/201/7 137/160/7
f 108/145/13 129/183/13 130/188/13
f 113/168/27 137/202/27 139/177/27
f 104/162/14 131/187/14 144/186/14
f 103/147/14 118/166/14 138/180/14
f 109/24/13 127/154/13 143/153/13
f 116/176/13 141/200/13 129/183/13
f 103/147/14 132/181/14 131/187/14
f 124/189/9 140/192/9 141/190/9
f 100/17/14 99/19/14 134/182/14
f 124/189/14 100/22/14 133/191/14
usemtl Yellow
f 155/203/13 153/204/13 154/205/13
f 152/206/14 159/207/14 151/208/14
f 160/209/28 154/210/28 159/207/28
f 167/211/12 191/212/12 175/213/12
f 158/26/13 173/214/13 149/29/13
f 157/31/13 184/215/13 158/26/13
f 158/26/13 190/216/13 174/217/13
f 161/218/13 178/219/13 185/220/13
f 152/206/14 168/221/14 160/209/14
f 153/204/13 162/222/13 154/205/13
f 159/207/14 166/223/14 151/208/14
f 170/224/11 161/225/11 169/226/11
f 171/227/12 164/228/12 163/229/12
f 173/214/11 166/223/11 165/230/11
f 176/231/12 167/211/12 175/213/12
f 170/224/11 165/230/11 162/232/11
f 171/227/12 168/221/12 176/231/12
f 155/203/13 164/233/13 156/234/13
f 150/33/13 175/213/13 157/31/13
f 154/210/28 165/230/28 159/207/28
f 169/226/14 182/235/14 147/28/14
f 149/29/10 170/224/10 145/30/10
f 160/209/28 163/236/28 155/237/28
f 146/32/10 176/231/10 150/33/10
f 147/28/14 170/224/14 169/226/14
f 174/217/11 186/238/11 166/223/11
f 148/40/14 171/227/14 146/32/14
f 180/239/10 190/216/10 184/215/10
f 182/240/10 177/241/10 181/242/10
f 183/243/10 180/239/10 184/215/10
f 177/241/10 188/244/10 181/242/10
f 179/245/10 191/212/10 192/246/10
f 182/240/10 185/220/10 178/219/10
f 156/234/13 178/219/13 153/204/13
f 161/225/11 187/247/11 169/226/11
f 152/206/14 192/246/14 167/211/14
f 166/223/14 180/239/14 151/208/14
f 157/31/13 191/212/13 183/243/13
f 164/233/13 177/241/13 156/234/13
f 152/206/14 180/239/14 179/245/14
f 172/248/12 189/249/12 164/228/12
f 148/25/14 182/240/14 181/242/14
f 148/40/14 188/250/14 172/248/14
f 155/203/13 156/234/13 153/204/13
f 152/206/14 160/209/14 159/207/14
f 160/209/28 155/237/28 154/210/28
f 167/211/29 192/246/29 191/212/29
f 158/26/13 174/217/13 173/214/13
f 157/31/13 183/243/13 184/215/13
f 158/26/13 184/215/13 190/216/13
f 161/218/13 153/204/13 178/219/13
f 152/206/14 167/211/14 168/221/14
f 153/204/13 161/218/13 162/222/13
f 159/207/14 165/230/14 166/223/14
f 170/224/11 162/232/11 161/225/11
f 171/227/12 172/248/12 164/228/12
f 173/214/11 174/217/11 166/223/11
f 176/231/12 168/221/12 167/211/12
f 170/224/11 173/214/11 165/230/11
f 171/227/12 163/229/12 168/221/12
f 155/203/13 163/251/13 164/233/13
f 150/33/13 176/231/13 175/213/13
f 154/210/28 162/252/28 165/230/28
f 169/226/14 187/247/14 182/235/14
f 149/29/10 173/214/10 170/224/10
f 160/209/28 168/221/28 163/236/28
f 146/32/10 171/227/10 176/231/10
f 147/28/14 145/30/14 170/224/14
f 174/217/30 190/216/30 186/238/30
f 148/40/14 172/248/14 171/227/14
f 180/239/10 186/238/10 190/216/10
f 182/240/10 178/219/10 177/241/10
f 183/243/10 179/245/10 180/239/10
f 177/241/10 189/253/10 188/244/10
f 179/245/10 183/243/10 191/212/10
f 182/240/10 187/254/10 185/220/10
f 156/234/13 177/241/13 178/219/13
f 161/225/30 185/255/30 187/247/30
f 152/206/14 179/245/14 192/246/14
f 166/223/14 186/238/14 180/239/14
f 157/31/13 175/213/13 191/212/13
f 164/233/13 189/253/13 177/241/13
f 152/206/14 151/208/14 180/239/14
f 172/248/29 188/250/29 189/249/29
f 148/25/14 147/27/14 182/240/14
f 148/40/14 181/256/14 188/250/14
