# Blender v3.5.1 OBJ File: 'omaigat.blend'
# www.blender.org
mtllib carpet.mtl
o Carpet_Plane
v 0.818481 0.208093 0.807692
v 2.735913 0.208093 -0.129343
v -0.363910 0.208093 -1.611808
v 1.553522 0.208093 -2.548842
v -0.363910 0.225387 -1.611808
v 0.818481 0.225387 0.807692
v 2.735913 0.225387 -0.129343
v 1.553522 0.225387 -2.548842
v -1.124853 0.208093 -1.975723
v 0.638043 0.208093 1.631652
v 3.496856 0.208093 0.234572
v 1.733959 0.208093 -3.372803
v -1.124853 0.225387 -1.975723
v 0.638043 0.225387 1.631652
v 3.496856 0.225387 0.234572
v 1.733959 0.225387 -3.372803
v -0.869890 0.208093 -1.853789
v 0.698501 0.208093 1.355574
v 3.241893 0.208093 0.112638
v 1.673502 0.208093 -3.096725
v -0.869890 0.225387 -1.853789
v 0.698501 0.225387 1.355574
v 3.241893 0.225387 0.112638
v 1.673502 0.225387 -3.096725
v -0.761569 0.208093 -1.801985
v 0.724187 0.208093 1.238283
v 3.133572 0.208093 0.060834
v 1.647816 0.208093 -2.979434
v -0.761569 0.225387 -1.801985
v 0.724187 0.225387 1.238283
v 3.133572 0.225387 0.060834
v 1.647816 0.225387 -2.979434
v -0.473976 0.208093 -1.664446
v 0.792382 0.208093 0.926872
v 2.845978 0.208093 -0.076705
v 1.579621 0.208093 -2.668023
v -0.473976 0.225387 -1.664446
v 0.792382 0.225387 0.926872
v 2.845978 0.225387 -0.076705
v 1.579621 0.225387 -2.668023
vt 0.078604 0.078604
vt 0.055167 0.944834
vt 0.078604 0.921396
vt 0.921396 0.078604
vt 0.055167 0.055167
vt 0.921396 0.921396
vt 0.944834 0.055167
vt 0.944834 0.944834
vt 0.078604 0.921396
vt 0.055167 0.055167
vt 0.078604 0.078604
vt 0.944834 0.055167
vt 0.921396 0.078604
vt 0.944834 0.944834
vt 0.921396 0.921396
vt 0.055167 0.944834
vt 0.164645 0.164645
vt 0.140831 0.859169
vt 0.164645 0.835355
vt 0.835355 0.164645
vt 0.140831 0.140831
vt 0.835355 0.835355
vt 0.859170 0.140831
vt 0.859170 0.859169
vt 0.164645 0.835355
vt 0.140831 0.140831
vt 0.164645 0.164645
vt 0.859169 0.140831
vt 0.835355 0.164645
vt 0.859169 0.859170
vt 0.835355 0.835355
vt 0.140831 0.859170
vt 0.000000 1.000000
vt 1.000000 1.000000
vt 1.000000 1.000000
vt 1.000000 0.000000
vt 0.000000 0.000000
vt 0.000000 0.000000
vt 1.000000 0.000000
vt 0.000000 1.000000
vn 0.0000 -1.0000 0.0000
vn 0.0000 1.0000 -0.0000
vn -0.4391 0.0000 -0.8985
vn 0.4391 0.0000 0.8985
vn 0.8985 0.0000 -0.4391
vn -0.8985 0.0000 0.4391
usemtl Pillow
s off
f 26/1/1 17/2/1 25/3/1
f 27/4/1 18/5/1 26/1/1
f 28/6/1 19/7/1 27/4/1
f 25/3/1 20/8/1 28/6/1
f 29/9/2 22/10/2 30/11/2
f 30/11/2 23/12/2 31/13/2
f 31/13/2 24/14/2 32/15/2
f 32/15/2 21/16/2 29/9/2
f 1/17/1 33/18/1 3/19/1
f 2/20/1 34/21/1 1/17/1
f 4/22/1 35/23/1 2/20/1
f 3/19/1 36/24/1 4/22/1
f 5/25/2 38/26/2 6/27/2
f 6/27/2 39/28/2 7/29/2
f 7/29/2 40/30/2 8/31/2
f 8/31/2 37/32/2 5/25/2
f 26/1/1 18/5/1 17/2/1
f 27/4/1 19/7/1 18/5/1
f 28/6/1 20/8/1 19/7/1
f 25/3/1 17/2/1 20/8/1
f 29/9/2 21/16/2 22/10/2
f 30/11/2 22/10/2 23/12/2
f 31/13/2 23/12/2 24/14/2
f 32/15/2 24/14/2 21/16/2
f 1/17/1 34/21/1 33/18/1
f 2/20/1 35/23/1 34/21/1
f 4/22/1 36/24/1 35/23/1
f 3/19/1 33/18/1 36/24/1
f 5/25/2 37/32/2 38/26/2
f 6/27/2 38/26/2 39/28/2
f 7/29/2 39/28/2 40/30/2
f 8/31/2 40/30/2 37/32/2
usemtl White
f 3/19/1 2/20/1 1/17/1
f 7/29/2 5/25/2 6/27/2
f 9/33/3 16/34/3 12/35/3
f 11/36/4 14/37/4 10/38/4
f 12/35/5 15/39/5 11/36/5
f 10/38/6 13/40/6 9/33/6
f 18/5/1 9/33/1 17/2/1
f 19/7/1 10/38/1 18/5/1
f 20/8/1 11/36/1 19/7/1
f 17/2/1 12/35/1 20/8/1
f 21/16/2 14/37/2 22/10/2
f 22/10/2 15/39/2 23/12/2
f 23/12/2 16/34/2 24/14/2
f 24/14/2 13/40/2 21/16/2
f 34/21/1 25/3/1 33/18/1
f 35/23/1 26/1/1 34/21/1
f 36/24/1 27/4/1 35/23/1
f 33/18/1 28/6/1 36/24/1
f 37/32/2 30/11/2 38/26/2
f 38/26/2 31/13/2 39/28/2
f 39/28/2 32/15/2 40/30/2
f 40/30/2 29/9/2 37/32/2
f 3/19/1 4/22/1 2/20/1
f 7/29/2 8/31/2 5/25/2
f 9/33/3 13/40/3 16/34/3
f 11/36/4 15/39/4 14/37/4
f 12/35/5 16/34/5 15/39/5
f 10/38/6 14/37/6 13/40/6
f 18/5/1 10/38/1 9/33/1
f 19/7/1 11/36/1 10/38/1
f 20/8/1 12/35/1 11/36/1
f 17/2/1 9/33/1 12/35/1
f 21/16/2 13/40/2 14/37/2
f 22/10/2 14/37/2 15/39/2
f 23/12/2 15/39/2 16/34/2
f 24/14/2 16/34/2 13/40/2
f 34/21/1 26/1/1 25/3/1
f 35/23/1 27/4/1 26/1/1
f 36/24/1 28/6/1 27/4/1
f 33/18/1 25/3/1 28/6/1
f 37/32/2 29/9/2 30/11/2
f 38/26/2 30/11/2 31/13/2
f 39/28/2 31/13/2 32/15/2
f 40/30/2 32/15/2 29/9/2
