# Blender v3.5.1 OBJ File: 'omaigat.blend'
# www.blender.org
mtllib komputer.mtl
o PC_Cube.021
v -3.688735 1.502557 -1.111896
v -3.618543 1.502557 -1.111896
v -3.688735 1.502557 -1.000606
v -3.618543 1.502557 -1.000606
v -3.688735 1.622933 -1.111896
v -3.618543 1.622933 -1.111896
v -3.618543 1.622933 -1.000606
v -3.688735 1.622933 -1.000606
v -3.830960 1.445937 -1.204994
v -3.776177 1.445937 -1.322252
v -3.823620 1.445937 -1.263623
v -3.803568 1.445937 -1.306542
v -3.531101 1.445937 -1.322252
v -3.476318 1.445937 -1.204994
v -3.503710 1.445937 -1.306542
v -3.483658 1.445937 -1.263623
v -3.776177 1.445937 -0.790251
v -3.830960 1.445937 -0.907508
v -3.803569 1.445937 -0.805960
v -3.823620 1.445937 -0.848879
v -3.476318 1.445937 -0.907508
v -3.531101 1.445937 -0.790251
v -3.483658 1.445937 -0.848879
v -3.503710 1.445937 -0.805960
v -3.776177 1.502557 -1.322252
v -3.830960 1.502557 -1.204994
v -3.785890 1.502557 -1.255593
v -3.803568 1.502557 -1.306542
v -3.823620 1.502557 -1.263623
v -3.476318 1.502557 -1.204994
v -3.531101 1.502557 -1.322252
v -3.521388 1.502557 -1.255593
v -3.483658 1.502557 -1.263623
v -3.503710 1.502557 -1.306542
v -3.531101 1.502557 -0.790251
v -3.476318 1.502557 -0.907508
v -3.521388 1.502557 -0.856910
v -3.503710 1.502557 -0.805960
v -3.483658 1.502557 -0.848879
v -3.830960 1.502557 -0.907508
v -3.776177 1.502557 -0.790251
v -3.785891 1.502557 -0.856910
v -3.823620 1.502557 -0.848879
v -3.803569 1.502557 -0.805960
v -3.674984 1.618753 -1.675944
v -3.676288 1.620451 -1.675944
v -3.674984 1.620451 -1.706824
v -3.675906 1.619250 -1.675944
v -3.675737 1.619470 -1.693773
v -3.675906 1.620451 -1.697779
v -3.674984 1.619250 -1.697779
v -3.676288 2.413752 -1.675944
v -3.674984 2.415449 -1.675944
v -3.674984 2.413752 -1.706824
v -3.675906 2.414952 -1.675944
v -3.675737 2.414732 -1.693773
v -3.674984 2.414952 -1.697779
v -3.675906 2.413752 -1.697779
v -3.622680 1.675591 -1.645064
v -3.622680 1.673893 -1.614185
v -3.621377 1.672098 -1.647075
v -3.622680 1.674390 -1.636020
v -3.621928 1.673724 -1.638885
v -3.621760 1.673368 -1.630229
v -3.621759 1.673126 -1.645654
v -3.622680 2.358612 -1.645064
v -3.621377 2.362104 -1.647075
v -3.622680 2.360309 -1.614185
v -3.621759 2.361076 -1.645654
v -3.621928 2.360479 -1.638885
v -3.621760 2.360834 -1.630229
v -3.622680 2.359812 -1.636020
v -3.674985 1.618753 -0.436558
v -3.674985 1.620451 -0.405678
v -3.676288 1.620451 -0.436558
v -3.674985 1.619250 -0.414723
v -3.675737 1.619470 -0.418730
v -3.675906 1.620451 -0.414723
v -3.675906 1.619250 -0.436558
v -3.674985 2.415449 -0.436558
v -3.676288 2.413752 -0.436558
v -3.674985 2.413752 -0.405678
v -3.675906 2.414952 -0.436558
v -3.675737 2.414732 -0.418730
v -3.675906 2.413752 -0.414723
v -3.674985 2.414952 -0.414723
v -3.622681 1.673893 -0.498318
v -3.622681 1.675591 -0.467438
v -3.621377 1.672098 -0.465427
v -3.622681 1.674390 -0.476482
v -3.621928 1.673724 -0.473617
v -3.621759 1.673126 -0.466848
v -3.621760 1.673368 -0.482273
v -3.622681 2.360309 -0.498318
v -3.621377 2.362104 -0.465427
v -3.622681 2.358612 -0.467438
v -3.621760 2.360834 -0.482274
v -3.621928 2.360479 -0.473618
v -3.621759 2.361076 -0.466848
v -3.622681 2.359812 -0.476482
v -3.622680 2.415449 -1.675944
v -3.621377 2.413654 -1.704813
v -3.622680 2.413752 -1.706824
v -3.621760 2.414925 -1.690025
v -3.621928 2.414707 -1.699804
v -3.621758 2.413683 -1.706232
v -3.622680 2.414952 -1.697779
v -3.622680 1.618753 -1.675944
v -3.622680 1.620451 -1.706824
v -3.621377 1.620548 -1.704813
v -3.622680 1.619250 -1.697779
v -3.621928 1.619495 -1.699804
v -3.621758 1.620520 -1.706232
v -3.621760 1.619278 -1.690026
v -3.621377 1.620548 -0.407689
v -3.622681 1.620451 -0.405678
v -3.622681 1.618753 -0.436558
v -3.621758 1.620520 -0.406270
v -3.621928 1.619495 -0.412698
v -3.622681 1.619250 -0.414723
v -3.621760 1.619278 -0.422477
v -3.622681 2.415449 -0.436558
v -3.622681 2.413752 -0.405678
v -3.621377 2.413654 -0.407689
v -3.622681 2.414952 -0.414723
v -3.621928 2.414707 -0.412698
v -3.621758 2.413683 -0.406270
v -3.621760 2.414925 -0.422477
v -3.630085 2.358612 -1.645064
v -3.630085 2.360309 -1.614185
v -3.631388 2.358612 -1.614185
v -3.630085 2.359812 -1.636020
v -3.630838 2.359592 -1.632013
v -3.631007 2.359812 -1.614185
v -3.631007 2.358612 -1.636020
v -3.630085 1.675591 -1.645064
v -3.631388 1.675591 -1.614185
v -3.630085 1.673893 -1.614185
v -3.631007 1.675591 -1.636020
v -3.630838 1.674611 -1.632013
v -3.631007 1.674390 -1.614185
v -3.630085 1.674390 -1.636020
v -3.630085 1.673893 -0.498318
v -3.631388 1.675591 -0.498318
v -3.630085 1.675591 -0.467438
v -3.631007 1.674390 -0.498318
v -3.630838 1.674611 -0.480489
v -3.631007 1.675591 -0.476482
v -3.630085 1.674390 -0.476482
v -3.630085 2.360309 -0.498318
v -3.630085 2.358612 -0.467438
v -3.631388 2.358612 -0.498318
v -3.630085 2.359812 -0.476482
v -3.630838 2.359592 -0.480489
v -3.631007 2.358612 -0.476482
v -3.631007 2.359812 -0.498317
vt 0.625000 0.805102
vt 0.375000 0.944898
vt 0.375000 0.805102
vt 0.625000 0.538618
vt 0.375000 0.711382
vt 0.375000 0.538618
vt 0.875000 0.538618
vt 0.875000 0.711382
vt 0.856635 0.731635
vt 0.625000 0.305102
vt 0.375000 0.444898
vt 0.375000 0.305102
vt 0.625000 0.038618
vt 0.375000 0.211382
vt 0.375000 0.038618
vt 0.682956 0.557956
vt 0.682956 0.692044
vt 0.682956 0.692044
vt 0.819898 0.750000
vt 0.680102 0.750000
vt 0.817044 0.692044
vt 0.625000 0.711382
vt 0.643365 0.518365
vt 0.680102 0.500000
vt 0.819898 0.500000
vt 0.682956 0.557956
vt 0.817044 0.692044
vt 0.817044 0.557956
vt 0.817044 0.557956
vt 0.875000 0.730691
vt 0.867756 0.742756
vt 0.864560 0.739560
vt 0.842694 0.470025
vt 0.867756 0.507244
vt 0.856635 0.518365
vt 0.875000 0.519309
vt 0.602592 0.522323
vt 0.633953 0.508953
vt 0.652551 0.500000
vt 0.652551 0.750000
vt 0.643365 0.731635
vt 0.633953 0.741047
vt 0.640109 0.734891
vt 0.625000 0.944898
vt 0.375000 0.972449
vt 0.625000 0.000000
vt 0.375000 0.019309
vt 0.375000 0.000000
vt 0.625000 0.019309
vt 0.625000 0.277551
vt 0.375000 0.277551
vt 0.625000 0.230691
vt 0.375000 0.230691
vt 0.625000 0.211382
vt 0.625000 0.519309
vt 0.375000 0.519309
vt 0.625000 0.472449
vt 0.375000 0.472449
vt 0.625000 0.444898
vt 0.625000 0.777551
vt 0.375000 0.777551
vt 0.625000 0.730691
vt 0.375000 0.730691
vt 0.152551 0.744826
vt 0.132382 0.730691
vt 0.125000 0.711382
vt 0.624467 0.755933
vt 0.375533 0.994067
vt 0.375533 0.755933
vt 0.376031 0.261480
vt 0.375035 0.499614
vt 0.375035 0.250386
vt 0.376678 0.488134
vt 0.623322 0.488134
vt 0.623322 0.488134
vt 0.869067 0.505933
vt 0.630933 0.744067
vt 0.630933 0.505933
vt 0.624467 0.005933
vt 0.375533 0.244067
vt 0.375533 0.005933
vt 0.624965 0.250386
vt 0.623969 0.261480
vt 0.376065 0.267799
vt 0.376065 0.482200
vt 0.376065 0.482200
vt 0.623935 0.482200
vt 0.623935 0.267799
vt 0.623935 0.267799
vt 0.624467 0.505933
vt 0.375533 0.744067
vt 0.375533 0.505933
vt 0.623969 0.488520
vt 0.376031 0.488520
vt 0.623322 0.261866
vt 0.376678 0.261866
vt 0.376678 0.261866
vt 0.624965 0.499614
vt 0.130933 0.744067
vt 0.127508 0.750000
vt 0.125000 0.744067
vt 0.375225 1.000000
vt 0.375000 0.994067
vt 0.375000 0.005933
vt 0.375533 0.000000
vt 0.624467 0.994067
vt 0.625000 0.997492
vt 0.624467 1.000000
vt 0.869067 0.744067
vt 0.875000 0.747492
vt 0.869067 0.750000
vt 0.624467 0.000000
vt 0.625000 0.005933
vt 0.376065 0.262262
vt 0.376065 0.261866
vt 0.376065 0.264717
vt 0.376065 0.261866
vt 0.372190 0.264717
vt 0.623935 0.262262
vt 0.623935 0.261866
vt 0.623935 0.261866
vt 0.623935 0.264717
vt 0.369067 0.744067
vt 0.375075 0.750000
vt 0.369067 0.750000
vt 0.375533 0.750000
vt 0.375000 0.744067
vt 0.625761 0.749164
vt 0.625000 0.744067
vt 0.625000 0.755933
vt 0.624467 0.750000
vt 0.624467 0.744067
vt 0.376065 0.488134
vt 0.376065 0.485283
vt 0.376065 0.487738
vt 0.376065 0.488134
vt 0.623935 0.485283
vt 0.623935 0.488134
vt 0.623935 0.487738
vt 0.627810 0.485283
vt 0.623935 0.488134
vt 0.871772 0.500000
vt 0.875000 0.505933
vt 0.624767 0.250000
vt 0.629431 0.253228
vt 0.624467 0.244067
vt 0.625000 0.247492
vt 0.624446 0.250000
vt 0.125000 0.505933
vt 0.128228 0.500000
vt 0.130933 0.505933
vt 0.375233 0.250000
vt 0.375000 0.244067
vt 0.375000 0.251349
vt 0.375034 0.250000
vt 0.374628 0.500836
vt 0.370569 0.496772
vt 0.375554 0.500000
vt 0.371772 0.500000
vt 0.375000 0.505933
vt 0.369067 0.505933
vt 0.625000 0.505933
vt 0.628228 0.500000
vt 0.624922 0.500386
vt 0.624966 0.500000
vt 0.623935 0.261866
vt 0.623322 0.261866
vt 0.623322 0.261866
vt 0.623848 0.262702
vt 0.623322 0.267799
vt 0.623935 0.267799
vt 0.376678 0.261866
vt 0.376065 0.261866
vt 0.376678 0.267800
vt 0.376152 0.262702
vt 0.376065 0.267799
vt 0.376065 0.267799
vt 0.376152 0.487298
vt 0.376065 0.488134
vt 0.376678 0.482200
vt 0.376065 0.482200
vt 0.376678 0.488134
vt 0.376678 0.488134
vt 0.623935 0.482200
vt 0.623848 0.487298
vt 0.623935 0.482201
vt 0.623322 0.488134
vt 0.623935 0.488134
vt 0.623322 0.482200
vt 0.375533 1.000000
vt 0.875000 0.744067
vt 0.625000 0.244067
vt 0.375554 0.250000
vt 0.375000 0.253228
vt 0.375000 0.496772
vt 0.625000 0.496772
vt 0.625000 0.253228
vt 0.624446 0.500000
vt 0.130933 0.750000
vt 0.375000 0.755933
vt 0.630933 0.750000
vt 0.625000 0.994067
vt 0.625000 0.972449
vt 0.125000 0.538618
vt 0.180102 0.500000
vt 0.132382 0.519309
vt 0.152551 0.505174
vt 0.319898 0.500000
vt 0.319898 0.750000
vt 0.347449 0.505174
vt 0.367618 0.519309
vt 0.367618 0.730691
vt 0.347449 0.744826
vt 0.180102 0.750000
vt 0.375000 0.002508
vt 0.624775 0.000000
vt 0.873651 0.500000
vt 0.125000 0.502508
vn -1.0000 0.0000 0.0000
vn 0.0000 0.0000 1.0000
vn 0.0000 1.0000 0.0000
vn 1.0000 0.0000 0.0000
vn 0.0000 0.0000 -1.0000
vn -0.9923 0.0000 -0.1242
vn -0.9060 0.0000 -0.4233
vn -0.4975 0.0000 -0.8675
vn 0.9923 0.0000 -0.1242
vn 0.9060 0.0000 -0.4233
vn 0.4975 0.0000 -0.8675
vn 0.4975 0.0000 0.8675
vn 0.9060 0.0000 0.4233
vn 0.9923 0.0000 0.1242
vn -0.9923 0.0000 0.1242
vn -0.9060 0.0000 0.4233
vn -0.4975 0.0000 0.8675
vn 0.0000 -1.0000 -0.0000
vn -0.3823 -0.9238 -0.0210
vn -0.9528 -0.3032 -0.0128
vn -0.7908 -0.6068 -0.0806
vn -0.9713 0.2371 -0.0170
vn -0.4749 0.8799 -0.0154
vn -0.7908 0.6067 -0.0806
vn 0.9359 0.3521 -0.0076
vn 0.6951 0.7188 0.0164
vn 0.9403 0.3404 -0.0043
vn 0.8099 -0.5814 0.0772
vn 0.9339 -0.3575 -0.0082
vn 0.6950 -0.7188 0.0164
vn -0.4750 -0.8799 0.0154
vn -0.7905 -0.6071 0.0806
vn -0.9713 -0.2374 0.0170
vn -0.3826 0.9237 0.0210
vn -0.9528 0.3032 0.0128
vn -0.7906 0.6071 0.0806
vn 0.6951 0.7188 -0.0164
vn 0.8096 0.5819 -0.0772
vn 0.9337 0.3579 0.0082
vn 0.6953 -0.7185 -0.0164
vn 0.9403 -0.3404 0.0043
vn 0.9360 -0.3519 0.0076
vn 0.2166 0.9760 -0.0222
vn 0.8280 0.5602 -0.0267
vn 0.1695 0.9739 -0.1507
vn 0.2166 -0.9760 -0.0222
vn -0.0311 -0.9908 -0.1315
vn 0.5163 -0.8478 -0.1213
vn 0.8277 -0.5605 0.0267
vn 0.1694 -0.9740 0.1506
vn 0.2167 -0.9760 0.0223
vn 0.2165 0.9760 0.0222
vn -0.0311 0.9908 0.1315
vn 0.5166 0.8476 0.1213
vn 0.7905 -0.6071 0.0806
vn 0.3821 -0.9239 0.0210
vn 0.9528 -0.3032 0.0128
vn 0.7905 0.6071 0.0805
vn 0.9714 0.2368 0.0170
vn 0.4750 0.8799 0.0154
vn 0.3823 0.9238 -0.0210
vn 0.9528 0.3032 -0.0128
vn 0.7905 0.6071 -0.0805
vn 0.4751 -0.8798 -0.0154
vn 0.7906 -0.6071 -0.0806
vn 0.9714 -0.2367 -0.0170
vn 0.0000 -0.9997 -0.0228
vn 0.0000 -0.9913 -0.1316
vn -0.9998 0.0000 -0.0175
vn -0.9948 0.0000 -0.1014
vn 0.0000 0.9997 -0.0227
vn 0.0000 0.9913 -0.1316
vn 0.9659 0.0000 -0.2590
vn 0.5399 0.0000 -0.8418
vn 0.4952 -0.8688 0.0000
vn 0.9576 -0.2882 0.0000
vn 0.4957 0.8685 0.0000
vn 0.9575 0.2886 0.0000
vn 0.5398 0.0000 0.8418
vn 0.9659 0.0000 0.2589
vn 0.0000 -0.9997 0.0228
vn 0.0000 -0.9913 0.1316
vn 0.0000 0.9997 0.0228
vn 0.0000 0.9913 0.1316
vn -0.9998 0.0000 0.0175
vn -0.9948 0.0000 0.1014
vn -0.4747 -0.8801 -0.0000
vn -0.9532 -0.3024 -0.0000
vn -0.4748 0.8801 0.0000
vn -0.9531 0.3027 -0.0000
vn 0.5388 0.0000 0.8424
vn 0.9658 0.0000 0.2592
vn 0.9573 0.2891 0.0000
vn 0.4954 0.8687 0.0000
vn 0.9575 -0.2884 0.0000
vn 0.9658 0.0000 -0.2592
vn 0.5389 0.0000 -0.8424
vn 0.9998 0.0000 0.0175
vn 0.9948 0.0000 0.1014
vn 0.4748 0.8801 0.0000
vn 0.9527 0.3039 0.0000
vn 0.4747 -0.8802 0.0000
vn 0.9531 -0.3026 0.0000
vn 0.9948 0.0000 -0.1014
vn 0.9998 0.0000 -0.0175
vn 0.0000 -0.9913 0.1315
vn 0.0000 0.9997 -0.0228
vn -0.4750 -0.8799 -0.0154
vn -0.9713 -0.2371 -0.0170
vn -0.7880 -0.6049 -0.1147
vn -0.9528 0.3032 -0.0128
vn -0.3824 0.9238 -0.0210
vn -0.7880 0.6048 -0.1147
vn 0.8100 0.5813 0.0772
vn 0.6964 0.7174 0.0159
vn 0.9339 0.3574 -0.0082
vn 0.9359 -0.3521 -0.0076
vn 0.9403 -0.3404 -0.0043
vn 0.6968 -0.7171 0.0159
vn -0.3825 -0.9237 0.0210
vn -0.7879 -0.6051 0.1147
vn -0.9528 -0.3032 0.0128
vn -0.4749 0.8799 0.0154
vn -0.9713 0.2374 0.0170
vn -0.7879 0.6050 0.1147
vn 0.6967 0.7171 -0.0159
vn 0.9360 0.3519 0.0076
vn 0.9402 0.3407 0.0043
vn 0.6964 -0.7175 -0.0159
vn 0.9337 -0.3579 0.0082
vn 0.8096 -0.5819 -0.0772
vn 0.2463 0.9688 -0.0258
vn 0.5161 0.8479 -0.1213
vn -0.0312 0.9908 -0.1316
vn 0.2463 -0.9689 -0.0258
vn 0.1696 -0.9739 -0.1507
vn 0.8280 -0.5601 -0.0267
vn 0.5168 -0.8474 0.1214
vn -0.0312 -0.9908 0.1315
vn 0.2462 -0.9689 0.0258
vn 0.2461 0.9689 0.0257
vn 0.1693 0.9740 0.1506
vn 0.8280 0.5602 0.0267
vn 0.7879 -0.6050 0.1147
vn 0.4751 -0.8798 0.0154
vn 0.9714 -0.2367 0.0170
vn 0.7879 0.6051 0.1147
vn 0.9528 0.3032 0.0128
vn 0.3823 0.9238 0.0210
vn 0.4750 0.8799 -0.0154
vn 0.9714 0.2368 -0.0170
vn 0.7879 0.6051 -0.1147
vn 0.3821 -0.9239 -0.0210
vn 0.7879 -0.6050 -0.1147
vn 0.9528 -0.3032 -0.0128
vn 0.4955 -0.8686 0.0000
vn 0.4948 0.8690 0.0000
vn 0.9576 0.2882 0.0000
vn 0.0000 0.9997 0.0227
vn -0.9530 -0.3030 0.0000
vn -0.4746 0.8802 -0.0000
vn -0.9530 0.3030 0.0000
vn 0.5386 0.0000 0.8426
vn 0.9576 0.2881 0.0000
vn 0.4950 0.8689 0.0000
vn 0.9576 -0.2881 0.0000
vn 0.4946 -0.8691 0.0000
vn 0.5388 0.0000 -0.8424
vn 0.9949 0.0000 0.1014
vn 0.4749 0.8800 0.0000
vn 0.9531 0.3027 0.0000
vn 0.4750 -0.8800 0.0000
vn 0.9529 -0.3033 0.0000
vn 0.0000 0.9913 0.1315
vn -0.0000 -0.9913 -0.1315
usemtl Pillow
s off
f 40/1/1 9/2/1 18/3/1
f 35/4/2 17/5/2 22/6/2
f 31/7/3 25/8/3 27/9/3
f 30/10/4 21/11/4 14/12/4
f 25/13/5 13/14/5 10/15/5
f 4/16/2 8/17/2 3/18/2
f 26/19/3 40/20/3 1/21/3
f 41/22/3 35/4/3 37/23/3
f 36/24/3 30/25/3 4/16/3
f 7/26/3 5/27/3 8/17/3
f 1/21/5 6/28/5 2/29/5
f 3/18/1 5/27/1 1/21/1
f 2/29/4 7/26/4 4/16/4
f 25/8/3 28/30/3 27/9/3
f 28/30/3 29/31/3 27/9/3
f 29/31/3 26/32/3 27/9/3
f 30/33/3 33/34/3 32/35/3
f 33/34/3 34/36/3 32/35/3
f 34/36/3 31/7/3 32/35/3
f 35/37/3 38/38/3 37/23/3
f 38/38/3 39/39/3 37/23/3
f 39/39/3 36/24/3 37/23/3
f 40/20/3 43/40/3 42/41/3
f 43/40/3 44/42/3 42/41/3
f 44/42/3 41/43/3 42/41/3
f 26/44/6 11/45/6 9/2/6
f 29/46/7 12/47/7 11/48/7
f 28/49/8 10/15/8 12/47/8
f 14/12/9 33/50/9 30/10/9
f 16/51/10 34/52/10 33/50/10
f 15/53/11 31/54/11 34/52/11
f 22/6/12 38/55/12 35/4/12
f 24/56/13 39/57/13 38/55/13
f 23/58/14 36/59/14 39/57/14
f 18/3/15 43/60/15 40/1/15
f 20/61/16 44/62/16 43/60/16
f 19/63/17 41/22/17 44/62/17
f 11/64/18 12/65/18 10/66/18
f 81/67/1 46/68/1 75/69/1
f 61/70/4 115/71/4 110/72/4
f 88/73/5 151/74/5 96/75/5
f 101/76/3 80/77/3 122/78/3
f 54/79/5 109/80/5 47/81/5
f 61/70/4 102/82/4 67/83/4
f 60/84/3 143/85/3 87/86/3
f 94/87/18 130/88/18 68/89/18
f 123/90/2 74/91/2 116/92/2
f 95/93/4 115/71/4 89/94/4
f 66/95/2 136/96/2 59/97/2
f 67/83/4 124/98/4 95/93/4
f 45/99/19 49/100/19 51/101/19
f 46/68/20 49/102/20 48/103/20
f 51/104/21 50/105/21 47/81/21
f 52/106/22 56/107/22 58/108/22
f 53/109/23 56/110/23 55/111/23
f 58/112/24 57/113/24 54/79/24
f 59/97/25 63/114/25 65/115/25
f 64/116/26 62/117/26 60/84/26
f 61/70/27 63/114/27 64/118/27
f 66/95/28 70/119/28 72/120/28
f 67/83/29 70/119/29 69/121/29
f 72/120/30 71/122/30 68/89/30
f 73/123/31 77/124/31 79/125/31
f 78/126/32 76/127/32 74/91/32
f 75/69/33 77/124/33 78/126/33
f 80/77/34 84/128/34 86/129/34
f 81/67/35 84/128/35 83/130/35
f 86/129/36 85/131/36 82/132/36
f 90/133/37 93/134/37 87/86/37
f 88/73/38 91/135/38 90/133/38
f 89/94/39 91/135/39 92/136/39
f 97/137/40 100/138/40 94/87/40
f 95/93/41 98/139/41 97/140/41
f 96/75/42 98/139/42 99/141/42
f 104/142/43 107/143/43 101/76/43
f 102/82/44 105/144/44 104/145/44
f 103/146/45 105/147/45 106/148/45
f 111/149/46 114/150/46 108/151/46
f 109/80/47 112/152/47 111/153/47
f 110/72/48 112/154/48 113/155/48
f 115/71/49 119/156/49 121/157/49
f 116/92/50 119/156/50 118/158/50
f 121/159/51 120/160/51 117/161/51
f 125/162/52 128/163/52 122/78/52
f 123/90/53 126/164/53 125/162/53
f 124/98/54 126/164/54 127/165/54
f 132/166/55 135/167/55 129/168/55
f 130/88/56 133/169/56 132/166/56
f 131/170/57 133/169/57 134/171/57
f 139/172/58 142/173/58 136/96/58
f 137/174/59 140/175/59 139/172/59
f 138/176/60 140/175/60 141/177/60
f 143/85/61 147/178/61 149/179/61
f 144/180/62 147/178/62 146/181/62
f 149/179/63 148/182/63 145/183/63
f 150/184/64 154/185/64 156/186/64
f 155/187/65 153/188/65 151/74/65
f 152/189/66 154/185/66 155/187/66
f 45/99/67 111/149/67 108/151/67
f 51/104/68 109/80/68 111/153/68
f 52/106/69 50/190/69 46/68/69
f 58/112/70 47/81/70 50/105/70
f 53/109/71 107/143/71 57/191/71
f 107/192/72 54/79/72 57/113/72
f 110/72/73 106/148/73 102/82/73
f 113/193/74 103/146/74 106/148/74
f 117/161/75 114/150/75 121/159/75
f 114/194/76 115/71/76 121/195/76
f 101/76/77 128/163/77 104/142/77
f 128/196/78 102/82/78 104/197/78
f 116/92/79 127/198/79 123/90/79
f 127/198/80 115/71/80 124/98/80
f 117/161/81 76/127/81 73/123/81
f 120/160/82 74/91/82 76/127/82
f 80/77/83 125/162/83 122/78/83
f 86/129/84 123/90/84 125/162/84
f 75/69/85 85/131/85 81/67/85
f 78/126/86 82/132/86 85/131/86
f 73/123/87 48/199/87 45/99/87
f 79/200/88 46/68/88 48/103/88
f 53/109/89 83/201/89 80/77/89
f 55/202/90 81/67/90 83/130/90
f 59/97/91 69/121/91 66/95/91
f 65/115/92 67/83/92 69/121/92
f 61/70/93 93/134/93 89/94/93
f 64/116/94 87/86/94 93/134/94
f 95/93/95 71/122/95 67/83/95
f 97/137/75 68/89/75 71/122/75
f 89/94/96 99/141/96 95/93/96
f 92/136/97 96/75/97 99/141/97
f 137/174/98 135/167/98 131/170/98
f 139/172/99 129/168/99 135/167/99
f 138/176/100 146/181/100 143/85/100
f 146/181/101 137/174/101 144/180/101
f 150/184/102 134/171/102 130/88/102
f 156/186/103 131/170/103 134/171/103
f 145/183/104 155/187/104 151/74/104
f 148/182/105 152/189/105 155/187/105
f 130/88/81 72/120/81 68/89/81
f 132/166/106 66/95/106 72/120/106
f 60/84/83 142/173/83 138/176/83
f 62/117/84 136/96/84 142/173/84
f 87/86/107 149/179/107 90/133/107
f 90/133/72 145/183/72 88/73/72
f 150/184/67 100/138/67 153/188/67
f 153/188/68 96/75/68 151/74/68
f 117/161/18 45/99/18 108/151/18
f 40/1/1 26/44/1 9/2/1
f 35/4/2 41/22/2 17/5/2
f 27/9/3 1/21/3 2/29/3
f 2/29/3 32/35/3 27/9/3
f 32/35/3 31/7/3 27/9/3
f 30/10/4 36/59/4 21/11/4
f 25/13/5 31/54/5 13/14/5
f 4/16/2 7/26/2 8/17/2
f 42/41/3 3/18/3 40/20/3
f 3/18/3 1/21/3 40/20/3
f 1/21/3 27/9/3 26/19/3
f 37/23/3 4/16/3 3/18/3
f 3/18/3 42/41/3 37/23/3
f 42/41/3 41/22/3 37/23/3
f 32/35/3 2/29/3 30/25/3
f 2/29/3 4/16/3 30/25/3
f 4/16/3 37/23/3 36/24/3
f 7/26/3 6/28/3 5/27/3
f 1/21/5 5/27/5 6/28/5
f 3/18/1 8/17/1 5/27/1
f 2/29/4 6/28/4 7/26/4
f 26/44/6 29/203/6 11/45/6
f 29/46/7 28/49/7 12/47/7
f 28/49/8 25/13/8 10/15/8
f 14/12/9 16/51/9 33/50/9
f 16/51/10 15/53/10 34/52/10
f 15/53/11 13/14/11 31/54/11
f 22/6/12 24/56/12 38/55/12
f 24/56/13 23/58/13 39/57/13
f 23/58/14 21/11/14 36/59/14
f 18/3/15 20/61/15 43/60/15
f 20/61/16 19/63/16 44/62/16
f 19/63/17 17/5/17 41/22/17
f 10/66/18 13/204/18 14/205/18
f 13/204/18 15/206/18 16/207/18
f 14/205/18 13/204/18 16/207/18
f 14/205/18 21/208/18 18/209/18
f 21/208/18 23/210/18 22/6/18
f 18/209/18 21/208/18 22/6/18
f 23/210/18 24/211/18 22/6/18
f 22/6/18 17/5/18 18/209/18
f 17/5/18 19/212/18 20/213/18
f 18/209/18 17/5/18 20/213/18
f 18/209/18 9/214/18 14/205/18
f 9/214/18 11/64/18 10/66/18
f 14/205/18 9/214/18 10/66/18
f 81/67/1 52/106/1 46/68/1
f 61/70/4 89/94/4 115/71/4
f 88/73/5 145/183/5 151/74/5
f 101/76/3 53/109/3 80/77/3
f 54/79/5 103/146/5 109/80/5
f 61/70/4 110/72/4 102/82/4
f 60/84/3 138/176/3 143/85/3
f 94/87/18 150/184/18 130/88/18
f 123/90/2 82/132/2 74/91/2
f 95/93/4 124/98/4 115/71/4
f 66/95/2 129/168/2 136/96/2
f 67/83/4 102/82/4 124/98/4
f 45/99/108 48/199/108 49/100/108
f 46/68/109 50/190/109 49/102/109
f 51/104/110 49/215/110 50/105/110
f 52/106/111 55/202/111 56/107/111
f 53/109/112 57/191/112 56/110/112
f 58/112/113 56/216/113 57/113/113
f 59/97/114 62/117/114 63/114/114
f 64/116/115 63/114/115 62/117/115
f 61/70/116 65/115/116 63/114/116
f 66/95/117 69/121/117 70/119/117
f 67/83/118 71/122/118 70/119/118
f 72/120/119 70/119/119 71/122/119
f 73/123/120 76/127/120 77/124/120
f 78/126/121 77/124/121 76/127/121
f 75/69/122 79/200/122 77/124/122
f 80/77/123 83/201/123 84/128/123
f 81/67/124 85/131/124 84/128/124
f 86/129/125 84/128/125 85/131/125
f 90/133/126 91/135/126 93/134/126
f 88/73/127 92/136/127 91/135/127
f 89/94/128 93/134/128 91/135/128
f 97/137/129 98/139/129 100/138/129
f 95/93/130 99/141/130 98/139/130
f 96/75/131 100/138/131 98/139/131
f 104/142/132 105/217/132 107/143/132
f 102/82/133 106/148/133 105/144/133
f 103/146/134 107/192/134 105/147/134
f 111/149/135 112/218/135 114/150/135
f 109/80/136 113/193/136 112/152/136
f 110/72/137 114/194/137 112/154/137
f 115/71/138 118/158/138 119/156/138
f 116/92/139 120/160/139 119/156/139
f 121/159/140 119/156/140 120/160/140
f 125/162/141 126/164/141 128/163/141
f 123/90/142 127/198/142 126/164/142
f 124/98/143 128/196/143 126/164/143
f 132/166/144 133/169/144 135/167/144
f 130/88/145 134/171/145 133/169/145
f 131/170/146 135/167/146 133/169/146
f 139/172/147 140/175/147 142/173/147
f 137/174/148 141/177/148 140/175/148
f 138/176/149 142/173/149 140/175/149
f 143/85/150 146/181/150 147/178/150
f 144/180/151 148/182/151 147/178/151
f 149/179/152 147/178/152 148/182/152
f 150/184/153 153/188/153 154/185/153
f 155/187/154 154/185/154 153/188/154
f 152/189/155 156/186/155 154/185/155
f 45/99/67 51/101/67 111/149/67
f 51/104/68 47/81/68 109/80/68
f 52/106/69 58/108/69 50/190/69
f 58/112/70 54/79/70 47/81/70
f 53/109/107 101/76/107 107/143/107
f 107/192/72 103/146/72 54/79/72
f 110/72/73 113/193/73 106/148/73
f 113/193/74 109/80/74 103/146/74
f 117/161/156 108/151/156 114/150/156
f 114/194/76 110/72/76 115/71/76
f 101/76/157 122/78/157 128/163/157
f 128/196/158 124/98/158 102/82/158
f 116/92/79 118/158/79 127/198/79
f 127/198/80 118/158/80 115/71/80
f 117/161/81 120/160/81 76/127/81
f 120/160/82 116/92/82 74/91/82
f 80/77/159 86/129/159 125/162/159
f 86/129/84 82/132/84 123/90/84
f 75/69/85 78/126/85 85/131/85
f 78/126/86 74/91/86 82/132/86
f 73/123/87 79/125/87 48/199/87
f 79/200/160 75/69/160 46/68/160
f 53/109/161 55/111/161 83/201/161
f 55/202/162 52/106/162 81/67/162
f 59/97/163 65/115/163 69/121/163
f 65/115/92 61/70/92 67/83/92
f 61/70/164 64/116/164 93/134/164
f 64/116/165 60/84/165 87/86/165
f 95/93/166 97/137/166 71/122/166
f 97/137/167 94/87/167 68/89/167
f 89/94/96 92/136/96 99/141/96
f 92/136/168 88/73/168 96/75/168
f 137/174/98 139/172/98 135/167/98
f 139/172/169 136/96/169 129/168/169
f 138/176/170 141/177/170 146/181/170
f 146/181/171 141/177/171 137/174/171
f 150/184/172 156/186/172 134/171/172
f 156/186/173 152/189/173 131/170/173
f 145/183/104 148/182/104 155/187/104
f 148/182/105 144/180/105 152/189/105
f 130/88/81 132/166/81 72/120/81
f 132/166/82 129/168/82 66/95/82
f 60/84/83 62/117/83 142/173/83
f 62/117/174 59/97/174 136/96/174
f 87/86/107 143/85/107 149/179/107
f 90/133/72 149/179/72 145/183/72
f 150/184/67 94/87/67 100/138/67
f 153/188/175 100/138/175 96/75/175
f 117/161/18 73/123/18 45/99/18
usemtl Pin_picture.001
f 131/170/4 144/180/4 137/174/4
f 131/170/4 152/189/4 144/180/4
