# Blender v3.5.1 OBJ File: 'omaigat.blend'
# www.blender.org
mtllib wall_kanan.mtl
o Wall.002_Cube.036
v -4.360000 -0.215920 5.079999
v -4.360000 -0.189045 5.199999
v -4.400000 -0.189045 5.079999
v -4.360000 5.132136 5.199999
v -4.360000 5.159010 5.079999
v -4.400000 5.132136 5.079999
v -4.360000 -0.215920 -19.879999
v -4.400000 -0.189045 -19.879999
v -4.360000 -0.189045 -20.000000
v -4.360000 5.159010 -19.879999
v -4.360000 5.132136 -20.000000
v -4.400000 5.132136 -19.879999
v 4.000000 -0.189045 5.079999
v 3.960000 -0.189045 5.199999
v 3.960000 -0.215920 5.079999
v 4.000000 5.132136 5.079999
v 3.960000 5.159010 5.079999
v 3.960000 5.132136 5.199999
v -4.000000 -0.189045 3.879999
v -3.960000 -0.189045 3.999999
v -3.960000 -0.215920 4.119999
v -4.039999 -0.215920 3.879999
v -3.960000 5.132136 3.999999
v -4.000000 5.132136 3.879999
v -4.039999 5.159010 3.879999
v -3.960000 5.159010 4.119999
v -4.039999 -0.215920 -19.879999
v -4.039999 -0.189045 -20.000000
v -4.000000 -0.189045 -19.879999
v -4.039999 5.159010 -19.879999
v -4.000000 5.132136 -19.879999
v -4.039999 5.132136 -20.000000
v 4.000000 -0.189045 4.119999
v 3.960000 -0.215920 4.119999
v 3.960000 -0.189045 3.999999
v 4.000000 5.132136 4.119999
v 3.960000 5.132136 3.999999
v 3.960000 5.159010 4.119999
v -1.218005 4.401251 5.199999
v 1.293335 4.401251 5.199999
v -1.218005 1.463075 5.199999
v 1.293335 1.463075 5.199999
v -1.218005 1.463075 3.999999
v 1.293335 1.463075 3.999999
v -1.218005 4.401251 3.999999
v 1.293335 4.401251 3.999999
vt 0.376250 0.998809
vt 0.376250 0.751190
vt 0.453094 0.905298
vt 0.623750 0.751190
vt 0.589755 0.905298
vt 0.589755 0.830555
vt 0.375000 0.751209
vt 0.375000 0.997563
vt 0.375000 0.751231
vt 0.589755 0.913063
vt 0.623750 0.751250
vt 0.589755 0.834583
vt 0.453094 0.913063
vt 0.453094 0.834583
vt 0.376250 0.751250
vt 0.623750 0.001190
vt 0.376250 0.248810
vt 0.376250 0.001190
vt 0.625000 0.751209
vt 0.625000 0.751231
vt 0.625000 0.997564
vt 0.376250 0.750000
vt 0.623750 0.750000
vt 0.623750 0.750000
vt 0.376250 0.248750
vt 0.623750 0.001250
vt 0.376250 0.001250
vt 0.625000 0.248791
vt 0.625000 0.002437
vt 0.625000 0.248769
vt 0.623750 0.250000
vt 0.376250 0.250000
vt 0.376250 0.250000
vt 0.375000 1.000000
vt 0.375000 0.998810
vt 0.375000 1.000000
vt 0.623750 0.998810
vt 0.625000 0.998810
vt 0.623750 1.000000
vt 0.375000 0.248791
vt 0.623750 0.248810
vt 0.375000 0.000000
vt 0.375000 0.001250
vt 0.375000 0.001250
vt 0.623750 0.000000
vt 0.625000 0.000000
vt 0.623750 0.000000
vt 0.375000 0.248769
vt 0.623750 0.248750
vt 0.623750 0.250000
vt 0.376250 0.750000
vt 0.375000 0.000000
vt 0.623750 0.000000
vt 0.376250 0.000000
vt 0.625000 0.000000
vt 0.625000 1.000000
vt 0.376250 0.000000
vt 0.376250 0.998750
vt 0.623750 0.998750
vt 0.375000 0.002437
vt 0.625000 0.099579
vt 0.375000 0.149579
vt 0.625000 0.149579
vt 0.625000 0.600421
vt 0.375000 0.650421
vt 0.625000 0.650421
vt 0.125000 0.650421
vt 0.375000 0.600421
vt 0.125000 0.600421
vt 0.875000 0.650421
vt 0.453094 0.830556
vt 0.625000 1.002354
vt 0.375000 0.000000
vt 0.625000 0.001250
vt 0.375000 -0.002354
vt 0.375000 0.099579
vt 0.875000 0.600421
vn 0.0000 0.0000 1.0000
vn 0.0000 -1.0000 0.0000
vn 0.0000 0.0000 -1.0000
vn -1.0000 0.0000 0.0000
vn 0.0000 1.0000 0.0000
vn 1.0000 0.0000 0.0000
vn 0.1359 -0.8943 -0.4264
vn -0.1850 -0.3802 0.9062
vn -0.9055 -0.1846 -0.3820
vn -0.1849 0.3803 0.9062
vn 0.1359 0.8943 -0.4264
vn -0.9056 0.1846 -0.3819
vn 0.1359 -0.8943 0.4264
vn -0.9056 -0.1846 0.3819
vn -0.1849 -0.3803 -0.9062
vn 0.1359 0.8943 0.4264
vn -0.1850 0.3802 -0.9062
vn -0.9055 0.1846 0.3820
vn 0.9056 -0.1846 -0.3819
vn 0.1849 -0.3803 0.9062
vn -0.1359 -0.8943 -0.4264
vn 0.9055 0.1846 -0.3820
vn -0.1359 0.8943 -0.4263
vn 0.1850 0.3802 0.9062
vn 0.5554 -0.1512 -0.8177
vn -0.2096 -0.9215 0.3268
vn 0.8694 -0.2221 0.4413
vn 0.9396 0.1455 0.3097
vn -0.2978 0.9421 0.1543
vn 0.3530 0.2697 -0.8959
vn -0.1359 -0.8943 0.4264
vn 0.1851 -0.3802 -0.9062
vn 0.9055 -0.1846 0.3820
vn -0.1359 0.8943 0.4264
vn 0.9056 0.1846 0.3819
vn 0.1849 0.3803 -0.9062
vn -0.3955 -0.5862 -0.7071
vn -0.9813 -0.1926 0.0009
vn 0.1926 -0.9813 0.0000
vn -0.4763 0.3487 0.8072
vn -0.8944 0.0112 -0.4471
vn -0.4472 0.0000 0.8944
vn -0.3955 0.5862 0.7071
vn -0.9813 0.1926 -0.0009
vn 0.1926 0.9813 -0.0000
vn -0.4763 -0.3487 -0.8072
vn -0.8944 -0.0112 0.4472
vn -0.4472 -0.0000 -0.8944
vn 0.4763 -0.3487 0.8072
vn 0.8944 -0.0112 -0.4471
vn 0.4472 -0.0000 0.8944
vn 0.3505 -0.8242 -0.4448
vn 0.0070 -0.5355 0.8445
vn 0.0000 -0.8445 -0.5355
vn -0.3505 0.8242 -0.4448
vn -0.0070 0.5355 0.8445
vn -0.0000 0.8445 -0.5355
vn 0.3931 -0.5877 -0.7071
vn -0.1926 -0.9813 0.0012
vn 0.9813 -0.1926 0.0000
vn 0.6761 -0.7069 -0.2077
vn 0.4472 0.0000 -0.8944
vn 0.8944 -0.0000 0.4472
vn 0.3931 0.5877 0.7071
vn -0.1926 0.9813 -0.0010
vn 0.9813 0.1926 -0.0000
vn 0.8653 -0.3487 0.3600
vn 0.4472 -0.0112 -0.8944
vn 0.3503 -0.5558 -0.7539
vn 0.0074 -0.8445 0.5355
vn 0.0000 -0.5355 -0.8446
vn -0.3503 0.5558 -0.7539
vn -0.0074 0.8445 0.5355
vn -0.0000 0.5355 -0.8446
vn 0.2762 -0.5477 -0.7898
vn 0.1713 -0.8399 0.5150
vn 0.2762 0.8323 0.4807
vn 0.1713 0.5401 -0.8240
vn 0.0000 0.8445 0.5355
vn -0.1188 -0.9317 -0.3432
vn 0.9810 -0.1928 -0.0237
vn -0.1926 -0.9813 -0.0000
vn 0.9075 0.2421 -0.3432
vn -0.1923 0.9811 -0.0237
vn 0.1617 -0.3965 -0.9037
vn -0.2525 -0.9339 0.2533
vn -0.3564 -0.9319 -0.0668
vn 0.7950 0.2923 0.5315
vn -0.2937 0.9416 0.1645
vn -0.2293 0.9276 0.2950
vn 0.1926 -0.9813 -0.0009
vn -0.9813 -0.1926 -0.0000
vn -0.3932 -0.5877 0.7071
vn -0.4472 -0.0112 0.8944
vn -0.8944 -0.0000 -0.4472
vn -0.8653 -0.3487 -0.3600
vn 0.1926 0.9813 0.0009
vn -0.9813 0.1926 0.0000
vn -0.3932 0.5877 -0.7071
vn -0.4472 0.0112 -0.8944
vn -0.8944 0.0000 0.4472
vn -0.8653 0.3487 0.3600
vn 0.4472 0.0112 0.8944
vn 0.8944 0.0000 -0.4472
vn 0.8653 0.3487 -0.3600
vn -0.0070 -0.8445 -0.5355
vn -0.0000 -0.5355 0.8446
vn -0.3505 -0.5558 0.7538
vn 0.0070 0.8445 -0.5355
vn 0.0000 0.5355 0.8446
vn 0.3505 0.5558 0.7538
vn 0.9813 -0.1926 -0.0010
vn 0.3955 -0.5861 0.7071
vn 0.6655 0.7069 -0.2395
vn 0.9813 0.1926 0.0010
vn -0.1926 0.9813 0.0000
vn 0.3955 0.5861 -0.7071
vn 0.8944 0.0112 0.4472
vn 0.4763 0.3487 -0.8072
vn -0.0074 -0.5355 -0.8445
vn -0.0000 -0.8445 0.5355
vn -0.3503 -0.8242 0.4449
vn 0.0074 0.5355 -0.8445
vn 0.3503 0.8242 0.4449
vn -0.1713 -0.5401 -0.8240
vn -0.2762 -0.8323 0.4807
vn -0.1713 0.8399 0.5150
vn -0.2762 0.5477 -0.7898
vn -0.1923 -0.9811 0.0237
vn 0.9075 -0.2421 0.3432
vn 0.9810 0.1928 0.0237
vn -0.1188 0.9317 0.3432
usemtl White.003
s off
f 2/1/1 14/2/1 41/3/1
f 18/4/1 39/5/1 40/6/1
f 15/7/2 21/8/2 34/9/2
f 45/10/3 37/11/3 46/12/3
f 43/13/3 44/14/3 35/15/3
f 6/16/4 8/17/4 3/18/4
f 17/19/5 38/20/5 26/21/5
f 13/22/6 36/23/6 16/24/6
f 29/25/6 24/26/6 19/27/6
f 10/28/5 25/29/5 30/30/5
f 11/31/3 28/32/3 9/33/3
f 1/34/7 2/35/8 3/36/9
f 4/37/10 5/38/11 6/39/12
f 7/40/13 8/17/14 9/33/15
f 10/28/16 11/31/17 12/41/18
f 13/22/19 14/2/20 15/7/21
f 16/24/22 17/19/23 18/4/24
f 20/42/25 22/43/26 19/44/27
f 24/45/28 26/46/29 23/47/30
f 27/48/31 28/32/32 29/25/33
f 30/30/34 31/49/35 32/50/36
f 33/51/33 34/9/31 35/15/32
f 36/23/35 37/11/36 38/20/34
f 1/52/37 8/17/38 7/40/39
f 4/53/40 3/18/41 2/54/42
f 10/28/43 6/16/44 5/55/45
f 9/33/46 12/41/47 11/31/48
f 14/2/49 16/24/50 18/4/51
f 15/7/52 2/1/53 1/34/54
f 5/56/55 18/4/56 17/19/57
f 19/27/58 27/48/59 29/25/60
f 24/26/61 20/57/62 19/27/63
f 31/49/64 25/29/65 24/26/66
f 29/25/67 32/50/68 31/49/63
f 33/51/67 37/11/68 36/23/63
f 35/15/69 21/8/70 20/58/71
f 23/59/72 38/20/73 37/11/74
f 28/32/75 7/40/76 9/33/71
f 30/30/77 11/31/78 10/28/79
f 34/9/80 13/22/81 15/7/82
f 36/23/83 17/19/84 16/24/66
f 7/40/2 27/48/2 22/60/2
f 39/61/6 43/62/6 45/63/6
f 46/64/4 42/65/4 40/66/4
f 41/67/5 44/68/5 43/69/5
f 39/70/2 46/64/2 40/66/2
f 39/5/1 4/37/1 41/3/1
f 4/37/1 2/1/1 41/3/1
f 14/2/1 18/4/1 42/71/1
f 18/4/1 40/6/1 42/71/1
f 14/2/1 42/71/1 41/3/1
f 18/4/1 4/37/1 39/5/1
f 15/7/2 1/34/2 21/8/2
f 45/10/3 23/59/3 37/11/3
f 46/12/3 37/11/3 44/14/3
f 37/11/3 35/15/3 44/14/3
f 20/58/3 23/59/3 43/13/3
f 23/59/3 45/10/3 43/13/3
f 20/58/3 43/13/3 35/15/3
f 6/16/4 12/41/4 8/17/4
f 26/21/5 25/72/5 5/56/5
f 5/56/5 17/19/5 26/21/5
f 13/22/6 33/51/6 36/23/6
f 29/25/6 31/49/6 24/26/6
f 10/28/5 5/55/5 25/29/5
f 11/31/3 32/50/3 28/32/3
f 20/42/85 21/73/86 22/43/87
f 24/45/88 25/74/89 26/46/90
f 1/52/91 3/18/92 8/17/93
f 4/53/94 6/16/95 3/18/96
f 10/28/97 12/41/98 6/16/99
f 9/33/100 8/17/101 12/41/102
f 14/2/103 13/22/104 16/24/105
f 15/7/106 14/2/107 2/1/108
f 5/56/109 4/37/110 18/4/111
f 19/27/112 22/60/82 27/48/113
f 24/26/63 23/47/62 20/57/114
f 31/49/115 30/30/116 25/29/117
f 29/25/118 28/32/62 32/50/119
f 33/51/118 35/15/62 37/11/119
f 35/15/120 34/9/121 21/8/122
f 23/59/123 26/21/79 38/20/124
f 28/32/125 27/48/121 7/40/126
f 30/30/127 32/50/74 11/31/128
f 34/9/129 33/51/60 13/22/130
f 36/23/131 38/20/116 17/19/132
f 22/60/2 21/75/2 1/52/2
f 1/52/2 7/40/2 22/60/2
f 39/61/6 41/76/6 43/62/6
f 46/64/4 44/68/4 42/65/4
f 41/67/5 42/65/5 44/68/5
f 39/70/2 45/77/2 46/64/2
